/* XPM */
static char *_1712829580[] = {
/* columns rows colors chars-per-pixel */
"65 65 17 1 ",
"  c #895F36",
". c #8A6036",
"X c #8D643B",
"o c #8F683F",
"O c #90673E",
"+ c #91683F",
"@ c #916740",
"# c #946B42",
"$ c #996F46",
"% c #9A7147",
"& c #9C734A",
"* c #A1774D",
"= c #A3794F",
"- c #A67C52",
"; c #A87E54",
": c #A87E58",
"> c #A98054",
/* pixels */
"-----;---;-----;---------:=:=>=:=:-:=---*>*:*>>>>>::>>=:=>>:*>>*-",
"--;---;-;-;;;;-;:>>:>>::>::::>>>>->>>:-::>>>::*>*>:*=:>:>=>>:*>*-",
"--------------;->>>>>>>>>>-->=>=----->--*>:>**>***********>=*>*>;",
"-==--=-*-=-=---=********&**&*&****=-===*>******:>>**:==&**&****&*",
"XXooXXoooXoXooXo@@X@o@@@@@@XXXXXXXX@@@XXXXXoXXXXXXoXXXXXXoXoXXXX ",
"&&*&*&**************&*&***=*==:*>=***===:****>*=&:=*&::****&**>*=",
";-;;;;;;-;-;;;-;>-->>>->>>>>>>>:=>:->=:==>*>:*>=>>*=:>>>>>>>:>>*;",
";--;--;---;-------*--*-***********===>==>**>****&**:&***:**:*>*>-",
"======----;--------------------->::=*>>*>>=>>:*:--=----=*:>*>*>*;",
"----;---;---;;-;-->>>-:>>->:>>>>>>>>::>::==:>==>--->---:>**>*:>*=",
";;;;;;---------;>>->->>>--:--->>:>:=>::>=>>>>>=>-=-=*===&*:*>***=",
"##$#$$$$$$$$$$$$%%#%%##%%%&%%%&%%%%%%%$%%%$$&%&&%%%%&%&&%%%%%%&&&",
"$#####$#%%++$+$+@@##############@@@@@%oo@@@@@@@@#@@@@@@@@@@@ooXXX",
"-;;;;;;-;;>;;;;>:>>>>>>>>>>>>--->>*:>>::>>:>>>>>>>>>>>>>>>>>=>=:;",
"-----------;-;;;-::>>>>>:>::>>->>>>>>>>>>=>->==**-:*====*=====:=-",
"---;--;;;;;-;;;;----=-=-=--===--*>*>>*:*:::==>>:-=-:==:==:>===:=-",
"---------------=--=-====-*--**-*==------;;;----;->-->-->>->-----;",
"-----;-------------;;-;;-;--;;;->-------======-=-*-*************=",
"---=-----=---==-=-=---=---*--*--=====-====**===***&*-****-*-*-**=",
"@@@@@@@@#+#@+###+###+############$%###$#$#$############@@######@O",
"-----;;;--;;-;;;;;;;;;;;-:-:;-;-;=--;=;>=;=>--=->----->>->-->-:-;",
"-----------;;;--=--=-==*-*******============**==********=*-------",
"=--==------;----;-=;;-;----;;;-;;;>;;-=;=--;-------->-*------:---",
"---------;;;;;;-;;;;;;-;;;;;;;;;;;;;;>;;>;>-;;----*>--------*=---",
"---;-----;-------;--------------=;-----------=---=&-====*-&-===--",
"-----;;--;-;-;;;;------------*-*===========-=----->-==>=-*>=>==--",
"*==**=***=====***-**-*=-=-=*---=========*=-*-=-;-&&>-========-===",
"        .  .....    .  . ..  X  ..X.X..XX XX.O..XoXXXoXXXXXXXXXoO",
"*&**%&*&*&**&&&*&&&&*%&&&&&%&&&&%&&&&%%&%$$%%%%$$$%$#$$$$$$###@@O",
"---;;--;-;;;--;;;;;;;-;-;;-;;;;;;--;;-----;---->------>---;->>:>;",
"--;--------;;-------====*==*-***-*===----=-=====-&&---=--=-------",
"-====-----------;--=--;----;-;;;----;-;-;------------------;->-;-",
"---------;;;;--;;;;;;;--;;;-;;-;;;--;---;-;--;;-;;-=-=------=----",
";;-;------===-----==-----------;----------------=--=-***=*=*====-",
"=========*=***************=*********&***=&&&&*********&*&*&******",
"#@@O$@##$O#O###@#OO+++@@@O@@@O@@@O+@+oooo@@@ooXOOOO..OXX.O O    .",
";;-;----------;--;;;-;-;;;;;;-:;;;>>;;;;;;-;--:-;;;;;-------;--==",
"-========*=====-=--=--------;=-***-===*-*--*-------------;-------",
"-----------=---;-;;;;-;;;;-;-;;;;--------------------*---========",
"==-----------;----------;;;;;;;;;;-;;;;;-;;;-;;;;--------------=;",
"==*=*==-=--;---=--;=----------------=;-----------;--=;;;;-;=;=;;-",
"=----==------=-==-=======*=-=--------;;;;;;;-;>>;;;::;=;--;:=:==-",
"#@##@#####O########+###$#######################@@@####@#########O",
"***==*=*=======-=-=--=-=------;-;--;;;;--;;;>---;;;:=;--;;;=:=::-",
"---=----------------;;--;;-;;;;;;---:--------------------;--==:--",
"---;;;;--;;;;;;;----=-=-=---=-=---------======-=---*----;;=-:-;;;",
";-;;------;;--------=-==*====-==---------=---=----=*-***-*--;----",
"==-===---;--;---;;;;;;;;;;;;;;;;-;;;;;-;;;---------------------=-",
";;;;;;---;-;-----;-;;;--;;;-;;--;;;;;;;;;;;;;;;;------=--=-=--=-=",
"=-=====----;;;;;--;;;;;-;-----;;;;;;---;--;;;------==*=-=*===-=--",
"XXXOOOXXXXXOOOOOOOOOOOOO@OOOX@O@OOOOOOOOOOOOOOOOOOOOOOOOOOOOOOOXX",
"=--=-=----=-=--=---;---------;=====*=-======**=*=***====-===*****",
"-------;;;-------=;=;===*=====-=====-=----==*==========----------",
"=---------------;==-==;=------=-;-;;;-------;==;---=----*--------",
"=-===-----;-;;;-;;;;;;;;;;;;;;;;;;;;-;;--;;-;-;--------=----*----",
"-;;;-;----------=;--;;;;;-;-;;;;;-;;;-;;-;;-=;;--=--=--=*-*------",
"===--=-=--==------;;--;=-;;;=-==**==**=====---;;==--====*---=--=-",
"***&*&*******$&*&&$&&$&&&$$%%&%$$&&&%&$$$$$$$$$$$$$$$$$$$#$#####$",
"XOOOXOOOOOOOO+O+O#OO#OOOO#O###O#OO++#OO#$O##$##O$#$O$$##########O",
"---;=-------;-;-;;;;;;;;-;-;;;;-;-;-;;-;=;;;;;;;---=-=--;;;-;----",
"=;=;--;--;-;;;-;;;=;=-=====--=-==-=--;--=============-=------;;--",
"-;=;------;;=;--==;=;;=======-=---=--=--;=;-=--========--=-------",
"======-=-;;;-;;;;;;;;;;=;;;;;;;;;;-;-;;--;-;;;-=--;--==--=--=----",
";;;;-;--------;=;;=;-;;-;;;;;;;;;;;;;;;;;;;;-;---------==-==-==--",
"-;-----=-;-------;--------;======***=*===-*-=---***-=*=-*****===="
};
