/* XPM */
static char *Collect_all_the_halloumi_before_going_to_sleep___1712831258[] = {
/* columns rows colors chars-per-pixel */
"65 65 228 2 ",
"   c #2C1A1C",
".  c #2F2427",
"X  c #322427",
"o  c #44281C",
"O  c #5C2D1F",
"+  c #632F1F",
"@  c #62301F",
"#  c #582E20",
"$  c #593524",
"%  c #4C3938",
"&  c #623221",
"*  c #6D3423",
"=  c #693926",
"-  c #6B3B2A",
";  c #723625",
":  c #7B3625",
">  c #723926",
",  c #753C29",
"<  c #7A3D2A",
"1  c #623D32",
"2  c #6A452A",
"3  c #76452C",
"4  c #7C432C",
"5  c #7A4A2C",
"6  c #6C5E29",
"7  c #78562A",
"8  c #6A4335",
"9  c #794936",
"0  c #7D4D34",
"q  c #7B5233",
"w  c #7D553A",
"e  c #6D6524",
"r  c #7A6629",
"t  c #747624",
"y  c #443D43",
"u  c #76747C",
"i  c #833624",
"p  c #863827",
"a  c #893927",
"s  c #853B29",
"d  c #8B3D2A",
"f  c #963B27",
"g  c #9D3B27",
"h  c #933C2A",
"j  c #9D3C29",
"k  c #A13F2B",
"l  c #82442E",
"z  c #8D432C",
"x  c #84492F",
"c  c #884C2F",
"v  c #92452E",
"b  c #9C432D",
"n  c #93482F",
"m  c #81542E",
"M  c #844531",
"N  c #8B4431",
"B  c #854B32",
"V  c #8C4C32",
"C  c #924632",
"Z  c #944A32",
"A  c #9A4936",
"S  c #9B4C34",
"D  c #83543A",
"F  c #885538",
"G  c #895B3C",
"H  c #935335",
"J  c #9C5335",
"K  c #97573C",
"L  c #9D533A",
"P  c #A1422E",
"I  c #A2482F",
"U  c #A44A33",
"Y  c #A1553A",
"T  c #AA5438",
"R  c #A35B3B",
"E  c #B05B3A",
"W  c #8D643C",
"Q  c #916A34",
"!  c #90673E",
"~  c #91683F",
"^  c #8E7931",
"/  c #A6603F",
"(  c #B4613E",
")  c #895D42",
"_  c #985844",
"`  c #A45C44",
"'  c #A85A42",
"]  c #B45F44",
"[  c #876141",
"{  c #8D6241",
"}  c #936544",
"|  c #996347",
" . c #946B42",
".. c #986E46",
"X. c #966D49",
"o. c #966C4B",
"O. c #9C6C4A",
"+. c #997046",
"@. c #9D734A",
"#. c #A76649",
"$. c #A26D4B",
"%. c #B56542",
"&. c #B66A47",
"*. c #B46C4C",
"=. c #BA6B4F",
"-. c #A1774D",
";. c #A3794F",
":. c #B5714F",
">. c #AB6C52",
",. c #AC7452",
"<. c #A67C52",
"1. c #A77A55",
"2. c #A87E54",
"3. c #B27152",
"4. c #BA7459",
"5. c #917873",
"6. c #A87768",
"7. c #BC7B63",
"8. c #6A941F",
"9. c #6DA61E",
"0. c #71A81F",
"q. c #728924",
"w. c #759725",
"e. c #709827",
"r. c #6CA523",
"t. c #74AB20",
"y. c #77A926",
"u. c #79B324",
"i. c #7CB525",
"p. c #7CB22C",
"a. c #79AA34",
"s. c #75B330",
"d. c #7CB435",
"f. c #78A046",
"g. c #898E34",
"h. c #899437",
"j. c #81B827",
"k. c #81B42A",
"l. c #84BA29",
"z. c #8ABD2C",
"x. c #88AA36",
"c. c #86B735",
"v. c #8CBB33",
"b. c #82B638",
"n. c #86BA3A",
"m. c #8BBD3C",
"M. c #92BE37",
"N. c #8FC02D",
"B. c #92C12E",
"V. c #8EC03F",
"C. c #97C437",
"Z. c #93C13D",
"A. c #978848",
"S. c #989949",
"D. c #9F8750",
"F. c #A98358",
"G. c #AC9053",
"H. c #8BB842",
"J. c #97BB44",
"K. c #A9AE53",
"L. c #B98866",
"P. c #B39370",
"I. c #97BA62",
"U. c #94B072",
"Y. c #B6AD66",
"T. c #C7866D",
"R. c #C6936F",
"E. c #CC8C76",
"W. c #C3A374",
"Q. c #8EC040",
"!. c #94C343",
"~. c #99C546",
"^. c #9CC749",
"/. c #9FC94A",
"(. c #9EC25E",
"). c #A2CA4D",
"_. c #A6C56E",
"`. c #A8C574",
"'. c #979C98",
"]. c #B4968B",
"[. c #A5A09E",
"{. c #AAAAAD",
"}. c #B6B5BB",
"|. c #C5A08C",
" X c #C4ABA4",
".X c #C6B7B5",
"XX c #ACC881",
"oX c #BDC2BB",
"OX c #D0CDB2",
"+X c #CCDCB4",
"@X c #D2E0BD",
"#X c #BFBDC9",
"$X c #C5C4CD",
"%X c #D1CCC9",
"&X c #CCCBD3",
"*X c #C3CFD9",
"=X c #D1CFD7",
"-X c #C8D4DC",
";X c #D4D4DB",
":X c #D8D7DA",
">X c #D9D7DC",
",X c #E1D6CD",
"<X c #E2DBD5",
"1X c #DBE4CD",
"2X c #DBE4D1",
"3X c #E1E4DA",
"4X c #CEDDE5",
"5X c #D3DCE3",
"6X c #DDDCE2",
"7X c #E0DFE5",
"8X c #CFE1EA",
"9X c #D7E2E7",
"0X c #DBE4EB",
"qX c #DFE9ED",
"wX c #DEE9F0",
"eX c #E6E6E7",
"rX c #E4E6EA",
"tX c #E2EBEE",
"yX c #EAEAEE",
"uX c #F1F3EE",
"iX c #E3ECF1",
"pX c #ECEDF1",
"aX c #E6F2F7",
"sX c #EAF2F6",
"dX c #E9F3F9",
"fX c #F3F3F5",
"gX c #F6F6F8",
"hX c #F8F7F9",
/* pixels */
"<.<.<.<.<.<.<.<.<.<.<.<.<.;.2.2.<.<.<.<.2.<.<.<.<.1.<.1.<.<.<.<.2.<.2.<.<.<.<.<.<.<.<.<.<.2.<.<.<.F.<.2.2.2.<.<.F.<.<.F.<.<.<.<.<.",
"<.<.<.<.<.<.F.<.2.<.2.2.F.<.2.2.2.2.F.2.2.2.2.2.2.2.1.F.F.<.<.2.2.2.2.2.2.2.2.2.1.2.<.2.<.<.<.<.<.<.<.<.<.<.<.2.<.<.<.<.<.<.<.<.<.",
"<.<.<.<.<.<.<.<.<.<.<.<.<.2.<.2.<.2.2.2.2.<.2.F.F.<.<.F.<.<.<.<.<.<.<.1.<.<.1.<.<.<.<.1.1.<.;.;.;.<.<.;.-.-.-.;.<.<.<.;.;.F.@.<.<.",
";.;.<.<.<.;.<.<.<.;.<.;.;.<.;.;.;.;.;.@.<.;.;.@.@.;.;.@.;.@.;.@.;.<.$.#.4.>.O.;.;.;.<.;.<.;.<.<.;.;.;.;.<.-.;.<.;.@.@.;.;.@.;.@.-.",
"W W W W W W W W W W W W ! W W W W W W W W W W Q W W W W W W W W W W Y b N = 9 W } } O.O.>.$.$.| } } W W W W W G W W W W W W W W W ",
"@.-.-.-.;.;.-.;.;.;.-.;.;.-.;.<.;.;.<.<.<.;.;.;.;.;.-.;.<.<.;.<.;.-.T U l * ) -.#.` ` ` ` ' #.3.4.4.=.>.1.;.;.<.@.;.;.;.@.;.<.@.;.",
"<.<.2.<.<.<.2.2.<.<.<.2.2.2.<.<.<.2.<.<.<.<.2.<.F.<.<.2.<.<.<.<.;.<.Y U B < C v h z d d d d s d z L #.4.=.3.1.1.F.<.F.2.;.F.F.;.<.",
"<.<.<.2.<.<.<.2.2.<.2.<.<.<.<.<.;.<.<.<.<.<.;.;.;.;.;.;.;.;.;.;.;.;.Y T B s v v 6.6.6.6.6.O._ V a a d C ` *.=.,.<.;.<.;.<.<.<.<.2.",
";.;.;.;.<.<.<.<.<.<.2.<.<.;.2.<.2.;.2.2.;.2.<.2.<.<.<.<.<.2.<.<.F.2.R T B M C 6.<XtXiXyXqXqX3X,X.X6.d a i _ =.=.3.<.1.<.<.1.<.<.<.",
"<.<.<.<.<.<.<.<.2.<.2.<.2.2.2.2.2.F.2.2.2.2.<.<.2.F.<.<.F.<.2.F.2.;.R E B }  X0XiXtXtXtXtXtXqXqXiXtX.X_ a p a ' =.>.1.,.>.:.>.X.<.",
"2.2.<.2.<.<.<.<.<.<.<.<.2.;.;.<.;.;.;.2.2.F.2.F.2.<.<.<.<.<.<.<.<.<.#.E ].6XiXtXtXiXtXtXtXtXtXtXiXqXqX=X6.d i a Y =.&.h T S * w ;.",
".. .............+.......+.+...+.+.+.+...+.~ ~ @.+.@.+.@.+.@.@.@.@.+.' |.yXiXyXtXtXtXtXtXtXtXtXtXtXqXtXtXrX&X]._ a Y ] f j p O w +.",
".. . . . . ... .~ ..~ ~ ..~ ..~ ~  .~ .. . . ... . . . .O. . . . . .F.eXtXtXiXtXiXiXiXtXtXtXtXtXtXqXqXqXqXqXtXOXd a U j j d # w W ",
"<.<.<.2.2.2.<.2.2.2.F.2.2.2.2.F.2.2.F.2.F.2.2.2.<.F.F.2.F.F.2.2.F.P.%XtXiXtXyXiXtXiXtXtXtXtXtXtXtXtXtXtXtX0XqX}.i i a j j d O } <.",
"<.<.<.<.<.<.<.<.2.2.2.<.<.2.2.2.2.2.2.2.2.2.2.2.F.L.|.OX,X,X,XOX:XeX9XtXiXyXtXtXiXiXtXtXtXtXtXtXtXqXqXtXtXqX5X].: i a j j d # X.;.",
"<.<.<.2.<.2.<.2.2.2.<.2.2.<.2.2.<.<.<.<.<.<.P.OX<XyXgXgXfXfXfXgXhXhXsXyXtXtXiXtXyXtXtXyXtXtXtXtXtXtXtXtXwXiX&X9 : i : j j M 1 @.<.",
"<.;.<.<.<.<.2.<.<.<.<.<.<.<.<.<.<.<.<.D.D.S.U.`.XX+X+X1XeXuXsXfXfXfXgXgXhXpXtXrXtXtXtXiXiXiXtXtXtXtXqXtX8X5X[.1 - ; ; j j N # 1.2.",
"<.<.<.<.<.<.<.<.<.F.<.<.;.F.<.F.D.S.S.H.n.n.V.Q.m.m.c.c.H.`.@XuXgXfXfXgXgXgXgXfXiXtXtXyXtXiXtXtXtXtX9X-X*X4X4X-X.X5., j j d $ @.;.",
"<.;.,.3.,.<.;.<.D.@.;.;.D.A.S.x.a.s.y.y.p.c.Q.V.V.Q.Q.Q.~.V.v.(.+XyXgXfXgXhXgXgXhXgXpXiXrXiXrX0X9X9X>X4X4X4X4XaXiXaX.Xj j M - <.-.",
"} A z ' H 9 ~  . .[ A.h.a.d.d.d.b.n.n.m.n.b.d.u.p.m.!.Z.V.!.!.!.M.(.@XfXgXgXfXgXgXhXgXgXgXgXfXfXtX9X9X4X4X0XaXdXpXaX;Xj j M 2 }  .",
";.S a a # = ;.A.w.y.s.s.d.b.b.c.n.n.n.n.m.V.V.m.l.p.c.!.~.m.M.M.~.~.Z._.1XgXgXfXfXgXgXgXgXgXgXgXgXfXrXwXaXdXdXaXiXwX6XP k M 9 <.<.",
"<.Y g h O - A.w.h.A.G.G.D.S.x.c.d.n.n.n.b.c.V.!.J.!.m.v.!.~.~.!.v.Z.~.~.!.`.1XgXgXfXfXgXgXgXgXgXfXyXrXyXdXdXaXwXwXwX>Xb k < w <.2.",
";.Y g b # , K A A S >.#.7.T.T.F.S.H.n.n.Q.m.n.Z.~.!.!.~.J.!.~.^.^.~.Z.M.~.!.M.I.1XhXfXfXgXgXgXfXuXyX7X6XiXiXwX0XwXwX;XA h , ) <.2.",
"<.` j b * p d s d z z v v J *.T.T.T.K.n.V.H.Q.!.m.v.Z.~.~.~.^.^.^./.^.~.J.^.^.m.k._.2XgXgXgXfXpXeXeX6X>X0XiXiX0XwXqX;XU U , ) <.;.",
"<.| g P * s a d d h C C v n S J 4.T.T.G.J.V.Z.Q.!.~.!.!.~.^.).).)./.^.^.~.~.~.!.!.c.c.+XgXfXpXyX7X6X6X=X5XiXwX0XwX0X{.h k - | 1.2.",
"<.#.g P * p : p s < < < l v n J H #.E.E.L.J.!.!.!.~.~.~.).C.^.).).).)././.~.~.~.!.!.m.c.2XpXyXrX7X5X=X&X5XwXwX8X4X{.X d A - X.1.;.",
"-.#.g P > s + ; ; ; , , > 4 l n J J R 7.E.R.J.J.!.~.~.~.).).).).).).).^.^.^.~.V.c.z.l.j.`.yXrX6X>X=X&X$X4X0XwX*Xu .   h P 1 X.;.;.",
"W F g P > p & * ; ; , , 3 4 4 l V J L R 7.E.R.J.!.~.~.^.).).).).).).)./.^.Z.z.z.z.l.l.j.I.yX7X6X;X=X$X#X5X*X'.y . . o h b $ { W W ",
"+...g k , a & ; > > > , 4 < 4 l l V J Y R 4.E.Y.v.K.Y.W.Y.).).).).).).Z.B.B.z.z.z.l.l.l.U.7X;X;X=X$X$X#Xu X X . o o o a b 1 } ~  .",
"2.<.b P , a + * = > , , , 4 4 4 4 x V J R R 4.E.K.:.3.T.L.,.J.).).C.C.B.B.z.z.z.z.l.j.j.I.7X;X=X&X$X#X{.% X o $ # o o h b - 2.<.2.",
"<.;.P k , i # & @ > > , 3 < 4 4 l l x H R Y / L.E.&.&.:.H Q M.B.B.B.B.B.B.z.z.z.l.l.z.k.I.;X=X&X#X#X{.[.% $ = & # $ ) Z v 8 <.<.;.",
";.-.I k , : + ; ; > > 3 > 4 4 4 5 x x B H Y R / T.&.&.&.H Q z.B.B.B.B.B.z.z.z.z.z.l.l.k.U.=X*X#X#X#X{.5.- = = 2 [ <.<.H a w 2.<.F.",
";.;.A k , : + * = > ; 3 , 4 4 4 4 l x x m J J / %.&.%.*.S ^ z.z.B.N.N.z.z.z.z.l.l.l.j.i.I.oX}.{.XXf.f.6 > 3 ) @.<.<.;.-.| ;.;.<.;.",
"1.1.Y j : : + * + ; > > , , < 4 l l x x c V H R / &.( *.V g.z.z.z.N.N.z.z.l.l.l.l.j.j.i.u.b.a.r.8.8.e 9 G @.;.;.;.;.;.;.-.;.;.;.<.",
";.;.L j : : + * > > > > , , 4 4 4 4 l B c V c H R ( %.$.D h.z.z.z.z.l.N.z.l.l.l.j.i.j.k.u.0.9.8.e 5 w X.@.-.@.@.@.@.@.@.@.@.-.-.@.",
" .} _ j < : * * @ ; ; > , < , < 4 4 5 x l c c H / ( ( #.) h.l.z.l.z.z.l.l.l.l.l.j.j.u.u.0.r.t 7 q W { { ! W W W W W W W Q G W W W ",
"2.1.#.g < * i s a ; ; ; , , < 4 4 4 l l x x c H R ( ( | x k.l.l.l.l.l.l.i.l.j.i.k.0.0.0.q.7 D @.<.<.2.2.<.<.<.<.;.2.2.2.;.2.;.;.;.",
"<.<.| g < - > p z z l , , , , < 4 4 4 4 l l x V Y ( %.K m k.j.l.l.l.l.l.u.0.0.0.r.w.t 7 B } ;.;.<.F.<.<.<.<.<.<.2.2.;.2.<.;.;.F.;.",
";.2.#.f > X.+.B < p d z l < , < < 4 4 5 4 x c c L ( %.G m j.i.l.j.j.j.0.0.q.t m 7 4 0 } 1.<.<.<.<.<.<.<.<.<.<.<.;.;.;.;.;.-.;.;.;.",
";.;.$.: > X.<.<.@.D z d v C N l 4 < 4 l 4 5 x c L E R B r 0.i.i.i.j.0.q.2 5 x m 0 { <.F.<.<.F.<.<.<.<.<.<.<.<.<.2.2.;.2.;.2.2.;.<.",
";.;.-.! B @.<.<.;.<.@.D 4 z z C V M , 4 4 4 4 B Y E %.B r t.0.u.u.0.e 3 5 l 0 ) ;.<.<.<.<.<.<.<.<.<.<.1.<.2.<.2.2.;.1.<.<.<.<.<.<.",
";.2.2.;.<.<.<.<.<.<.<.<.@.G l z v C A V 4 4 4 N Y T ] 5 t 9.9.0.w.7 4 4 4 G -.2.2.2.2.2.<.F.F.<.2.F.<.F.2.<.<.<.;.2.<.1.1.<.<.<.<.",
"~ ~ ~ .. .~ } }  .~ }  .} } W q < z v C A V M x S T %.3 q.9.9.q.7 4 5 0 W  . . . . . . . . . . .}  . . . . . . . . . . .X. . . . .",
"-.;.;.;.;.;.-.;.;.-.-.;.;.;.;.<.-.G M z C C K A C T ` 3 e.r.t 3 3 D X.<.F.;.2.2.<.<.2.2.<.<.<.<.<.<.<.1.1.<.<.<.2.2.<.<.1.<.<.<.<.",
"<.<.<.<.;.<.<.<.<.<.<.<.<.<.<.<.<.<.@.G M N Z n z T L 2 2 2 < 9 } 1.<.2.2.<.2.<.<.<.<.;.<.<.<.<.<.<.<.<.<.<.<.<.<.<.<.<.<.<.<.<.<.",
"<.2.<.<.F.;.<.2.2.<.2.<.2.2.2.2.<.<.<.<.@.G c n z T K 8 O 2 W -.;.<.2.;.<.<.<.;.;.<.<.;.;.;.;.;.;.<.;.;.<.<.<.;.<.<.<.<.<.<.F.<.2.",
"<.<.2.2.<.2.<.F.2.2.<.2.<.<.<.<.<.<.<.<.<.<.@.G 4 U F = q @.<.<.<.<.<.<.<.<.<.<.<.<.<.<.<.<.@.<.;.<.<.;.<.;.@.;.<.<.<.<.<.<.<.<.<.",
";.;.;.;.;.;.;.;.<.<.2.<.2.<.<.<.2.2.2.F.<.<.1.<.@.U N w F.D.<.2.2.2.1.2.2.2.<.2.<.<.<.<.<.<.F.<.2.<.<.<.<.<.<.<.;.<.<.<.<.<.<.<.<.",
"<.<.<.F.<.2.;.2.2.<.<.2.2.2.<.<.2.2.2.<.2.2.<.2.$.I 4 { <.<.F.2.2.2.2.2.2.2.2.2.2.2.2.2.2.2.2.2.2.F.;.;.<.<.;.<.;.<.<.;.<.;.;.<.;.",
"<.<.<.;.<.;.;.<.;.<.<.<.<.2.2.2.1.<.2.2.2.2.2.1.$.b < { <.<.<.<.2.<.2.2.;.2.;.2.;.2.2.2.2.2.;.2.<.;.;.;.-.;.;.<.;.;.-.<.;.<.<.<.,.",
"! ! W W W ! W Q ! ! W W W ! ! ! W ! ! ! ! ! ! W G C , G W W ! ! ! ~ ~ ~ ~ ~ ! ! ! ! ! ! ! ! ~ ~ ~ ~ } ~ ! ! ! ~ ! ! ! W W ! W W Q ",
"-.;.;.;.<.;.;.;.;.<.D.<.;.;.<.<.<.<.<.2.<.<.<.<.<.O.} ;.<.<.<.<.;.;.;.;.;.;.;.;.;.;.;.-.;.-.-.-.-.;.;.;.-.<.;.;.-.<.<.-.;.-.-.-.-.",
";.F.2.2.2.2.2.2.2.<.<.<.<.1.2.<.<.;.2.;.;.2.;.;.<.;.;.<.;.;.;.;.<.;.;.;.;.;.2.;.<.;.;.;.;.-.;.;.-.;.;.;.;.<.<.;.<.<.<.<.<.<.<.F.<.",
";.;.;.<.;.;.2.;.<.<.<.<.<.<.<.<.2.;.;.<.;.;.2.;.<.<.<.<.<.<.<.<.<.<.<.<.;.2.2.2.2.<.2.2.<.<.<.<.<.;.;.;.;.<.;.2.;.<.<.<.<.<.<.<.<.",
";.;.;.;.;.;.2.2.<.2.2.2.<.2.2.2.2.2.2.2.F.2.F.2.<.F.<.2.<.F.2.2.2.2.F.2.2.2.2.2.;.2.2.;.<.<.2.2.<.F.<.2.2.2.;.;.<.<.<.;.;.<.<.;.<.",
"2.F.2.2.2.2.2.;.;.<.<.<.<.<.2.;.;.2.<.<.<.2.;.2.<.<.<.2.2.<.2.<.2.<.<.2.2.2.;.2.2.2.2.2.<.2.<.<.;.<.;.;.;.;.2.;.;.;.<.;.<.<.;.<.<.",
";.2.;.<.2.;.;.;.2.<.<.<.<.<.<.<.2.;.2.;.<.<.;.2.F.F.;.F.<.<.;.;.;.;.;.;.-.;.;.;.<.;.;.<.;.<.<.<.;.;.2.;.;.;.;.<.;.;.;.;.;.;.;.<.2.",
"-.@.-.@.@.@.-.-.+.-.+.-.-.+.@.$.-.$.$.@.@.@.@.$.~ ~ $.$.+.-.~ $.+...+.+.+.$...+.+.+...+.........+...+.$............. ....... . .~ ",
"W ! ! ! ! ! ! ! ! ! ! ! ! ! ! ~ ~ ~ ~ Q ! Q ~ ~ ~ ~ ~ ~ ~ ~ ~ ~ ~ ~ ~ ~ ~ ~ ~ ~ ~ ~ ~ .. . . . .~ ..~ ~ ~ ..~ .. . . . ... . . .~ ",
"<.;.;.2.2.;.;.2.2.2.<.<.;.2.2.2.2.2.2.2.F.<.2.2.<.F.2.<.2.F.2.2.2.<.2.2.2.2.2.2.2.2.2.2.2.2.2.2.;.2.2.;.2.,.;.<.2.<.2.2.<.<.<.2.2.",
";.<.<.<.2.2.2.;.;.2.;.2.2.2.2.2.2.<.;.2.<.;.;.;.;.<.;.<.;.;.;.;.;.<.<.<.<.<.<.;.;.;.;.;.;.;.;.;.;.;.;.2.<.;.<.<.<.<.<.2.<.2.2.<.2.",
"2.2.<.<.;.2.;.2.2.2.2.2.2.;.;.2.<.;.2.;.<.2.;.;.;.;.;.;.2.;.2.;.<.;.;.;.2.<.<.2.2.;.2.;.;.;.2.;.;.;.;.;.;.;.;.<.;.<.;.<.<.<.<.<.;.",
";.;.;.;.;.;.2.;.2.2.2.2.2.2.2.F.2.2.2.2.2.2.2.2.2.2.F.2.2.2.2.2.2.2.2.<.<.2.2.<.2.2.2.;.2.2.;.;.2.;.2.;.<.;.<.;.<.<.<.<.<.<.;.<.<.",
"F.;.2.F.;.2.2.;.2.;.2.;.2.;.2.;.2.2.;.2.<.2.;.2.;.2.2.2.2.2.2.2.2.2.2.2.2.2.2.2.2.2.2.2.2.2.2.2.;.2.2.;.;.<.<.<.;.;.<.;.;.;.;.;.<.",
"<.<.;.2.<.<.2.;.<.<.2.<.<.<.<.<.<.<.<.2.<.<.<.<.<.<.<.;.<.;.;.;.-.-.-.-.;.;.-.;.;.;.;.;.<.<.<.;.;.;.;.;.;.;.;.;.-.-.;.;.-.;.;.;.;."
};
