/* XPM */
static char *_1712233224[] = {
/* columns rows colors chars-per-pixel */
"65 65 202 2 ",
"   c None",
".  c #3B231F",
"X  c #3E281F",
"o  c #2F2224",
"O  c #302225",
"+  c #3B3236",
"@  c #49291D",
"#  c #582C1F",
"$  c #572E21",
"%  c #5C3223",
"&  c #573328",
"*  c #653323",
"=  c #6B3423",
"-  c #6B3B26",
";  c #673A29",
":  c #6C3D2B",
">  c #733524",
",  c #7D3625",
"<  c #723926",
"1  c #753C29",
"2  c #793D2A",
"3  c #783827",
"4  c #7C432C",
"5  c #74472B",
"6  c #755329",
"7  c #744631",
"8  c #7C4032",
"9  c #6A502E",
"0  c #786B28",
"q  c #747925",
"w  c #767426",
"e  c #6C7222",
"r  c #4E4348",
"t  c #853624",
"y  c #833927",
"u  c #823C2A",
"i  c #8A3C29",
"p  c #8A3A27",
"a  c #933C2B",
"s  c #9C3C29",
"d  c #9E3B27",
"f  c #9D3F33",
"g  c #83442E",
"h  c #8D432D",
"j  c #84492F",
"k  c #884C2F",
"l  c #92432E",
"z  c #8C4532",
"x  c #844A31",
"c  c #8B4C32",
"v  c #844631",
"b  c #924431",
"n  c #954A34",
"m  c #9B4C33",
"M  c #974E39",
"N  c #8D5334",
"B  c #805D31",
"V  c #9B5236",
"C  c #97563B",
"Z  c #A1482F",
"A  c #A45438",
"S  c #AB553B",
"D  c #A35A39",
"F  c #AC5C3C",
"G  c #A15536",
"H  c #B15B3C",
"J  c #A84E34",
"K  c #81642E",
"L  c #B5643E",
"P  c #875D49",
"I  c #9B5A47",
"U  c #995D51",
"Y  c #AF5D41",
"T  c #A25942",
"R  c #8F675F",
"E  c #9C6655",
"W  c #AA6349",
"Q  c #AD6A4E",
"!  c #A96447",
"~  c #B46C46",
"^  c #B3644C",
"/  c #B76A47",
"(  c #B56C55",
")  c #BA6C52",
"_  c #BB745B",
"`  c #B57556",
"'  c #B87A63",
"]  c #A57265",
"[  c #C17B64",
"{  c #6C9B1E",
"}  c #6EA41E",
"|  c #72AB1E",
" . c #70A71F",
".. c #738B23",
"X. c #718123",
"o. c #6E9B27",
"O. c #7E9930",
"+. c #77AE21",
"@. c #77A824",
"#. c #7CB525",
"$. c #7EB329",
"%. c #77B12D",
"&. c #77AB39",
"*. c #7CB335",
"=. c #6EA527",
"-. c #929937",
";. c #8BAE2E",
":. c #80B726",
">. c #81B927",
",. c #81B52B",
"<. c #84BA29",
"1. c #8ABD2C",
"2. c #89B52D",
"3. c #8FA738",
"4. c #82B634",
"5. c #8BBB36",
"6. c #81B53A",
"7. c #85BA3A",
"8. c #8BBD3C",
"9. c #85B936",
"0. c #91BF3C",
"q. c #8FC02E",
"w. c #92C12E",
"e. c #8EC03B",
"r. c #93C13C",
"t. c #96C435",
"y. c #9A9846",
"u. c #AC9B51",
"i. c #B49C5F",
"p. c #8ABB43",
"a. c #8FB441",
"s. c #92BE42",
"d. c #A0A149",
"f. c #ACA959",
"g. c #AF887D",
"h. c #B89D64",
"j. c #8CA375",
"k. c #C5866C",
"l. c #C7866A",
"z. c #CB8B75",
"x. c #8FC040",
"c. c #95C343",
"v. c #9AC546",
"b. c #9DC649",
"n. c #9EC84A",
"m. c #9EC844",
"M. c #99C157",
"N. c #A2CA4C",
"B. c #A3C258",
"V. c #9EC463",
"C. c #A2C368",
"Z. c #ABCB71",
"A. c #908B94",
"S. c #AF938C",
"D. c #B89389",
"F. c #AB9D98",
"G. c #989EA7",
"H. c #B1AFBC",
"J. c #B3B5B2",
"K. c #CBA79B",
"L. c #C3AFAC",
"P. c #C9BCB7",
"I. c #ACCA80",
"U. c #BBC4B3",
"Y. c #C0CBB1",
"T. c #C5D3B4",
"R. c #D1DEB8",
"E. c #BBBAC5",
"W. c #C0BEC9",
"Q. c #C5C4CD",
"!. c #C7C5CB",
"~. c #D5CCCF",
"^. c #CDCCD4",
"/. c #C3CBD3",
"(. c #D2CED3",
"). c #D5D4DB",
"_. c #D6D6D5",
"`. c #CED9D1",
"'. c #D6E1C4",
"]. c #E3E9DD",
"[. c #CCDAE1",
"{. c #DDDCE2",
"}. c #D1DCE2",
"|. c #D5E1E7",
" X c #D4E1E9",
".X c #DCE5EC",
"XX c #DEE9EE",
"oX c #DDE3E6",
"OX c #DCEBF0",
"+X c #E4E3E9",
"@X c #E2EBEE",
"#X c #EBEBED",
"$X c #E3E2E7",
"%X c #ECF0E7",
"&X c #E3ECF1",
"*X c #E9EEF2",
"=X c #E6F1F6",
"-X c #ECF2F5",
";X c #E8F4F8",
":X c #F3F3F5",
">X c #F6F6F9",
",X c #F8F7FA",
/* pixels */
"                                                                                                                                  ",
"                                                                                                                                  ",
"                                                                                                                                  ",
"                                                                                                                                  ",
"                                                                                                                                  ",
"                                                                                                                                  ",
"                                                                                                                                  ",
"                                                                                                                                  ",
"                                                                                                                                  ",
"                                                                                                                                  ",
"                                                                                                                                  ",
"                                                                                                                                  ",
"                                                                                                                                  ",
"                                                                                                                                  ",
"                                                                    W ( E                                                         ",
"                                                                    Z 1 ;     ' _ _ _ _ )                                         ",
"                                                                    J 1 k n l i i p i z T ^ ) (                                   ",
"                                                                    S 4 h n D.D.D.g.] I h i b Y )                                 ",
"                                                                    S 4 I P.@X=X@X&X@X@X_.g.p p M ) (                             ",
"                                                                    L F.@X@X@X@X@X@X@XXXXXXXJ.C t l ^ ^ M S 2                     ",
"                                                                    K.@X&X@X@X@X@X@X@X@XXXXX@X].P.U i Y s a %                     ",
"                                                                    @X&X@X*X*X@X@X@X@X@X@X@XXX@X@XS.t i d a $                     ",
"                                                          ,X>X,X:X.X@X@X@X@X*X@X@X@X@X@X@XXXXXXX@XU y t d a $                     ",
"                                                  ].%X:X>X:X-X>X>X>X:X#X@X&X@X&X@X@X@X@X@X@X@X+XJ.1 , , s f &                     ",
"                                            p.p.p.7.p.s.V.I.'.:X:X:X>X>X>X*X@X@X&X@X&X@X&X.X}.[./.F.R > s a $                     ",
"                                      p.*.%.%.4.7.8.p.s.x.r.5.M.R.:X:X>X>X>X>X-X#X@X@X+X|.}.[.[. X=X;XL.s b &                     ",
"                  a l 2 *     &.*.*.*.*.7.7.7.8.8.,.,.8.c.r.8.c.c.B.'.>X>X:X,X>X>X>X>X>X:XoX}.OX;X;X*X(.s b *                     ",
"                  a s = & o.O.-.y.y.a.6.7.7.7.7.8.p.c.8.5.c.c.c.0.c.c.Z.'.>X:X:X>X>X>X>X:X@X-X;X;XOX&X(.s i &                     ",
"                  f d > 2 n n T I ( ' l.u.a.8.x.8.0.c.c.c.r.v.n.b.c.r.c.8.C.'.>X:X>X>X:X&X$X{.=XOX.XOX(.s g                       ",
"                  f d 2 y i i l l b n Y k.l.d.p.x.c.c.0.c.b.b.n.n.n.m.v.v.r.4.C.%X>X:X#X$X{.).XXOX.X.X!.f i                       ",
"                    s 3 t t t 2 u g n m V ` z.i.p.c.c.v.b.b.n.N.N.N.n.b.v.v.c.8.M.#X#X$X{.).^.XX=X}./.r a 2                       ",
"                    d u u * < < 1 2 4 j V V Q z.h.c.c.v.v.b.N.N.N.N.n.b.c.5.1.>.:.~.+X{.).^.W.OX}.G.+ . s 8                       ",
"                    s u y * = < 1 1 2 j j V D ! z.i.t.N.f.N.N.N.N.N.m.r.w.1.<.<.<.T.{.).(./.E.A.r o X @ s <                       ",
"                    s u , * < > 1 1 4 4 4 j V D Q z.u.` l.g.d.t.N.t.w.w.1.1.<.<.#.T.).(.^.E.A.o O % @ @ s -                       ",
"                    s u , * * < 1 4 4 4 j j k V D Q l.~ / V -.w.w.w.w.w.q.<.1.>.#.Y.(./.W.H.A.# * % @   a =                       ",
"                    s t > * > > < 1 4 4 4 4 k k D D ` L ~ N 3.q.w.w.1.1.1.1.<.>.$.U.!.E.J.j.9 = ;                                 ",
"                    s t > * = > < 1 4 4 4 j j j N D F / ~ k ;.1.1.1.1.1.<.<.>.>.#.*.&.=.{ e 5                                     ",
"                    s u , * = > < 1 1 4 4 g j j k N F L W P 2.1.1.1.<.1.<.>.<.#.#.| { q :                                         ",
"                    l t > y 2 = < < 1 4 4 4 j j k c D L ! 0 >.q.<.<.<.>.>.#.#.+.| X.6                                             ",
"                    b t % > i i u < 2 1 4 4 4 4 j k D L I K >.#.<.<.:.+.#.@...w 6                                                 ",
"                    b ,     * u i l g 4 2 4 4 4 j c G S C 0 #.<.<.#.=.q 6 4 4 6                                                   ",
"                      1           2 l b z 4 4 4 4 j G F I q | +.+...6 4 8 7                                                       ",
"                                    - u l n c v 4 x G S N .. . .q 4 4 5                                                           ",
"                                        ; g l n n c m H 4 o.{ 0 4 5                                                               ",
"                                              4 l m n S 9 9 5 5                                                                   ",
"                                                  j h S 7 $                                                                       ",
"                                                    c A %                                                                         ",
"                                                      m ;                                                                         ",
"                                                      h                                                                           ",
"                                                      u                                                                           ",
"                                                                                                                                  ",
"                                                                                                                                  ",
"                                                                                                                                  ",
"                                                                                                                                  ",
"                                                                                                                                  ",
"                                                                                                                                  ",
"                                                                                                                                  ",
"                                                                                                                                  ",
"                                                                                                                                  ",
"                                                                                                                                  ",
"                                                                                                                                  ",
"                                                                                                                                  ",
"                                                                                                                                  ",
"                                                                                                                                  ",
"                                                                                                                                  "
};
