/* XPM */
static char *Collect_all_the_halloumi_before_going_to_sleep____1_1712830377[] = {
/* columns rows colors chars-per-pixel */
"65 65 245 2 ",
"   c #34211D",
".  c #2F2427",
"X  c #322427",
"o  c #44281C",
"O  c #62301F",
"+  c #582E20",
"@  c #53372E",
"#  c #673726",
"$  c #6D3524",
"%  c #763525",
"&  c #723926",
"*  c #753C29",
"=  c #7A3D29",
"-  c #713936",
";  c #6A4629",
":  c #7C432C",
">  c #79482C",
",  c #6D4D30",
"<  c #7B4B35",
"1  c #7D5438",
"2  c #716C24",
"3  c #5A3444",
"4  c #5F6C5B",
"5  c #6A6A55",
"6  c #6E7875",
"7  c #863827",
"8  c #8B3D2A",
"9  c #973B28",
"0  c #9D3C29",
"q  c #87383C",
"w  c #A13F2B",
"e  c #82452E",
"r  c #8D442C",
"t  c #83492F",
"y  c #93442E",
"u  c #9A442E",
"i  c #8A4932",
"p  c #984933",
"a  c #88573A",
"s  c #995337",
"d  c #A2432E",
"f  c #A44A33",
"g  c #A55439",
"h  c #A35B3B",
"j  c #8D643C",
"k  c #90663E",
"l  c #92693B",
"z  c #8E7931",
"x  c #A6603F",
"c  c #9D2A66",
"v  c #A92E77",
"b  c #935545",
"n  c #A65B43",
"m  c #AC5C52",
"M  c #8B6341",
"N  c #956B42",
"B  c #976947",
"V  c #996E46",
"C  c #997046",
"Z  c #9D734A",
"A  c #9B7051",
"S  c #A5684A",
"D  c #B66B4A",
"F  c #A1764D",
"G  c #A3794F",
"H  c #B5714F",
"J  c #AB6C52",
"K  c #A97653",
"L  c #A67C52",
"P  c #A87E54",
"I  c #B67356",
"U  c #956D6D",
"Y  c #A97667",
"T  c #BC7B63",
"R  c #B66872",
"E  c #C67F66",
"W  c #6EA81E",
"Q  c #629A2E",
"!  c #729626",
"~  c #76AB23",
"^  c #72A92C",
"/  c #7CB427",
"(  c #7CB434",
")  c #649A62",
"_  c #789176",
"`  c #47B978",
"'  c #7BC87A",
"]  c #899136",
"[  c #81B827",
"{  c #82B42B",
"}  c #84BA29",
"|  c #8ABD2C",
" . c #88AA36",
".. c #87B835",
"X. c #86BA3A",
"o. c #8BBD3C",
"O. c #92BE37",
"+. c #8FC02D",
"@. c #92C12E",
"#. c #8EC03F",
"$. c #94C23B",
"%. c #998C50",
"&. c #AA8459",
"*. c #AB9054",
"=. c #97BB44",
"-. c #90B44C",
";. c #A9AE53",
":. c #988962",
">. c #A58967",
",. c #A48E69",
"<. c #B68966",
"1. c #B1926F",
"2. c #96B668",
"3. c #B6AD66",
"4. c #C7866D",
"5. c #C6936F",
"6. c #CC8C76",
"7. c #C3A374",
"8. c #8EC040",
"9. c #94C343",
"0. c #9BC745",
"q. c #99C546",
"w. c #9CC749",
"e. c #9FC94A",
"r. c #9EC25E",
"t. c #A2CA4D",
"y. c #A8C672",
"u. c #AE188A",
"i. c #B52883",
"p. c #B6308E",
"a. c #DA1FBC",
"s. c #D12EAF",
"d. c #BD5589",
"f. c #B17A8E",
"g. c #C15587",
"h. c #C05A84",
"j. c #C35789",
"k. c #C64C93",
"l. c #CB599D",
"z. c #C563B5",
"x. c #C764B8",
"c. c #E91FD5",
"v. c #DE2CC7",
"b. c #E12AC5",
"n. c #E926D8",
"m. c #E33AD3",
"M. c #F536EB",
"N. c #F933F3",
"B. c #CD57C6",
"V. c #E74BD5",
"C. c #CA7BD6",
"Z. c #D178D6",
"A. c #FD46FB",
"S. c #FA51F6",
"D. c #F376F6",
"F. c #509A82",
"G. c #4CAC88",
"H. c #6DA98E",
"J. c #79AB90",
"K. c #53BCA7",
"L. c #79B8A9",
"P. c #25C8BD",
"I. c #4AC4B3",
"U. c #62C2AE",
"Y. c #78ABD8",
"T. c #62BFE2",
"R. c #31D6C9",
"E. c #2CE2DC",
"W. c #38EDEB",
"Q. c #4ED6C9",
"!. c #4EE2D9",
"~. c #57EDE8",
"^. c #45FAFA",
"/. c #59FFFF",
"(. c #70FBFA",
"). c #95938D",
"_. c #B79387",
"`. c #94A78F",
"'. c #A9A09A",
"]. c #A6A9AD",
"[. c #BDB5AE",
"{. c #B9B6B8",
"}. c #C7A892",
"|. c #C8A9AB",
" X c #CBBAA4",
".X c #D1BCA7",
"XX c #D2BDA8",
"oX c #C6BAB3",
"OX c #AFC5A0",
"+X c #CFD0B5",
"@X c #C6E1B2",
"#X c #BFBDC9",
"$X c #A0ADE6",
"%X c #CC8FCD",
"&X c #D186DC",
"*X c #CB92D6",
"=X c #D3AFD1",
"-X c #DB88E7",
";X c #FE89FF",
":X c #F995FD",
">X c #FEACFF",
",X c #EAB0FC",
"<X c #F3B1FB",
"1X c #9EDAE3",
"2X c #88FFFF",
"3X c #9BF9F2",
"4X c #AAF3EF",
"5X c #A9FEFD",
"6X c #BBFFFF",
"7X c #C5C4CD",
"8X c #D0CECB",
"9X c #CBCCD4",
"0X c #C8D4DC",
"qX c #D6D6DB",
"wX c #E3DAD2",
"eX c #DBE4CE",
"rX c #E5E4DB",
"tX c #CEDDE5",
"yX c #D8DCE3",
"uX c #FDCCFF",
"iX c #F3D8F5",
"pX c #CFE1EA",
"aX c #D9E3E9",
"sX c #DFE9ED",
"dX c #DEEAF3",
"fX c #C8FFFF",
"gX c #DBF5F2",
"hX c #D7FCFC",
"jX c #E6E7EA",
"kX c #E2EBEE",
"lX c #F1F2EC",
"zX c #E3ECF1",
"xX c #EDECF3",
"cX c #E3EFFF",
"vX c #FCE7FA",
"bX c #FFEAFF",
"nX c #E7F5F9",
"mX c #E8F6FD",
"MX c #EEFEFF",
"NX c #F3F3F5",
"BX c #F8F8F7",
"VX c #F6F6F8",
"CX c #FDF3FE",
"ZX c #F5FFFF",
"AX c #FFFFFF",
/* pixels */
"L L L L G P L L L P G L L L L L L L L L L P L L P P P L L L L L P L G P P L L L L L L L L L L L P P P P L L &.L &.G L L L L &.G L ",
"L L L L &.L P L L P P &.P P L &.P P P &.P P G &.P P P P P L &.L P P P P P P P P P P P P L L L L L L L L L &.L L P L L &.L L L G L ",
"L L L L L L L L G P L P L L L L P P P P P P P &.L P P P L L L P L G L P L L L L L L G L L L G L G L L Z L Z L Z G G L G F &.G L L ",
"G G L L L G G L G L G G L L G L G G G G G G F Z Z G G Z F Z G Z G G J S H J A G G G L K L G L G G G G L L Z G L G Z G Z F Z G Z F ",
"j j j j j j j j j j j j l j k j j j j j j j j l k j j j j k j j j j f u r $ < M M N A B F S B B B M M j j j j a j j j l j j j j j ",
"Z F F F F G F F G G F F F F G G G G G G G G F G Z L F L Z L L L L L g f e $ M K S n n n n n D H I I D I K G L L G G G G G G G Z G ",
"L P L P L P P P P P P L P P P L P P P P P P P P &.L L P &.L P L L L h f i = y r 8 r 8 8 7 8 r r y s m I H J L P L L &.G G &.&.G L ",
"L L P L L L L P P L L P L L L L P G G L G G G G G G G G G Z G G G F h g t = y y Y R Y Y Y A b p 8 8 8 y m D D H L L L G L G &.G L ",
"G G G G G G L G L G P P L L L L G L L L L L G P L P L P L P L L P P h g t e i Y rXxXjXkXsXsXrX8X+XY q 7 7 s m D H L L L L L L L L ",
"L L L L P L P L P P L P L P P L &.G &.L P P L &.P L P P P L P &.P L x g < B |.aXkXkXkXkXsXkXsXsXzXjXoXb 7 7 9 n H H L K J H J B L ",
"P P P P P P L L L L L G L L L L G &.L G L L L L L L P P L L P P P P x D _.rXkXkXkXkXkXkXkXkXkXkXkXsXsX8XY i 7 7 g D D 9 g f $ 1 L ",
"N N V N V V V V V V V V V C V C C C C V C C C C C C C C C Z C C C S x _.xXzXkXkXkXkXzXkXkXkXkXkXzXsXsXjXjX9X_.b 7 p m 0 0 8 + 1 V ",
"V V N N N N V B V V V l l l V V l N N V V l N N V V N N N N N N N l Y rXkXzXxXkXzXkXkXkXkXkXkXkXjXsXsXsXsXsXsX8Xq 7 u 0 0 8 + 1 j ",
"L L P P P P P L P P P P &.P P P P &.P P &.P &.&.&.L P P P &.&.P &.1.8XkXzXkXjXzXzXkXkXkXkXzXkXkXsXzXkXkXjXsXsX[.7 7 7 0 0 8 + B L ",
"L L L L L L L L L L L P L P P P L L L &.L L P I &.<.}.+XwXwXwX+XwXjXaXkXzXkXzXzXkXxXkXkXkXkXkXkXkXsXsXjXsXsXzX,.% 7 7 0 0 y + B L ",
"L L L L L L L P P P P L P L P L L L L L L L 1.+XwXjXNXNXNXlXvXBXBXBXNXzXjXkXzXzXkXzXkXkXkXxXkXkXkXkXkXsXzXzX9Xe % 7 7 0 0 i @ A L ",
"L L L L L L L L L L L L L L L L G L F F %.%.y.y.OXOX@XeXlXlXNXNXNXVXVXBXVXxXjXkXkXkXkXzXzXzXkXzXkXkXsXkXsXtX'.- # $ % 9 0 r + G L ",
"L L L L L L L L L L L L &.L Z &.%.%.-.-.....o.o.#.X.@.@.-.y.@XlXNXNXNXVXVXVXVXNXxXkXkXkXkXjXzXjXkXkXaX0X0X0XpX0X{.U % 9 0 r O F G ",
"L K K I K L L L L G Z &.Z %.%.X...^ / ^ / X.o.o.=.#.8.8.#.#.o.r.@XlXZXNXVXVXBXBXBXVXNXzXkXjXsXaXaXaXtXqX0XtXpXzXnXnXoX0 0 i # G G ",
"j p e n s : N l N N ] ] ( ( ( ( X.X.X.X.X...( / / #.9.9.#.#.9.9.$.2.+XNXVXVXNXBXVXVXVXVXVXVXNXNXzXaXtXtXpXaXnXnXnXzXqXd 0 e ; N N ",
"L p 7 8 + # P %.! W ( ^ ( ( ( ..( X.X.X.X.X.=.o...{ ..$.9.O.O.q.q.q.O.y.eXBXNXNXNXVXVXVXBXVXVXVXBXNXjXkXcXxXnXxXzXzXyXp w e < P P ",
"L g 0 9 + # %.! ] %.*.*.*.%. ...X.X.X.X...X.8.8.8.$.o...9.9.q.O.O.O.q.q.9.y.eXVXNXNXNXVXBXNXVXVXNXlXjXxXnXnXcXdXdXkXqXw w - < P L ",
"F g 0 0 + * s p p s S S <.4.4.&.;.X.( #.=.o.o.8.9.9.9.q.=.9.q.q.w.q.$.o.9.9.o.y.eXVXNXNXNXBXNXvXxXjXjXyXxXzXsXaXkXsXqXu 9 * M L L ",
"L n 0 u $ 7 7 8 9 r y y y p D 4.E <.;.X.#.8.8.8.=...$.q.0.q.t.0.w.w.e.q.=.q.9.o./ y.eXBXBXBXNXlXjXrXyXqXaXdXdXsXdXdXyXf p * M K L ",
"L S 0 0 $ 7 8 8 8 r y y y u p s I 6.4.<.=.X.o.9.9.9.9.q.t.t.0.0.t.t.e.q.0.q.q.9.9...X.@XNXNXxXxXjXyXyX9XyXzXgXpXdXyX].9 w - M F G ",
"L B 0 d $ 7 % 7 7 = = = e r p s s n 4.6.5.=.9.9.9.9.q.w.$.t.t.t.t.t.t.w.w.w.w.9.q.8.X...eXxXxXjXyXqXqX9X0XdXzXpXpX].X 9 w - A F L ",
"F S 0 d & 8 O $ & & * = : : t y p s s <.6.5.=.9.9.q.q.w.t.t.t.t.t.t.t.w.w.0.q.#.+.} } / OXjXjXyXqXqX9X7XtXsXgX0X6 X . 9 f @ A G G ",
"a a 0 d % 7 O $ $ & * * & : : : p s g h T 6.5.O.9.q.9.w.q.t.t.t.t.t.t.e.0.$.| | | } } } -.lXyXyXqX9X7X#XtX9X).3 . X   9 d O j j k ",
"C F 0 w % 8 # $ & & * * : = : e t i s h h I 6.7.O.;.3.7.3.t.t.t.t.t.t.$.$.@.| | | } } } 2.jXqXqX9X9X7X{.6 X . X o o o 9 u # N N k ",
"G G u d % 7 O $ $ & * * * : : : : t i h h x I 6.;.D H 5.4.K =.t.t.0.@.@.@.| | | | } } / -.yXqXqX9X=X#X].3 X X @ + o o 8 u - L L P ",
"L G d d * 7 O O O & & * : * : : t t t i h h h <.6.D D D s s | @.@.@.@.@.| | | | } } } } 2.qXqX7X#X{.#X).@ + # # + @ M p 8 , G L L ",
"G G d d = % O $ & & & * * : : : : t t t p h h x 4.D x H a z | @.@.@.@.@.| | | | } } } } 2.qX7X7X#X$X].f.# $ # ; M F K a 7 1 &.L P ",
"L K p w % 7 O $ $ & & * * = = = e e e i t s h h x D D D s z | | @.@.+.| | | | [ } [ [ / 2.oX{.].`.2.Q , & > M G L L &.Z B Z &.L L ",
"L P g w = % O $ $ & & & * = : = : e e i i t s h x D x J i ] | | | +.| @.| } | } } [ [ / / ( ^ ^ W Q 2 , a Z G Z Z L G G Z G G G G ",
"F G s w - 7 u.m.Z.C.C.C.C.C.C._ 1 < p.m.Z.%XC.&X&X%X).K a ] | | | | | | *.V.%X*X*X*X*X%X*X*X' Q 2 i.m.Z.&X&X&X&X*X`.:.Z F C Z Z F ",
"N N p 0 % c D.AXAXAXAXAXAXAXAX2X4 c A.CXAXAXAXAXAXBXZX~.5 ] | | | | [ } ,.>XAXAXAXAXAXAXAXAX5XF.b N.CXAXAXAXAXAXAXAX(.5 j j j j j ",
"L L n 0 : v <XAX4X[.[.[.oX[.oXL.4 i.>XZX5XoX+XoX+X<XAX5XF.! ..} [ } [ [ } y.@X@X=XAXZX3X+X{.]._ d.D.AX6X8X+X+X8X,XAXfXK.G G L G G ",
"G L B 0 & i.uXAXE.q q q - q q * : i.>XAX^.t : i g N.AX5X) { { } [ +.[ / / ~ / ~ k.bXZXP.1 B %.L g.;XAX/.:.L G &.n.AXfXI.L L L L G ",
"L G S 9 = p.uXAXE.a.>X,X,X,X,XL.5 i.>XAXW.t t i h N.AX5X`  .[ [ } } [ / ~ ! 2 2 p.vXMXR.Z L L L j.;XAX/.:.Z G G M.AXfXK.G G G G G ",
"G L C 7 = p.uXAXE.s.AXAXAXAXAX2X4 i.>XAX^.> t i h A.AX5X` W / [ [ / ~ 2 ; > > t s.CXMXR.G &.P P d.;XAX/.:.G &.G n.AXhXI.L L L L L ",
"G G F M i k.uXAXW.L '.`.).:XAX2X6 i.>XAXW.e : i g A.AX5X` W W ~ / W 2 > t < > a s.CXZXR.L L L L d.;XAX/.:.&.L P M.AXfXI.P L L L L ",
"G L L L L k.uXAXW.k.j.k.d.S.AX2X) i.>XAX^.v v i.p.N.AX5X` W W W W > > : < a F P s.AXZXR.P P P P h.;XAX/.d.k.k.k.M.AXfXK.P K L L L ",
"l N N N B m >XAXmXmXmXmXmXMXAX(.4 c :XZXMXmXmXmXmXmXAX2X` W W ! > > : > M N N N s.bXMXR.N N N N B D.AXMXmXmXmXmXnXAX6XG.N N N N N ",
"K F Z L G K 1.lXAXAXAXAXAXAXfXI.A a m rXZXAXAXAXAXZXhXI.! W 2 > > a N &.L L P L h.BXMXR.L L L L P T rXAXAXZXAXAXAXhX!.P L L L L L ",
"L L L P L &.G L P L L P L L P G L L F a e y p p y g n - ; ; * < N Z P P P P L L L G K G L L L L P L L L L L L P L L L L L L P L L ",
"L P L P d.d.j.j.g.g.g.j.I P P d.h.L L L Z a t r r f s , - c v d.g.g.g.g.R L L L R j.g.g.g.d.g.g.R L G R g.d.g.g.j.j.j.Y P L P P L ",
"L L K b.D.iXcXcXcXcXcXcXgXQ.L N.vX4XH.G L G Z a : f i c S.iXcXcXcXcXcXcXgX!.P k.A.uXcXcXcXcXcXcXgX~.G v.uXcXcXcXcXcXcXcX1X_ L L L ",
"G L K N.CXAXAXAXAXAXAXAXZXE.L M.AX6XH.L P P L &.A f i c.AXAXAXAXAXAXAXAXAXW.P c.vXAXAXAXAXAXAXAXAX^.L b.vXAXAXAXAXAXAXAXAX~.L L L ",
"L L L A.AX5XL.:.:.:.:.,.,.%.G M.AX6XH.L L L P L S f : V.AX6XU.,.,.,.,.,.,.>.P n.AXhXQ.,.,.,.,.,.,.>.P v.bXZXI.,.,.,.f.;XVX(.:.G G ",
"L L L S.AX5X$Xl.x.x.z.f.&.&.&.M.AX6XH.&.&.P P P S u * m.AX6XY.x.x.x.x.x.f.:.K n.AXhXT.x.x.x.x.x.f.:.L b.bXZXT.x.x.x.B.:XAX(.L F G ",
"k l M B.AXAXAXAXZXAXAXAX(._ k M.AX6XF.l k j k M M y & V.AXAXAXAXAXAXAXAXAXW.N c.AXAXAXAXAXAXAXAXAX^.M v.bXAXAXZXAXZXAXAXAX~.j j k ",
"F G G L }.rXgXgXgXgXdXZXBXR.P M.AXfXJ.K L L L L K S M V.AXMXhXgXgXgXgXgXgX!.P n.AXZXhXgXgXgXgXgXgX~.Z b.bXZXhXgXgXgXgXgX1X_ G Z F ",
"L L K L P L L L P P a.vXAXE.G M.AX6XH.P G K L F G L G V.AX6XU.G L G G G F G K n.AXhXI.G F F G G G G Z b.bXZXI.L L G &.G &.G G &.L ",
"K L K M.D.-X-X-X-X-X-XbXAXE.P V.AXhX$X-X-X-X-X-X|.`.%.V.AXhX$X-X-X-X-X-X=XJ.L b.AXMX1X-X-X-X-X-X=XJ.L b.bXZXI.L G L G L G &.G G L ",
"F L K S.BXBXAXAXAXAXZXAXfXI.P j.vXZXAXAXAXAXAXAXZX!.P d.vXAXAXAXAXAXAXAXAXW.P R iXAXZXZXAXAXAXAXAX^.P b.bXZXI.G L L &.G G P &.G L ",
"L L P 1.+X.X.X.XXXXX.X XJ.P P P <. XXXXX.XXXXXXX XJ.P P <. X.X.XXXXXXXXXXXL.P K P  XXXXXXXXXXX.X XL.L L  X XH.G L G G G L G G G L ",
"L P L L L L L G L L L L L L L L L L L L L L P L L L G K F L F F G G G G G G G G L G G L L L L L G K L L G F G K G G K G G G L G L ",
"Z Z Z Z Z C F F Z Z F Z Z Z Z Z Z Z C Z C Z Z Z Z C Z F V F V F C V V V V V V V V V V V V V V V V V V V V V V V F l N V V N V N V ",
"j l j k k k l l k k k k k k k k k N N l N N k l l N l N l N l l l N N N N N N N N N N l N N N N l V N N l V l V l l V N V B l N l ",
"L L L L K L L L P P L L L P L P P P L P L L P L L L L P P P P P P L L L L L L L L L P P P P L P L L L L L L L L P P P P P L L L L ",
"L L L L L L L L G P P L P P L P P P G L G L G G K G L G L G L G F L L L L L L L G G L G G G G G G G G L L G G L L L L L L P L P L ",
"L L L L L L L L P L P P L L L L L L G P P L G G G G G L G G G L L L F L L L L L L L L L G L L G G G G G G G G L G L L L L L L L G ",
"F L L F G G L L L P P P P P P P P P P P P P P P P P L &.P P P P P P L P P L L P P P P L P L L G G P P G L G G G L L L L L L L G L ",
"P P L P P P L G L L L L L L L L G P L P P G L L L P L L P P P P P P P P P P P P P P L P P P L L P L L L L L L L G G G L G G G G L ",
"L L L L L L L L L L L L L L L L L P L L L L L L L L P G G G G G G F F F G G G G G G G L G L L G G G G G G G G G F F F G F G F L L "
};
