/* XPM */
static char *_1712829580[] = {
/* columns rows colors chars-per-pixel */
"65 65 251 2 ",
"   c #3B321F",
".  c #453419",
"X  c #54361D",
"o  c #653D1C",
"O  c #4C3A27",
"+  c #563C25",
"@  c #545010",
"#  c #6B5014",
"$  c #5E620D",
"%  c #6E7114",
"&  c #57442B",
"*  c #574531",
"=  c #654629",
"-  c #784B23",
";  c #684B30",
":  c #704F37",
">  c #67553C",
",  c #745333",
"<  c #7B5739",
"1  c #7A6F29",
"2  c #675540",
"3  c #715B45",
"4  c #6F5D51",
"5  c #77684D",
"6  c #796A57",
"7  c #7E7364",
"8  c #903A08",
"9  c #B52D2A",
"0  c #CB311B",
"q  c #95581F",
"w  c #B15310",
"e  c #B55918",
"r  c #83691B",
"t  c #B97313",
"y  c #875929",
"u  c #96572A",
"i  c #8E4E30",
"p  c #8A5F36",
"a  c #865B38",
"s  c #BB5733",
"d  c #8A662B",
"f  c #976528",
"g  c #877826",
"h  c #8B6136",
"j  c #8D643C",
"k  c #8F693C",
"l  c #90673E",
"z  c #91683F",
"x  c #9D6B39",
"c  c #A6682D",
"v  c #AD722D",
"b  c #B26E36",
"n  c #A67638",
"m  c #BA7839",
"M  c #C8650C",
"N  c #D46816",
"B  c #CC582C",
"V  c #CF5D2E",
"C  c #EC5730",
"Z  c #C77428",
"A  c #D97829",
"S  c #CA6736",
"D  c #D76938",
"F  c #CA7538",
"G  c #E57823",
"H  c #E8643A",
"J  c #EF7536",
"K  c #8D4B48",
"L  c #AB534D",
"P  c #916740",
"I  c #946B42",
"U  c #996E45",
"Y  c #997147",
"T  c #9C734A",
"R  c #9A764D",
"E  c #886E51",
"W  c #8A7354",
"Q  c #9B7A56",
"!  c #A46945",
"~  c #A37445",
"^  c #A87745",
"/  c #A1774D",
"(  c #A3794F",
")  c #AB7C4C",
"_  c #B77A4A",
"`  c #A06550",
"'  c #A67C52",
"]  c #A87E54",
"[  c #A67959",
"{  c #8A7A69",
"}  c #8E7D6A",
"|  c #A77A65",
" . c #B57969",
".. c #CB5F59",
"X. c #C67744",
"o. c #D0704C",
"O. c #F36F4B",
"+. c #E87A47",
"@. c #F77747",
"#. c #7E8D0D",
"$. c #788917",
"%. c #7A9619",
"&. c #7C9324",
"*. c #879413",
"=. c #BB951D",
"-. c #92AC16",
";. c #94A91D",
":. c #8A9727",
">. c #92952D",
",. c #98853A",
"<. c #B5952F",
"1. c #B88738",
"2. c #97A628",
"3. c #98AE2D",
"4. c #A8B62E",
"5. c #AEAB33",
"6. c #DC8619",
"7. c #F1891E",
"8. c #C9882B",
"9. c #DB8729",
"0. c #CE9531",
"q. c #D79437",
"w. c #F69727",
"e. c #EB8D31",
"r. c #E98739",
"t. c #E89839",
"y. c #F49737",
"u. c #C8A934",
"i. c #EDA337",
"p. c #F7A536",
"a. c #F5AA35",
"s. c #FAAC3B",
"d. c #AFC82D",
"f. c #9B8152",
"g. c #AC8746",
"h. c #BB8646",
"j. c #B5834C",
"k. c #B9964B",
"l. c #A88357",
"z. c #B58856",
"x. c #BB8D5B",
"c. c #BB9757",
"v. c #9EA747",
"b. c #A9A848",
"n. c #ABA556",
"m. c #BDA450",
"M. c #B9B55A",
"N. c #978269",
"B. c #AA8A6B",
"V. c #B48C63",
"C. c #BC9563",
"Z. c #BA986A",
"A. c #AA9275",
"S. c #B19171",
"D. c #B79775",
"F. c #BB9C74",
"G. c #BAA567",
"H. c #BBA37B",
"J. c #BEB770",
"K. c #CA8B47",
"L. c #D49448",
"P. c #C48A57",
"I. c #CB9251",
"U. c #C79759",
"Y. c #D39B58",
"T. c #EB8A4D",
"R. c #EA9A4A",
"E. c #F69947",
"W. c #ED8755",
"Q. c #F58755",
"!. c #E99558",
"~. c #F69659",
"^. c #C6A848",
"/. c #DAAB4A",
"(. c #C9B647",
"). c #C7A65B",
"_. c #D3A85B",
"`. c #DAB258",
"'. c #ECA54B",
"]. c #F7AB43",
"[. c #F9B748",
"{. c #F9B44B",
"}. c #E7A75A",
"|. c #EDB45B",
" X c #F8BB57",
".X c #D38A6A",
"XX c #C79867",
"oX c #C39C6B",
"OX c #C89675",
"+X c #E99869",
"@X c #FA9A67",
"#X c #F59C75",
"$X c #CCA665",
"%X c #C8A468",
"&X c #D7A668",
"*X c #CAB66B",
"=X c #D8B76A",
"-X c #CAA375",
";X c #C8A779",
":X c #D8AB77",
">X c #C9B775",
",X c #D5B578",
"<X c #DCB47C",
"1X c #E9A76A",
"2X c #EDB46E",
"3X c #E9A874",
"4X c #F7A777",
"5X c #E5B378",
"6X c #BEC84A",
"7X c #BFCF65",
"8X c #D6C954",
"9X c #D3C75B",
"0X c #F8C14F",
"qX c #CFCA6E",
"wX c #F9C363",
"eX c #F5C966",
"rX c #F1CA6F",
"tX c #D7E170",
"yX c #AD9581",
"uX c #B69B88",
"iX c #B9A789",
"pX c #B9A796",
"aX c #BDB0A2",
"sX c #C7A987",
"dX c #DAA888",
"fX c #C9B585",
"gX c #D7B784",
"hX c #C2A995",
"jX c #D3A399",
"kX c #C8B398",
"lX c #D9BC96",
"zX c #EABC85",
"xX c #EAB38E",
"cX c #E7B999",
"vX c #C5B5A6",
"bX c #D2B5AC",
"nX c #D8C589",
"mX c #D9C98F",
"MX c #E8C48B",
"NX c #E6C596",
"BX c #E4D594",
"VX c #EFD391",
"CX c #DBC3B7",
"ZX c #E8CBA3",
"AX c #F3CDAA",
"SX c #E9D2A8",
"DX c #EBD5B3",
"FX c #EEDBBC",
"GX c #F1D9B8",
"HX c #ECD5C9",
"JX c #F3E1C5",
/* pixels */
"' ' ' ' ] ' ' ' ' ] ' ' ' ' ' ] ' ' ' ] ] ' ] ' ' ] ' ' ' ] ' ' ] ] ' ' ' ' ' ] ' ' ' ' ' ] ] ] ] ] ] ] [ ] ' ] ] ' ' ' ' ' ' ' ] ",
"' ' ' ] ' ] ] ' ' ] ] ] ] ' ] ] ] ] ] ] l.[ ] ] [ l.l.[ ] ' ' ] ] ] ] ] ] ] ' ] ] ] ] ] ] ' ' ' ( ' ' ] ' ' ] ' ] ] ] ' ' ' ' ' ' ",
"' ' ' ' ' ' ' ' ' ' ' ] ' ] ' ] ' ] ] ] ] ' l.) ] ' ] ] ' ' ' ' ' ' ' ' ' ' ' ' ' ' ' ' ' ' ' ( ( ( ( ( ( ( ( ( R ( ' ( ( ( ' ' ' ",
"( ' ( ' ' ( ( ' ' ( ' ( ' ' ( ( ' ( ( / ( ( / / / / ( R / / / R / ( ' ( ( ( ' ' ( ' ( ( ( ( Q ( ' ' ( ( ( ( ( ( ( ( R ( / / / R / ",
"j j j j j j j j j j j j j j j j j l j j j j k j j k j j j j P j j j P j j j j j h j j j j j j j j j j j j j p j j j j j j j h j h ",
"/ R / / / / / / ( ( ( ( ( / ( ' / / ' ( ' R ' ( ' ( ( ( ' ' ( ( ' ( ( ( ' ' ( R ' ( ' Q R ' ( ' ( Q ( ' ( ( ' ' R ' ' ( ( ( ( ( ( ",
"' ' ' ' ] ] ] ] ] ] ] ' ' ] ' ] ' ' ' ' ] ' ' ] ' ] ] ] ' ' ] ' ' ' ' ' ' ' ' ' ' ' ' ' ' ' ' ' ( ' ( ' ( ' ' [ ' ] l.' ' ' ' l.] ",
"' ' ] ] ' ' ' ] ' ' ' ] ' ' ' ' ' ' ' ' ' ' ( ( ( R / ( ( / / ' / ' ( ( ( ' ' ' ' ( ( ( ( ( R ' ( ( ( ( ( ( ( ( ( ' ' ' ' ' ' ' ' ",
"/ / ' ( ' ' ' ' ' ' ] ] ' ' ' ' ) ' ' ' ' ' ' ] ] ' ' ] ' ] ' ' ' ] ] ] ] ] ] ] ' ] ' ' ] ' ' ' ' ' ' ' ' ' ( ' ' ' ' ' ' ' ' ' ' ",
"' ' ' ' ' ' ' ' ] ' ' ' ] ' ] ] l.( ' l.] ] ] ' ] ] ] ] ] ] l.l.] ] ] ] ] ] ] ' ] ' ] ] ] ] ] ' ' ' ' ' ' ' ' ' ' ' ' ' ( ( ' ( ' ",
"] ] ] ] ' ] ' ' ' ' ' ' ' ' ' ' ( l.] ( ] ' ' ' ' ' ' ' ' ' l.' ' ' ] ' l.] [ ' ] ' ' ' ' ' ' ' ' ( ' ( / ( ' ' / ( ( ( ( ( ( ( ( ",
"I U I U U U U U U U U U Y U U U U Y Y T Y Y Y Y Y Y T Y Y Y Y Y Y R Y Y Y Y Y Y Y Y Y Y Y Y R Y Y Y Y T Y Y T Y U Y Y Y T U T T T ",
"I I I I U I I I I U U I I U I U I z U z I I I I U U I I I I I I P I I I I I P I I P P I I P I I I P I P I P I j l P P l l j l j j ",
"] ' ] [ ] ] ] ] ] ' ] ] ] ] ] ] ] ] ] l.l.] l.] ] ] ] ] ] l.' ] ' ] ] ] ] ' l.' ] l.] ] ] ' ' l.l.] ] ] ] ] ] ] ] ] ] ' ' ' ' ] ] ",
"' ' ' ' ' ' ( ' ( l.] ] ] ( ( ] ] ' ] ] ] ] ' l.' ' ] ] ' ' ] ' ] l.' ] ] ] ] ] ' ] ' ' ' ' ' ' ' ( ' ( / ( ( ( ' ' ' ( ' / ' ' ' ",
"' ' ' ' ' ] ] ' ] ] ' ] ] ] ] ] ' ' ' ' Q ' ' ' ' ' ' ' ' ( ' ' A.l.' Q ' ' ' ' ' ] ] ' ' ' ' ' ' ' ' ' ' ' ' ' ( ' ' / ' ' ' ' ' ",
"' ' ' ' ' ' ' ' ' ' ' ' ' ' ' ( ' ' ( ' ( ( ( ( ( ' ( ( ' ( ' A.pXpXB.' ' ' ' ' ( ] ( ' ( ] ' ' ' ' ' ' ' ' ' ' ' ' ' ' ' ' ' ' ' ",
"' ' ' ' ' ' ' ' ' ' ' ' ' ' ' ' ' ' ' ] ] ' ] ] ' ' ' ' ] l.A.yXpXaXpXA.' ' ' ' ( ] ( ' ( ( ' ' ' ( ( / ( ( ( ( / ( / / / ( / / ( ",
"' ' ' ' ' ' ' ' ' ( ' ' ' R ( ( ( ' ( ' ' ' ' ( ' ' ( ' A.uXuXuXpXaXpXpXuXl.' ' ( ( ( / ( ( / R / / R / / / / / ( ( / ' ( ( / / / ",
"P P P P I z I I I I P P I I I I I I I I I I I I I I | yXuXuXpXhXhXkXvXvXvXpXR I I U I I U I I I I U I I U I I I I I I I I I I I I ",
"' ' ' ' ' ' ] ' ] ] ] ' ' ] ] ' ] ' ] ] ] ] ] ] l.C.P.x.D.OXOXY._ m b b D.sXoX) x ' ' ' ( ) ' ' ( ( ( ) ' ' ' ] [ ' ' ' ' ' ' ] ] ",
"' ' ' ' ' ' ] ' ' ' ] ] ] ] ' ' ' ' ' ( ( ) ) &X&XzXDXMXzX!.1XZXMXXX_ x.oX1XK.F c f U ( ( ( ( ( ( ( ( ( ( ( ( ( ( ' ' ' ' ' ' ' ' ",
"( ' ' ( R ' ' ' ' ' ' ' ' ' ' ' ' ' ' l.I.5XAXFXgX$XG.n.G.lXFXJXZX%XXX;XfX;XXXC.^ l.z.~ R ( l.( ( ( ' ' ' ' ' ( ( ] ' ' ' ' ' ' ' ",
"' ' ' ' ' ' ' ' ' ' ] ] l.[ ] ] ] ' l.OXSXGXFXfX,.>XJ.b.g.g ,.G.H.C.k.c.;X;X;XsX( ~ OXS.) x / ' ] ' ' ' ' ' ' ' ( ' ' ( ' ' ' ' ' ",
"] ' ' ] ' ' ' ' ' ' ' ' ' ' ' ' ' l.:XDXDXJXZXU.<.:.>.>.v.v.&.1 g ,.g.n fXDXlXfXZ.sXfXH.D.' x R ( ( ( ( ( ( ( ( ( ( ' ( ' ( ( ' ( ",
"' ' ' ' ' ) l.' ' ] ] ] ] ] ' ] ] dXGXGXFXSX=X=Xm.G.>.>.$.$.% % $ $ % f.H.*Xx.;XZ.sXOXiXH.H.V.) ~ / ' ' ( ( ] ( ( ' ) ( ' ( ( ' ' ",
"R ' / / / / / / R ' ( ( R ' ( R XXGXJXGXnX=X^.m.nXM.5.:.;.#.-.*.$.% @ $ $ r g.g.XXfXoXsXsXkXD.B.l.^ ~ ' ] ( ( ( ( ( ( ( ( ( ( ( ( ",
"p p p p h p h p p p p h j h h z.DXJXFX,X$X%X).*XqXtX6X3.3.%.%.*.2.% 1 $.g *.d g.U.;XXX;XlXsXF.sXS.Z.z.n h j j j l j l h l j j j l ",
"T / T / T T T T T / T / / U ' ZXJXFXgX&X$X).`.6Xd.d.-.d.;.%.%.*.2.b.,.g 1 ,.1 # . # - ^ z.oXF.;XH.D.S.d z U Y I U I U I I I z I l ",
"' ' ' ] ] ] ] ] ] ] ] ] ] ] :XJXFX<X_.U.U.U.*X-.4.%.-.3.%.$.&.$.M.n.n.n.,.y ` k . . f C.j.j.x.XX;XZ.] V.~ ] ' ] ] ' ] ] l.] ] ] ] ",
"' ' ] ] ( ] ] ] ' ' ] ] ] x.ZXDXgXU.I.U.%Xb.5.2.M.;XG.3.3.2.:.2.6XnX^.$X_.m q L L K < i h u ) x.%XZ.D.) j.) ' ( ( ' ' ' ' ' ' ' ' ",
"( ' ( ( ( ( ( ' ( ' ' ' ' XXAXNXY.K.I.c.OXc.bXfXJ.b.qX4.7Xf.n.2.<.).3X+X1X2X2X}.X.S.| < o b m ^ ^ x.sXC.h.) ' ' ' ' ' ] ' ] ] ' ] ",
"' ' ' ' ' ' ' ' ' ' ] ' ' gX<X&X_.$XU.XX .U.5.3.4.6Xu.5.qX/ G.=.8.=X<Xv 1.1.h.c.Y.b = < ` R.@.b z.C.^ n P.m g.( ' ' ( ' ' ' ( ' ' ",
"' ] ] ] ' ] ' ] ' ' ' ' fX<X&X<X5X:XBXnXt.(.5.=.5.(.0.L.1.! k.&X5X3Xo.F Z D +.V F e r ] o.~.H U d d x j.XXv k./ ( ( ( ( ( ( ( ( ( ",
"/ ( / ( / ( / / ( / ( l.gXgXXX5X:XNXMXe./.mXBXtX9X9X=XzXAXdXlXdXZ W.+.Q.T.s s +.H B # v 4X@.o.` | Y ( ;X,Xc.k./ T / Y / / ( / / / ",
"I I l I I I I I I I I I G.,X&X!.~.AX3Xr.0.u.8X`.(.9X=X`.T.#X!.+X.X~.@XB 4X#Xo.B Q.Q.r.~.Q.o.! [ jXHXbXsXcXC.U l j j l p p p p p j ",
"[ ] ] ] ' ' ' ' ' ' ' ] kX<X&XH J 4XMXr./.E.G 6.|.rXrX=X_.N O.~.Q.xX#XB D D S q B Q.O.C Z v d h pXHXbXCX-XOX' ] ' ' ' ' [ ' ( ( ( ",
"( ( ( ( ( ( ( ( ( / ( / S.lXzX3XG N }.BXrXR.r.e.9Xs. XeX[.0.8 C @.O.O.H Q.Q.Q.@.@XO.C s c ).qXlXbXCXuXx j.Z.' ] ' ' ' ' ] ' ) ] ( ",
"' ' ( ' ' ' ( ' ' ' ' ' l.iXdXzXw.s.w.t.2X|.rXeXeX0X Xs.'.e.n 5XD 0 C C C O.C Q.+XB u 1.).mXXX .pXuXP.>XXXz.( ( ' ( ' ( ( / ( ( ( ",
"( ( ' ] ' ' ' ' ' ' ' ' [ 7 hX1X'.p.p. Xs.[.eXeX0X[.s.9.M 1.SXm.P.i L 9 H ...X.XOXOXV.gXnX) P.P.i K OX).g.Q ' ' ' ' ' ' ' ' ' ' ' ",
"( ( / / / / ( ' ' ' ' ' Q * 3 S.Y.R.|.'.[.[.[.p.[.'.t 8 w nXBX^.u.5.$XcXcXdX .jX.Xh.g.oXOXe w M M r.F u 5 W ' ] ] ' ' [ ] ' ' ] ' ",
"( ' ' ' ' ' ( ' ' ' ' ' l.> = : | P.X.m K.|. Xi.9.t w w L.MXq.t =.0.dXdXxX|._ _ N 6.u.8X9X6.M e Z E.J . & Q ' ] ] ' ' ' ' ' ' ' ' ",
"z I I I I I I I I P I I I 3 < y - E  .' m K.K.m h.1.U.OXcX}.R./.^.&XxXQ. XwXrX'.G w.p.a.u.0.G 9.R.y.7.u & f.I I I I I I I I I I I ",
"( / / ( / ( / / ( / ( ( ( ( > p a = > { B._ K.K.K.m :XxXY.#X4X|.W.r.y.y.[.wX[.p.G w.w.p.s.i.7.y.y.~.J h.f.f.' ' ' ' [ ' [ ' ' ' ' ",
"] ( ' ' ' ' ' ' ' ' ' ' ' ' Q 2 < , ; > 2 { Q _ K.c P.gX5X].[.w.7.w.[.[.[.wX[.w.Z y.].w.y.9.7.].e.D ! ) ' ' ' ' ' ' ' ' ' ' ] ' ] ",
"' ] ' ' ' ' ] ] ] ] ] ' ] ' ' ] 5 > , < : & * 4 P m L.3XzXs.s.[.wX XwX Xs.w.y.w.A t 8.Z m p o i = 3 R ) ' ' ' ' l.' ' ' ' ] [ ' [ ",
"' ' [ ] ] ' ' ' ' ' ] ' ] ' ' ' ' Q 6 4 < 3 ; + O * a m L.y.[.VX[.s.p.p.p.t.q.q.b c n - o X O 3 T ( ' ( ( ( ( ( ( ' ' ' ' ' ' ' ( ",
"( ( ( ( ( ( ' ' ' ' ] ' ] ' ' ' ] ' [ Q { 7 E 6 ; + X O , v q.|.|.t.t.L.K.n - .   X O O > 5 ' ] ' ' ' ' ' ' ' ( ' ' ' ' ' ' ' ' ' ",
"] ' ' l.] ' ] ' ' l.' l.' ' ' ' ' ] ] ] ] ' Q } N.N.6 4 2 > < g = y x f = . O O * > E ' ] ' ] ' ' ] ' ' ' ' ' ' ' ( ' ( ( ' ' ' ' ",
"' ' ' ( ' ( ( ' ( ( ' ' ] ] ] l.] [ ] ] ] ] ' ' [ ' l.f.Q W f.6 E E E W Q ' ] ] l.' ' ' ' ] ' ] ' ' ' ' / ( / ' ( / ( ( ' ( ' ( ( ",
"l l j j j z j j k j j j l l l l j j l P l P l P P P P P j k l z k l l l j j z l l z z z k P k P P P j j j P l l l l l l l l j l l ",
"( ( ( ( ( ' ' ' ' ' ' ' ( ' ' ( [ ' ' ' ' ' ' ' Q ' ' Q ' ' ' ( ( ( ' R ' ' ( ( / ( / ( ( / ( / ( / / ( ( ( ( / ( ' ( ( / ( R / / ",
"( ] ) ' ' ] ' ' ] ' ' ' ' ' ' ' ' ' ' ' ' ( ' ( ( ( ( ( ( ( ( ' ( ( ( ' ( ' ' ( ' ( ' ( / / ( ( ( ( ( ( ( ' ( ' / ' ' ' ' ' ' ] ' ",
"( ] ] ( ' ' ' ' ' ' ] ' ' ' ' ' ' ' ) ( ' ' ' ' ' ' ( ' ' ] ' ( ' ' ' ' ' ] ] ' ] ' ' ' ' ' ' ' ' ' ' ( ( ' ( ' ' ' ' ' ' ' ' ' ' ",
"/ ( ( ( ' ' ' ' ' ] ] ' ] ] ] ' ] ] ] ] ' ] ] ] l.l.] ] ] ] ] ] ] ] l.' ] ' ' ] ' ] ] ' ' ' ] ] ' ' ' ' ' ' ' ' ' ' ' ' ' ' ' ' ' ",
"] ] ] ] ' ' ' ' ) ' ' ' ' ' ' ' ' ' ' ' ' ' ' ' ' ' ] ' ] ] ] ] ] ' ] ] ] ' ] ' ] ] ' ] ] ' ) [ ' ' ' ( ( ' ' ( ' / ' / ' ( ' ' ( ",
"' ' ' ' ' ' ' ) ' ' ' ( ' ' ' ' ' ' ' ' ' ' ' ' ' ' ' ' ' ' ) ( ( ( / ( / / ( ( ( ( ( ( ' ' ' ' ( ' ( ) ( ( ( ' / ( / ' / ( ' ( ( ",
"T / T T T T T R T T / T T / T T T T T T U T Y / T T U T Y Y Y U U Y U T T U T U U U T U U U Y U U U U U U U U U U U U U U I U I U ",
"l j j l l l l l l z l z z l l z P I z l I z I z I z z I I I z z z z z z z z z z I I I I I I I I I I I I I I I I I I I I I U I I I ",
"' ' ' ' ' ' ' ' [ ] ] ( ' ) ] [ ' ] ] ] ' ] ' ' ' ' ' ] ' [ ] ' ] ' ] ] ] ] ' ] ' ' ' ] ] ] ] ] ' [ ' ' ' ' ' ' ' ] ' ] ' ' ' ' ' ",
"' ' ' ] ] ' ] ' ' ] ' ] ' ] ] ] ' ] ( ] ' ' ' ( ( ' ( ' ' ( ' ( ( ' ' ' ) ' ' ' ' ( ( ( ( ( ( ( ' ( ( ' ' ( ' ' ' ' ' ' ' [ ] ] ' ",
"' ' ' ' ( ' ( ] ] ' ] ] ' ' ' ' ' ' ] ( ) ' ( ( ( ( ( ( ( ' ( ' ( ' ( ' ' ' ' ' ' ' ] ' ( ' ( ( ( ( ( ( ( ( / ( ( ' ' ' ' ' ] ( ' ",
"' ( ( ' ( ( ] ( ( ] ] ] ' ] ] ] ' ] ] ] [ ] ] ] ] ] ] ] ] ] ] ] ] ] ' ] ' ] ] ' ' ] ) ] ' ' ' ' ' ' ' ' ' ( ' ( ' ' ' ' ' ) ( ' ' ",
"' ] ' ' ] ] ' ' ' ' ' ' ' ' ' ' ' ] ' ' ] ' ' ' ' ] ' ] ] ] ] ] ] ] ] ] ] ] ] ] ] ] ] ] ] [ ' ' ' ' ' ' ' ( ' ' ( ( / ' ' ( ( ( ' ",
"' ' ' ' ' ' ' ' ' ' ' ' ' ' ' ' ' ] ' ' ' ' ' ' ' ] ' ( ' ( ( ( ( / / / ( / ( ( ( ( ) ( ( ' ' ( ( ( ( ( ( ( ( ( / / / ( ( ( / ( ( "
};
