/* XPM */
static char *_1712233225[] = {
/* columns rows colors chars-per-pixel */
"65 65 246 2 ",
"   c None",
".  c #3B3826",
"X  c #352313",
"o  c #5C3D1F",
"O  c #4E3715",
"+  c #4A3926",
"@  c #563C24",
"#  c #3D4036",
"$  c #4A4D0D",
"%  c #72491F",
"&  c #6E411D",
"*  c #5E6710",
"=  c #746D14",
"-  c #6A6C16",
";  c #5D4429",
":  c #4E4336",
">  c #525137",
",  c #67472C",
"<  c #78532C",
"1  c #6A4B33",
"2  c #66553C",
"3  c #765637",
"4  c #774C33",
"5  c #7D632C",
"6  c #4D5143",
"7  c #575042",
"8  c #7A5F45",
"9  c #765F51",
"0  c #796758",
"q  c #6D6250",
"w  c #78756A",
"e  c #686E61",
"r  c #B3291D",
"t  c #DE3C21",
"y  c #D2341D",
"u  c #884E12",
"i  c #B65917",
"p  c #B35308",
"a  c #85641C",
"s  c #864E22",
"d  c #875429",
"f  c #8E5E3C",
"g  c #BB5628",
"h  c #B24C26",
"j  c #98622D",
"k  c #877525",
"l  c #876D35",
"z  c #9B6A3A",
"x  c #897C37",
"c  c #987C36",
"v  c #896624",
"b  c #AD6929",
"n  c #A76B35",
"m  c #BA6C3A",
"M  c #A3723B",
"N  c #B5773B",
"B  c #B37A2F",
"V  c #B66B0E",
"C  c #CE6E16",
"Z  c #D25B2E",
"A  c #EA5934",
"S  c #E3452A",
"D  c #D97925",
"F  c #CD6737",
"G  c #D56634",
"H  c #C57737",
"J  c #CC7730",
"K  c #F27A2C",
"L  c #EA6737",
"P  c #F6633E",
"I  c #E66F16",
"U  c #96554A",
"Y  c #976847",
"T  c #997344",
"R  c #8D6D57",
"E  c #A56148",
"W  c #A87947",
"Q  c #B87447",
"!  c #A87A59",
"~  c #B17051",
"^  c #A97763",
"/  c #B17463",
"(  c #947B6B",
")  c #D77242",
"_  c #C17B52",
"`  c #E87949",
"'  c #F5794A",
"]  c #E77E54",
"[  c #EC6F48",
"{  c #CB7372",
"}  c #C77A6A",
"|  c #768B12",
" . c #779214",
".. c #75870E",
"X. c #7E8922",
"o. c #7B827A",
"O. c #879512",
"+. c #B98118",
"@. c #94AA1A",
"#. c #8AA915",
"$. c #8B9925",
"%. c #8C9033",
"&. c #B89D2A",
"*. c #B8873B",
"=. c #B39033",
"-. c #94A728",
";. c #9EA932",
":. c #92AC27",
">. c #A9B130",
",. c #CC841A",
"<. c #EE831C",
"1. c #F1851B",
"2. c #CB9B2C",
"3. c #C7863B",
"4. c #D48D36",
"5. c #D9973C",
"6. c #CD9230",
"7. c #F58829",
"8. c #E8972C",
"9. c #F59A28",
"0. c #E98838",
"q. c #EA9739",
"w. c #F49837",
"e. c #EB892E",
"r. c #CBA33B",
"t. c #F9A42E",
"y. c #EFA73A",
"u. c #F7A636",
"i. c #FAB03F",
"p. c #B8CE2D",
"a. c #968F43",
"s. c #A6874B",
"d. c #B7854A",
"f. c #A69C48",
"g. c #BA9947",
"h. c #AA8154",
"j. c #B78656",
"k. c #BA9858",
"l. c #A89857",
"z. c #AFAC4D",
"x. c #ABA754",
"c. c #B8A859",
"v. c #B4B34F",
"b. c #9A8171",
"n. c #AD8B65",
"m. c #B38B63",
"M. c #BB9766",
"N. c #BB9B78",
"B. c #AF9272",
"V. c #BDA17D",
"C. c #BDAE73",
"Z. c #B9AF66",
"A. c #C88846",
"S. c #D78A48",
"D. c #C6984D",
"F. c #D49B48",
"G. c #DD865A",
"H. c #CA9A5C",
"J. c #C39758",
"K. c #DB9956",
"L. c #C48E55",
"P. c #EA8A59",
"I. c #F88855",
"U. c #F1914C",
"Y. c #D8BD47",
"T. c #C7A55B",
"R. c #C6B356",
"E. c #C9B149",
"W. c #F6AA46",
"Q. c #FAB44A",
"!. c #F8B748",
"~. c #E7A756",
"^. c #EBB455",
"/. c #F9BA54",
"(. c #EDAC4E",
"). c #C29B64",
"_. c #C69A67",
"`. c #D79C63",
"'. c #C49774",
"]. c #DB9975",
"[. c #C68B6B",
"{. c #F79C68",
"}. c #F29F70",
"|. c #C9A865",
" X c #D4AB6C",
".X c #D7A76A",
"XX c #CDB86F",
"oX c #D6B569",
"OX c #C3A174",
"+X c #C5A77A",
"@X c #D6A975",
"#X c #CEB27D",
"$X c #D8B576",
"%X c #E7A968",
"&X c #E9B765",
"*X c #EBAA78",
"=X c #F3A771",
"-X c #E3B577",
";X c #F4BF6A",
":X c #B9CB5B",
">X c #C9CA54",
",X c #F9C259",
"<X c #E7C34B",
"1X c #C8CB6A",
"2X c #D6CB65",
"3X c #D9CA7E",
"4X c #CDC57D",
"5X c #F9C368",
"6X c #EFCA6E",
"7X c #AE9A88",
"8X c #B89B87",
"9X c #AF9F90",
"0X c #BEA48D",
"qX c #BAA897",
"wX c #B5AF8E",
"eX c #BCB2A7",
"rX c #D09988",
"tX c #CCAE85",
"yX c #C5AA87",
"uX c #D1A781",
"iX c #CDB48A",
"pX c #D9B785",
"aX c #C4AB98",
"sX c #D8AE97",
"dX c #DDB690",
"fX c #CEB290",
"gX c #E7BA88",
"hX c #E7AD92",
"jX c #ECB890",
"kX c #C5B6A7",
"lX c #D6B9B1",
"zX c #DBC296",
"xX c #DECF88",
"cX c #EAC88D",
"vX c #E6D287",
"bX c #E7C69A",
"nX c #ECD094",
"mX c #D2C1AB",
"MX c #E5CDA5",
"NX c #EAD2AB",
"BX c #EDD6B5",
"VX c #F1D9B8",
"CX c #F2C6A2",
"ZX c #DEC4C3",
"AX c #F2DFC5",
"SX c #F2E0C3",
/* pixels */
"                                                                                                                                  ",
"                                                                                                                                  ",
"                                                                                                                                  ",
"                                                                                                                                  ",
"                                                                                                                                  ",
"                                                                                                                                  ",
"                                                                                                                                  ",
"                                                                                                                                  ",
"                                                                                                                                  ",
"                                                                                                                                  ",
"                                                                                                                                  ",
"                                                                                                                                  ",
"                                                                                                                                  ",
"                                                                                                                                  ",
"                                                                                                                                  ",
"                                                                                                                                  ",
"                                                                                                                                  ",
"                                                                qX                                                                ",
"                                                              7XqXeXeX                                                            ",
"                                                          7X8X8XqXeXqXqX                                                          ",
"                                                      9X7X8X0X0XaXkXaXkXkX                                                        ",
"                                                    '.j.N.'.'.[.Q Q Q m.0XyX                                                      ",
"                                              L.-X.XbXbXjX%X*XCXgXj.d.)..XK.3.n j                                                 ",
"                                          `.gXBXzX#X|.Z.l.C.MXAXzX).).tXiX'.M.W W j.Y                                             ",
"                                        bXNXBXBXc.f.Z.x.l.%.c s.M.k.j.J.tXtXfXm.h.V.m.W s                                         ",
"                                      gXVXVXSX$XD.=.%.%.-.a.%.- a %.%.M.NXdXiXV.tXyXV.N.h.                                        ",
"                                    pXVXVXNXxX|.T.c.v.$.$... .| * $ - x s.j.k.J.tXN.N.yXV.m.z c                                   ",
"                                  @XVXSXMX X XT.R.4X>X-.:. .@.O.O.- - - = k c ).tX'.iXfXyX0Xn.j.h.                                ",
"                                  BXAXNX@XT.T.R.1X>Xp.p.:. . .#.;.%.5 X.%.k k l Y M _.+XOX+XV.B.n.W                               ",
"                                bXAXMX.XT.J.T.R.p.:.#.:.X. .X.| z.z.x.k v ~ < $ O d j.d.OXM.OXN.n.h.                              ",
"                              $XVXMX.XD.H._.J.;.#.v.c.;.:.-.X.:.1XZ.c.T.*.s U U 8 f Y z n d.).OXm.h.W                             ",
"                              gXBX@XA.D.J.'.c.pXwXXXR.>.:Xa.x.;.&.$XK.=X=X~.K.Q ^ U & & N W h.d.iXM.d.W                           ",
"                              cX.X@X|.J.[.{ ).z.;.>.>X>.1XT c.+.=.$X_.*.*.D.T.K.N 3 R ~ U.F W M.j.W d.*.                          ",
"                            pX@X.X@X.XnX3Xr.r.>.&.E.6.F.=.E k..X%X=X) J G ) F ) i a m.P.I.m z v j d._.B                           ",
"                            zX$X$X-X-XcXe.~.xXvX2X>X2X-XCXjXdX@XJ P.] ] P.h [ L Z % 3.I.[ E ^ ^ T '.pXJ.                          ",
"                            XXT.P.I.jXgX0.E.Y.Y.r.2X|.6XS.{.P.].G.{.] ` =XG.g ) I.U.U.` n Y B.ZXlXfXbX+X                          ",
"                            mXgXP.G ` cX~.q.K I <.6X^.6X~.J L I.{.{.P.Z G G g F I.[ Z b *.x B.ZXlXaX_.tX                          ",
"                            mX$XjXq.1.0.-XcX&X~.Y.<X!.,X,Xy.u I A [ [ ' I.I.' ' P g g *.xXpXlXlX0X~ k.M.                          ",
"                              0XgXW.t.t.W.(.!.,X6X/.,Xi.8.D |.pX_ r y t S S P.rX_ Q XXxX|./ / ^ M.XXJ.                            ",
"                            e 0 N.K.(.Q.Q.i.,X5X!./.y.V p H.nXR.D.N { { hXrX'.uX/ W #XW h H i g ~ j.a.                            ",
"                              , 8 / A.3.3.^././.t.,.V p i bXoX+.&.r.hXhX*X[.'.F ,.&.oX.XC p C w.0.% >                             ",
"                              2 4 1 ^ ! Q H 3.S.3.*.3.A.@X~.e.6.2.H.hX%X5X5XK.D 8.y.Y.Y.6.C ) 0.K s .                             ",
"                              6 f d 1 9 b.h.A.A.d.A.L.dX].hXjX&X`.U.w.i.,X!.W.e.9.9.t.9.9.1.W.U.K A.                              ",
"                                6 3 < 1 2 0 ( h.A.H N pX$XW.i.1.<.9.Q.Q./.,Xt.D w.u.t.U.e.u.w.0.H                                 ",
"                                    7 3 3 4 ; 7 R n A..XgXW.i.Q././.;XQ.t.u.9.D J 6.,.N d s d :                                   ",
"                                      e q 8 3 , + : 3 n 4.q.Q.vXQ.u.t.u.q.5.5.n b z % @ + :                                       ",
"                                            w 0 8 1 @ O , z 4.^.(.q.5.F.N % O X + + + 6                                           ",
"                                                  o.w w q 2 2 5 @ < < ; + . . .                                                   ",
"                                                                                                                                  ",
"                                                                                                                                  ",
"                                                                                                                                  ",
"                                                                                                                                  ",
"                                                                                                                                  ",
"                                                                                                                                  ",
"                                                                                                                                  ",
"                                                                                                                                  ",
"                                                                                                                                  ",
"                                                                                                                                  ",
"                                                                                                                                  ",
"                                                                                                                                  ",
"                                                                                                                                  ",
"                                                                                                                                  ",
"                                                                                                                                  ",
"                                                                                                                                  ",
"                                                                                                                                  "
};
