/* XPM */
static char *_1712829579[] = {
/* columns rows colors chars-per-pixel */
"65 65 246 2 ",
"   c #0B0503",
".  c #0A0603",
"X  c #160804",
"o  c #140B05",
"O  c #1C0D06",
"+  c #1B130A",
"@  c #1D1409",
"#  c #390704",
"$  c #27130A",
"%  c #24190E",
"&  c #381A09",
"*  c #261C11",
"=  c #291D12",
"-  c #38220B",
";  c #272015",
":  c #2B2116",
">  c #2D2519",
",  c #34261B",
"<  c #382719",
"1  c #382D22",
"2  c #3C3225",
"3  c #4A1009",
"4  c #45250A",
"5  c #512E0E",
"6  c #482B15",
"7  c #432B1D",
"8  c #592A16",
"9  c #48331D",
"0  c #57351A",
"q  c #672619",
"w  c #68361E",
"e  c #64391E",
"r  c #443224",
"t  c #4B3827",
"y  c #583A27",
"u  c #52392D",
"i  c #663C24",
"p  c #6C3B23",
"a  c #6A3825",
"s  c #713D26",
"d  c #723129",
"f  c #773B2B",
"g  c #5A432C",
"h  c #5A4634",
"j  c #64462A",
"k  c #6C442A",
"l  c #72442B",
"z  c #79452D",
"x  c #734A2E",
"c  c #644D33",
"v  c #694835",
"b  c #744B33",
"n  c #7A4C35",
"m  c #695238",
"M  c #6B543B",
"N  c #7C533A",
"B  c #785438",
"V  c #745A3D",
"C  c #736C3B",
"Z  c #6B5845",
"A  c #775B46",
"S  c #705F53",
"D  c #786147",
"F  c #7A644C",
"G  c #7B6655",
"H  c #884A39",
"J  c #895F36",
"K  c #875439",
"L  c #82553C",
"P  c #85593D",
"I  c #91593B",
"U  c #996A27",
"Y  c #956829",
"T  c #8A6036",
"R  c #84613E",
"E  c #8D643B",
"W  c #90663E",
"Q  c #92683F",
"!  c #923F41",
"~  c #8B4940",
"^  c #855942",
"/  c #8C5C43",
"(  c #885847",
")  c #975248",
"_  c #965A48",
"`  c #A35D52",
"'  c #8C6244",
"]  c #896649",
"[  c #946B42",
"{  c #986F45",
"}  c #94644C",
"|  c #966849",
" . c #997146",
".. c #967349",
"X. c #9D734A",
"o. c #836D54",
"O. c #896C5A",
"+. c #956853",
"@. c #9D6B54",
"#. c #8A7057",
"$. c #85715A",
"%. c #8B745C",
"&. c #9B7653",
"*. c #92745D",
"=. c #9B785A",
"-. c #A1774D",
";. c #A2794E",
":. c #A66756",
">. c #A36B55",
",. c #A96956",
"<. c #AC6D5B",
"1. c #B16C5E",
"2. c #A17353",
"3. c #A67C52",
"4. c #A87E54",
"5. c #A3735B",
"6. c #AC7059",
"7. c #AC735C",
"8. c #A67B59",
"9. c #AC7B5D",
"0. c #8A7561",
"q. c #897866",
"w. c #8C7B6E",
"e. c #937A64",
"r. c #997E65",
"t. c #967C69",
"y. c #A77865",
"u. c #AE7B65",
"i. c #B47564",
"p. c #B37B64",
"a. c #B77967",
"s. c #BC7D6D",
"d. c #C17A6C",
"f. c #C57E72",
"g. c #968142",
"h. c #B58947",
"j. c #A4815C",
"k. c #AB835C",
"l. c #95846E",
"z. c #9C836C",
"x. c #978574",
"c. c #9D8B7B",
"v. c #A98568",
"b. c #B48668",
"n. c #BA846D",
"m. c #A38B74",
"M. c #A88974",
"N. c #A38D7A",
"B. c #BC8473",
"V. c #B48875",
"C. c #BD8B75",
"Z. c #BA8C7B",
"A. c #AF9072",
"S. c #A3917D",
"D. c #A9927D",
"F. c #B79579",
"G. c #C8994D",
"H. c #D3A85C",
"J. c #C0866E",
"K. c #C38375",
"L. c #C28C75",
"P. c #C88878",
"I. c #CC8D7A",
"U. c #D28F7D",
"Y. c #C4927B",
"T. c #CC927D",
"R. c #C5987B",
"E. c #D4AC66",
"W. c #A49382",
"Q. c #AC9583",
"!. c #AB9887",
"~. c #A99688",
"^. c #AC9B8B",
"/. c #B79B86",
"(. c #B39D8B",
"). c #B29F91",
"_. c #B9A18A",
"`. c #AFA190",
"'. c #B4A393",
"]. c #BAA494",
"[. c #B7A798",
"{. c #BCAB9B",
"}. c #BDADA0",
"|. c #BFB1A0",
" X c #CD9482",
".X c #CC9A84",
"XX c #C49988",
"oX c #D49583",
"OX c #D89886",
"+X c #D49C8A",
"@X c #DA9D8B",
"#X c #E19E8E",
"$X c #C5A389",
"%X c #DBA18D",
"&X c #D8A38C",
"*X c #C8A393",
"=X c #C2AE9D",
"-X c #DBA493",
";X c #DAAA99",
":X c #C5B39E",
">X c #E0A08D",
",X c #E3AA94",
"<X c #E5A997",
"1X c #E4AC9B",
"2X c #E3B19D",
"3X c #EBB29D",
"4X c #C3AEA1",
"5X c #CEAEA3",
"6X c #C4B2A3",
"7X c #C8B6A8",
"8X c #C9B7A9",
"9X c #CCBBAC",
"0X c #D1BCAB",
"qX c #CEBDB1",
"wX c #D3BEB2",
"eX c #E2AFA0",
"rX c #E8B7A5",
"tX c #ECB5A4",
"yX c #EEBBAB",
"uX c #F0B7A5",
"iX c #F2BDAB",
"pX c #D4C3B4",
"aX c #D8C8B7",
"sX c #D5C5B9",
"dX c #D9C6BA",
"fX c #D6C9B8",
"gX c #DCCBBB",
"hX c #F3C1AF",
"jX c #E3CDBC",
"kX c #F4C4B3",
"lX c #F7C7B5",
"zX c #F6CBBB",
"xX c #FBCBBB",
"cX c #DECDC1",
"vX c #DFD1C5",
"bX c #E1CEC2",
"nX c #FBCFC0",
"mX c #E4D3C5",
"MX c #E6D4CA",
"NX c #E8D7CA",
"BX c #EADACC",
"VX c #FBD3C5",
"CX c #FDD8CB",
"ZX c #EDDDD1",
"AX c #FADED2",
"SX c #F2E3D7",
/* pixels */
"3.3.3.3.3.4.3.3.3.4.3.3.3.4.;.4.4.;.4.4.4.4.3.3.3.4.4.4.4.4.;.4.4.;.;.4.4.3.3.3.3.3.3.3.3.4.3.3.3.j.4.4.4.3.4.4.3.3.;.j.;.3.3.3.4.",
"3.3.3.3.3.3.3.4.4.3.4.4.j.4.4.4.4.4.4.4.4.4.3.3.8.8.8.4.j.3.4.4.4.4.4.4.4.4.4.4.3.4.4.4.3.3.3.3.3.3.;.4.3.3.3.4.4.4.4.j.;.h.3.3.3.",
"3.3.3.3.3.3.3.3.3.3.3.3.4.4.4.4.3.j.4.3.4.j.4.h.3.j.4.3.3.3.3.3.4.;.4.4.3.3.3.3.4.3.4.4.;.2.;.;.;.;.;.;.;.;.;.;.&.;.;.;.;.3.3.3.3.",
";.3.;.3.3.;.3.3.;.3.;.3.;.;.;.;.;.;.;.;.-.-.-.-.-.-.-.&.-.X.-.;.;.;.;.;.;.;.;.;.-.3.4.g. .X.3.3.3.3.;.;.;.;.;.2.;.;.-.-.-.-.-...-.",
"E E E E E E E E W T W W W W E W E E W E W E E E W W E E E [ E E E E E C B g g h c c m c c c V N E E E E E E J E R T E E T T T R E ",
"X.;.-.-.-.;.-.-.-.-.-.-.-.-.-.-.;.;.;.3.;.;.;.-.;.;.;.;.3.;.-.3.&...A t > + o + % : : % % , g c V ] ..&.&.3.3.3.3.3.3.;.3.3.3.3.-.",
"3.3.4.3.4.4.4.4.4.4.4.4.4.j.4.4.4.4.3.4.3.3.4.4.;.h.3.4.3.3.4.3.] r > * + . o o o o % % * % = * > 2 m ..3.3.3.3.3.4.4.4.3.3.3.3.4.",
"3.3.3.4.3.3.3.4.j.;.4.4.;.4.;.;.3.;.3.3.;.3.;.-.;.;.&.-.-.-.X.A 2 > o o + o . o @ @ O % * > = = * 1 h A -.3.3.-.;.3.3.3.3.3.3.3.3.",
"-.;.;.-.-.3.3.3.;.3.3.3.3.3.3.3.3.3.3.3.3.3.4.4.4.4.;.4.j.3.B > > % + .   o   o O % % % * > 1 > * > > h 3.;.3.3.3.3.;.3.3.3.3.3.4.",
"3.3.4.3.3.3.3.3.4.3.3.3.h.3.3.3.4.4.4.4.4.4.4.j.4.4.4.4.;.[ = o . o $ @ X X X o o + * < , : 1 = > > * g ..3.3.3.;.3.3.3.;.3.;.;.;.",
"4.4.4.9.4.4.4.4.4.;.3.3.3.3.3.4.h.3.;.4.3.3.3.3.;.4.;.4.j.9 o .   O - $ $ $ X o O * r r r u 2 1 > * * 1 m -.;.;.;.;.;.;.;.;.;.3.-.",
"[ { { [ { [ { { Q -.Q -.{ { { {  . .Q  ... . . . . .X.X.R *   . O 4 4 5 & & & O X , v u r y r < > * * ; h ]  .{  . . .X.X.{ X.X.X.",
"[ [ [ [ [ [ [ [ { { { { { { { { Q Q  .Q [ [ Q Q { Q Q { 9 o .   6 i z l y 0 8 6 & r ( ( Z Z v 7 > : + + > B [ [ E [ W W W E W E E ",
"4.4.4.4.4.3.4.4.3.3.3.4.4.4.3.3.4.4.k.4.4.h.k.k.j.4.4.-.: o o y P } } } _ :.y.u.s./.XX/.s._ A v r , , + + c 3.j.4.4.4.4.;.4.3.4.4.",
"3.3.3.3.3.3.3.3.3.4.4.3.4.4.3.4.3.j.3.3.3.4.j.4.4.j.4.R O o g ^ @.:.@.5.p.y.p.u.i.s.).5X*XXXB.5.B < > > o r -.;.3.3.3.;.3.;.3.;.3.",
"3.3.3.3.4.4.4.3.4.3.3.4.3.3.4.3.3.3.3.3.3.3.;.4.;.3.3.g . 7 m y y j n _ >.<.1.} v r 7 u S O.V.L.5.2 * * % 2 X.3.;.3.;.;.3.3.3.3.3.",
"3.3.3.3.3.4.;.4.3.3.3.3.3.3.;.;.4.;.;.;.;.;.;.;.&.;.;.r . y y 6 - & & i _ >.7.N 7 9 y v A +.O.v.b.v > * * 1 &.3.3.3.3.3.3.3.;.3.4.",
"3.3.3.;.;.j.;.4.3.3.3.3.3.3.4.j.4.4.4.4.4.4.4.4.3.h.3.t o g x x x k 0 k L :.7./ ( ( >.y.5.+.y.y.C.@.- % * g ;.;.-.;.-.-.;.-.-.;.-.",
"2.3.3.2.4.4.4.;.&.;.3.3.;.;.;.;.;.4.;.;.;.4.;.4.j.;.;.V * B x P } } x w n y.p.} K ^ <.V.s.=.=.p.Y.C.y % = c X.;.;.;.;.3.;.2.-.-.-.",
"Q Q [ [ Q Q Q Q [ [ [ [ [ Q [ [ Q Q Q { { Q { Q Q { Q B 7 V x x k A n 0 H L.L.| a a u i A } } u.R.XX( $ % c [ [ [ [ [ [ [ [ [ [ [ ",
";.4.4.;.4.4.4.;.4.3.3.3.4.4.4.4.3.4.4.4.4.4.4.3.3.j.3.' g x 0 0 %   7 8 K T.T.y.i r = o u v @.L.&X%Xv.= = m 3.3.4.j.4.4.3.3.4.3.4.",
"4.;.4.4.;.4.4.4.3.3.4.3.4.3.3.3.3.3.3.;.;.;.;.-.;.&.-.R c n 0 0 6 y b k I oXOXJ.*.f u v +.n. X<X3X,XY.< , y 3.2.;.;.;.;.3.3.3.3.3.",
";.;.;.4.;.4.;.;.3.3.3.3.3.3.3.3.3.3.;.4.4.3.4.3.3.3.4.[ B N n n L L ( n _ @XOXP..Xy.y.B.U.@X<X3X3X,XL.< r r ] 3.4.3.3.3.3.3.3.3.3.",
";.4.;.4.;.;.4.4.3.4.4.4.4.4.4.4.4.4.4.4.4.4.3.4.4.4.4.&.' [ >.9.7.>.} n _ <XOX X-X;XP.P.#X3XuXuX,X,XI.0 y i ..3.4.;.4.;.;.3.3.3.3.",
"4.4.4.4.4.4.;.;.4.;.4.;.3.3.3.3.3.3.3.3.4.;.4.;.4.4.4.;.] I @.6.p.7.I H >.1X#XU.oX@XoXU.U.OX#X#X#X%XXXi H I ;.;.;.;.;.;.;.;.;.3.3.",
"4.;.4.;.;.4.4.4.4.4.;.k.4.4.4.3.3.4.3.3.4.;.;.4.4.;.4.;.E K } ,.7.:.n I n.-X<XP.s.f.f.P.U.f.f.oXoX+X+Xb i.3.3.3.;.;.3.;.3.3.;.3.3.",
"-.;.-.-.;.-.;.;.;.;.;.;.;.;.-.-.;.-.-.3.-.;.;.;.;.;.;.-./ L / :.:._ l I i.K.@XP.:.1.d.f.f.f.f.f.I.oX.X+.T.4.;.;.;.-.;.;.;.-.3.;.;.",
"T J J J T J T T J T T T T I J Y J J J J T T T T E T T T J H K _ ` K s H _ @.<.s.:.1.i.s.f.f.f.oXK. XR.I.9.W E E W W E E W W W Y E ",
"X.-.X.X.X.X. . .-.-.-.-.-.{ -.{ -.X. .-.X.X.-.X.X.X.-.-.Q H H / ) f w a p z 8 _ a.:.1.a.s.f.K.K.Z.P..X&X2.{ [  .{ [ { { { [ [ [ W ",
"4.;.4.4.4.4.4.4.4.;.4.4.3.3.4.4.4.4.4.4.4.3.4.;.h.H.E.H.G.-.J K K a a a a a ( s.@Xa.:.1.i.f.f.K.B.C.R.C.4.3.4.4.4.3.3.4.3.4.4.3.4.",
"3.4.4.4.;.4.4.4.;.4.4.4.4.3.3.3.3.3.3.3.;.;.;.-.U G.H.G.H.E.E.H.K w l s f +.s. X+Xs.:.1.i.s.K.B.B.L.v.v.3.-.3.3.3.-.3.3.3.3.3.3.3.",
";.;.;.;.;.;.;.4.4.;.;.4.3.3.3.3.3.3.3.3.;.4.4.;.Y U h.g.C g.G.h.z w a s _ @.a.s.B.f.1.` a.s.B.K.C.Z.v.3.3.3.3.3.3.3.3.3.3.4.4.3.4.",
"3.3.3.3.;.;.;.4.3.h.3.k.j.3.3.4.C.R.R.b.3.3.j.8.R.&XrXrXl.C Y H w p p q w d H ,.i.s.s.:.i.a.s.Z.Z.Z.8.v.j.g.4.;.4.3.;.4.;.4.;.4.3.",
"4.4.4.4.4.4.4.3.3.3.;.;.;.b.R.2XkXxXxXuXv.h.C.rXzXzXhX2X.Xj.N x w w 8 # # 3 3 q ~ _ i.i.s.s.s.B.B.M./.0Xk.k.;.;.;.;.;.;.;.;.;.;.3.",
"-.-.-.-.;.;.-.;.-.-.;.-.b.,XlXzXxXhX3XU.n.R.yXzXVXzX%X>.[ -.[ x s 8 4 3 3 d ! ! H ( 7.p.s.s.s.B.V.+.^.pX:Xg.j.j.4.;.-.-.-.-.-.-.X.",
"[ [ [ Q [ [ [ Q Q [ Q Q 6.@XiXhX3XT.6._ OX3XhXVXzX$X) K | [ E K l w w w q q ! ) ,.6.<.i.p.a.n.B.5.Z _.aXjXS.`.fXaX_.Q T T T T T E ",
"4.3.4.4.4.4.3.4.3.4.3.-.>.I.,X<Xb. .| d.oX<XyXkXT.H I f.j.j.X.B z p w p d H H ,.<.6.i.i.i.i.s.B.v S {.aXjX6XS.gXjXjXpXb.4.;.h.&.;.",
";.3.-.-.;.;.-.;.-.-.;.@.7.T.%XOXn.;.J.>X-XrXyX XH ` K.P.j.j.R j x z s w f H I ` 1.6.p.s.p.u.b.5.t t.pXjXaX7XS.gXmXfXpXpX0X$Xb.k.4.",
"3.;.3.3.;.4.;.;.;.3.;.-.a.T.-XOXp.k.-X2XyXnXtX<.+XuX,XB.h.&.m 0 e x s s f H ` ,.<.,.<.s.b.p.u.A A (.gXgXaX6Xc.gXmXfX7X7XgXmXaXaXgX",
";.3.3.3.;.4.4.4.4.3.4.>.y.Y.&XT.4.R.-XrXkXkXOX-XuXkXyX-Xb.C c 0 4 k s f f H ) 1.1.7.<.y.p.u.+.F W.{.gXaXaX|.D.jXmXpX[.|.9XaXgXjXBX",
"-.3.-.-.-.-.-.3.3.3.3.X.2.L.oXP.n.+X<XrXkXeX,XkXnXnXiX-XY.D j 9 4 5 k k a A ~ ` a.1.i.u.u.+.G c.{.pXpXaXaX!.|.jXBXfX{.[.|.pXjXjXMX",
";.3.3.3.3.3.3.3.j.;.3.>.7.K.T.d.T.%X;XyXyX@XkXxXCXVX;XB.C.V j 0 6 % 6 l a f ~ ` 1.1.7.<.] $.W.=XpXaXaXpXsXl.8XBXmXfX`.D.|.8XaXBXbX",
"Q { [ [ [ [ [ [ Q { Q -.b.I.U.T.%X;XrXiX-XeXkXzXCXkXp.<.8.D g 9 4 -   < f f A ) @.:.} v M W.{.0XaXjXpXpXaXq.8XNXmX:XA.S.6XfXgXgXwX",
"-.-.-.-.-.-.-.-.;.;.-.6.J.%X,X%X<XrXiX1X-XyXyXkXxX1XyXVXrX%.m 6 - - O   $ a ! ) ~ y & h c.].pXpXaXpXpX9XpXl.pXBXBX|.l.F.|.gXmXjXwX",
"3.3.3.3.3.3.3.3.3.3.3.p.T.@X@X<XrXuXuX@XiXiXkXlXuX3XVXVXVX_.l.D t - %   . o * $ o X 1 w.{.8XpXgXaXpXpXjX}.0.cXmXcX/.r.Q.4XaXBXsX4X",
"4.3.4.3.3.3.4.3.4.;.4.6.K.U.>X3XuXiXuXuXiXkXlXkX#XlXCXCXxX$X!.S.G m y 1 @ o o + O $ Z ).9XdXaXsXaXaXaXfXc.W.gXbXcXQ.t.Q.4XfXbXpX4X",
"3.3.4.4.3.3.3.4.3.k.3.2.9.I.<XuXuXuXuXiXlXxXxX-X<XVXAXAXkX*.l.D.S.%.D m c m G G S G ].8XdXqXpXgXfXfXfXpX0.'.bXmXsXx.e./.qXcXdX].*X",
";.-.-.3.-.3.;.3.3.3.j.3.2.L.tX3XtXtXuXlXxXxXxX<XlXVXAXAX*XG %.x.S.S.c.c.~.[.6X|.6X9X6X6X9XqXqXpXgXjXgX{.G 9XmXZXwXe.t.Q.8XwXwX=X].",
"4.4.3.4.j.h.3.3.3.3.4.4.-.p.,X<X1X<XuXxXxXlXxXlXxXVXCXVXv.M o.%.l.x.W.^.'.[.`.'.|.8X{.}.qX|.|.qXgXgXpX^.$.qXMXMX7Xq.t.(.0XdXdX(.D.",
";.3.;.3.;.;.;.3.3.3.;.j.3.>.L..X+X+X1XlXkXlXxXxXVXCXCXlX#.m D %.$.l.l.c.x.W.W.^.'.!.^.[.}.|.qXsXfXfX9Xx.W.qXMXMX8XO.z./.8XwXdX).z.",
"W W W W W W T W E E E W W | @.u.n.C.T.-X1XtXlXVXVXCXxXhX%.j m o.G $.0.q.q.l.W.W.W.W.`.}.}.qXvXqXvX|.pXw.}.vXZXMX6X$.N.Q.{.8XwX*XM.",
"-.;.;.;.;.4.;.;.3.3.&.3.3.&.| } } >.5.n.Y.-XyXCXVXzXkXtXv.c c F o.o.%.$.$.0.x.x.c.^.}.}.|.|.}.}.{.|.|.G qXMXMXvX}.G Q.^.=X7X5XQ.r.",
";.4.4.;.4.4.4.4.4.;.;.4.3.3.| } ' } I @.5.L.2XkXkXyXyXyXXXc c M o.o.o.#.O.q.w.t.W.^.^.`.[.`.[.`.qXcXx.W.vXZXMXvX_.%.D./.].{.8XQ.m.",
";.4.;.4.4.;.;.4.4.4.4.;.3.3.X.' / ' ' / } >.B.+X1X5XeX2XXXA c g F %.l.*.w.w.t.N.W.c.~.[.`.~.W.`.cXW.w.[.vXSXSXMX^.r.D.(.=X=X5X/.m.",
"-.;.;.;.;.;.4.3.;.4.4.4.4.3.4.' ' / ^ / L / / 5. XXX+X.X*XM.V j m o.*.z.t.y.t.M.N.N.W.c.W.S W.`.W.W.W.qXMXZXZXMX(.*.m.Q.].].(.D.*.",
"4.4.4.4.4.4.;.4.;.4.3.4.;.&.V 0 L P P K L ^ L / @.V.(.XX;X/.Q.Z c D m m G q.t.0.0.q.G Z S W.G S G ~.}.cXZXZXZXZX'.*.m.(._.(.]./.e.",
";.;.;.;.4.;.;.;.4.;.3.3.;.B 5 4 e n K B N L N ^ _ y.Q.*X;XY.V.Q.m A D c 9 9 g m F Z S w.c.w.x.l.w.^.8XwXBXMXZXZX{.z.z.D.D.D._.].M.",
"-.-.-.-.-.X.-.-.X.-.X.3.=.g 5 5 4 l x n x x n L +.y.V.XXXXZ.e./.x.F $.G D h 9 2 G l.!.7XsXsX[.q.N.{.9XsXBXmXBXBX:X*.m.D.m.D.(.(.Q.",
"W W W E T W W W W W W v._.D 0 5 4 0 k x k k k b ( *.y.Q.Q.5.*.D.pXD.c.!.`.`.l.h g G W.4XsXpXW.G ^.qXsXsXvXMXBXBXpXr.z.z.z.D.Q.Q.!.",
"3.;.4.4.;.4.;.4.4.4.k.=X{._.m 0 - 4 p k k e w k Z +.5.y.Z.( O.M.8XpX^.'.pXfX8X`.Z M 0.!.|.qXl.0.'.qXcXcXcXMXAXZXpXz.z.z.m.r.Q.Q._.",
";.;.4.4.4.;.4.4.3.3.k.{.6X6X0.0 4 & e p e e e e f ( t.s.Y.b e.D.sXgX|.[.|.fXvXfX'.S F x.`.(.o.0.{.qXsXcXMXmXSXZXgXz.z.z.t.z.Q.~.].",
"4.4.4.;.4.;.4.;.j.3.3./.7X4X(.m 4 # e p e e e a n +.y.XXXXv y.9XsXfX8X[.pXpXcXsXcX~.$.w.W.e.o.m.8XdXdXbXBXmXSXBXjXm.z.z.v.z.D.Q._.",
";.;.;.;.-.;.;.4.4.4.j.j.D.{.=Xm.6 & e x e e a k ( y./.-X5X=X8XqXmXNXpX6X|.sXcXcXMXcXW.t.l.O.o.m.6XpXcXMXmXNXSXSXgXN.e.z.v.t.m.Q.Q.",
"4.4.4.4.4.4.4.;.4.;.4.o.=.r.Q.N.].Q.%.+.P / } +.M.Q.5XqX{.6X=XaXmXMXcX|.}.sXvXvXmXMX4Xt.e.#.%.D.6XwXdXMXMXZXSXBXaXD.z.=.z.=.r.Q.'.",
"3.3.;.4.4.;.4.;.4.3.;...=.&.v.=.j.j.A.A.A.4.k.v.R.F.m.A.A.A.A.F._.R._.F.A.F.F.R._.$XF.v.g.&.=.v.A.F.F.F._.$X$X$X$Xv.g.j.j...j.j.m."
};
