/* XPM */
static char *_1712233225[] = {
/* columns rows colors chars-per-pixel */
"65 65 238 2 ",
"   c None",
".  c #0C0503",
"X  c #0A0603",
"o  c #130B05",
"O  c #1C0D05",
"+  c #150805",
"@  c #1B130A",
"#  c #191108",
"$  c #23150B",
"%  c #23190D",
"&  c #2A1508",
"*  c #341A09",
"=  c #251C11",
"-  c #2A1D13",
";  c #30110B",
":  c #39240C",
">  c #2B2115",
",  c #2D241A",
"<  c #2A2519",
"1  c #32251B",
"2  c #332A1E",
"3  c #3B2517",
"4  c #382C21",
"5  c #3D352A",
"6  c #4E130D",
"7  c #47250B",
"8  c #442C1C",
"9  c #472915",
"0  c #542313",
"q  c #4A331D",
"w  c #56361D",
"e  c #66291A",
"r  c #63341C",
"t  c #69371F",
"y  c #482D21",
"u  c #473527",
"i  c #5B3D2C",
"p  c #593926",
"a  c #4D372C",
"s  c #6D3A23",
"d  c #663A24",
"f  c #733E2C",
"g  c #733C27",
"h  c #6E3029",
"j  c #5C462B",
"k  c #5B4737",
"l  c #66452B",
"z  c #74442C",
"x  c #744A2E",
"c  c #78452C",
"v  c #634D32",
"b  c #6C4B33",
"n  c #654737",
"m  c #744A32",
"M  c #7D4D34",
"N  c #774A37",
"B  c #6B553B",
"V  c #675136",
"C  c #7C543A",
"Z  c #775339",
"A  c #7C733D",
"S  c #6C5743",
"D  c #775C45",
"F  c #735E51",
"G  c #7A6347",
"H  c #7A6755",
"J  c #6A6F41",
"K  c #8A3C37",
"L  c #824D36",
"P  c #88483A",
"I  c #835135",
"U  c #82543C",
"Y  c #8A533D",
"T  c #86583D",
"R  c #88502B",
"E  c #9B6C2A",
"W  c #855A42",
"Q  c #8B5C43",
"!  c #8A5845",
"~  c #9A5C4C",
"^  c #965848",
"/  c #934F47",
"(  c #8D6245",
")  c #86634E",
"_  c #936145",
"`  c #93644B",
"'  c #9C674C",
"]  c #836D53",
"[  c #836E5C",
"{  c #8D6853",
"}  c #9C6C53",
"|  c #996955",
" . c #8C755D",
".. c #877259",
"X. c #98765A",
"o. c #A36452",
"O. c #A36C55",
"+. c #A96A56",
"@. c #AC6C5A",
"#. c #A86858",
"$. c #A4725B",
"%. c #AC735C",
"&. c #AA765C",
"*. c #B1735F",
"=. c #AD7151",
"-. c #8A7663",
";. c #8D7965",
":. c #8C7B6B",
">. c #857565",
",. c #947A64",
"<. c #937C6A",
"1. c #987A67",
"2. c #8E7D70",
"3. c #AA7A63",
"4. c #A87664",
"5. c #B37462",
"6. c #B37B64",
"7. c #B57D6A",
"8. c #BB7C6C",
"9. c #B87667",
"0. c #BD7F71",
"q. c #A45B51",
"w. c #C27C6C",
"e. c #C47E71",
"r. c #B08338",
"t. c #C3913F",
"y. c #B48F54",
"u. c #93816C",
"i. c #9D836D",
"p. c #958373",
"a. c #9C8572",
"s. c #9D8C7A",
"d. c #9E8A77",
"f. c #A2846E",
"g. c #A88168",
"h. c #B5816A",
"j. c #BA826C",
"k. c #BA896E",
"l. c #A38D7A",
"z. c #A48975",
"x. c #BD8473",
"c. c #BC8A74",
"v. c #B88977",
"b. c #AB927C",
"n. c #A1917D",
"m. c #BB927C",
"M. c #C59A59",
"N. c #D4AA5B",
"B. c #D3A853",
"V. c #C48375",
"C. c #C38C7B",
"Z. c #CB8C7B",
"A. c #C88676",
"S. c #C8937D",
"D. c #D1927E",
"F. c #C98873",
"G. c #D5AD65",
"H. c #E5BC6D",
"J. c #9D8E81",
"K. c #A48E81",
"L. c #A49483",
"P. c #AB9683",
"I. c #AA9986",
"U. c #AB9B8B",
"Y. c #A89789",
"T. c #B49D8B",
"R. c #B79784",
"E. c #B19E91",
"W. c #B5A08E",
"Q. c #B8A084",
"!. c #B4A393",
"~. c #BBA492",
"^. c #BCAB9C",
"/. c #B8A898",
"(. c #B4A696",
"). c #BEB0A2",
"_. c #CB9481",
"`. c #C79885",
"'. c #D39483",
"]. c #D49B85",
"[. c #D49D8A",
"{. c #DA9D8B",
"}. c #D99985",
"|. c #D29587",
" X c #DCA28E",
".X c #D6A18B",
"XX c #C6A898",
"oX c #DBA493",
"OX c #D9A999",
"+X c #CCAD99",
"@X c #E0A48E",
"#X c #E2A594",
"$X c #E3AA96",
"%X c #E3AD9C",
"&X c #E9AE99",
"*X c #EAB19C",
"=X c #E5B19E",
"-X c #F0B59F",
";X c #C4AFA1",
":X c #C4B3A3",
">X c #C9B5A5",
",X c #CCBBAC",
"<X c #C7B5A9",
"1X c #D1BDAE",
"2X c #DEB6A6",
"3X c #CCBDB1",
"4X c #D3BEB2",
"5X c #ECB5A4",
"6X c #ECB9A6",
"7X c #ECBCAA",
"8X c #E5B4A3",
"9X c #F1BDAC",
"0X c #F0B8A6",
"qX c #E29F8E",
"wX c #D5C4B4",
"eX c #DAC7BA",
"rX c #DCCBBC",
"tX c #D7C7B7",
"yX c #DED1BE",
"uX c #F3C0AE",
"iX c #E5CBBB",
"pX c #F4C3B2",
"aX c #F6CABA",
"sX c #FACCBC",
"dX c #F8C7B6",
"fX c #E5CCB9",
"gX c #DDCCC1",
"hX c #E1CFC2",
"jX c #E3D3C4",
"kX c #E8D7CA",
"lX c #EBDACC",
"zX c #E5D5C9",
"xX c #FCD2C3",
"cX c #FCD6C9",
"vX c #FDD9CD",
"bX c #EDDCD1",
"nX c #FBD8CB",
"mX c #F5E1D5",
/* pixels */
"                                                                                                                                  ",
"                                                                                                                                  ",
"                                                                                                                                  ",
"                                                                                                                                  ",
"                                                                                                                                  ",
"                                                                                                                                  ",
"                                                                                                                                  ",
"                                                                                                                                  ",
"                                                                                                                                  ",
"                                                                        5 5                                                       ",
"                                                                  5 4 @ # @ > > > > > , u                                         ",
"                                                              5 4 < @ o o o o O % % % % > % > 2 a                                 ",
"                                                            5 < @ # # o X o # # o % % > % , % 1 5 5                               ",
"                                                          2 2 > o o o o o X # - % $ - < 2 , % > 2 2                               ",
"                                                        = # # o # # o o o o o O @ - > % 2 2 < < < <                               ",
"                                                      < O o X o & & O O o X # # - u 8 u 2 4 , > = = k                             ",
"                                                      @ o X . ; 7 * * ; & O + $ a a 3 p a 4 , - = < 4                             ",
"                                                      # X X & 9 p d 9 9 * ; O $ n S i i k y , - @ = < 5                           ",
"                                                    % o X $ d M I L z m M N n N { 1.) D C n 8 4 < @ # <                           ",
"                                                    # . @ b ! } ' O.$.%.9.7.x.`.XXOX`.v.} D b 3 2 2 @ @                           ",
"                                                    o $ b Q ` } ' #.%.4.5.4.$.X.4.K.E.`._.k.&.j > = > o                           ",
"                                                  @ X u b 9 3 q i U o.#.@.| d 3 ; y n F  .c.k.C , = % % 2                         ",
"                                                  @ X p p w 9 3 * w ! o.%.! p p f S ! { | { k.$.y = = > 4                         ",
"                                                  o o j m m m s t d M ' $.~ ! W | 4.4.| X.i.k.k.N @ = ,                           ",
"                                                    - Z x T _ | C t x +.j.' T C ~ 3.x.4.} 4.k.S.} - % >                           ",
"                                                    3 Z x m b Z C r c h.S.$.m r p i S ^ ` } k..XC.y $ >                           ",
"                                                    j b w y % + 3 d z k.].3.N 9 y . y i W 4.`. X.Xb % -                           ",
"                                                    v x r w 9 8 l l L F.}.C.4.N i a D 4._.[.*X$X XW > ,                           ",
"                                                    B U x x N C W I Y D. XZ.D.3.#.4.v._. X&X&X&X@X) 1 8 4                         ",
"                                                    C ( ' &.$.} ` L Q '.@XD.|.OXA.F._.%X-X-X-X&XoX{ 8 p i                         ",
"                                                    ( _ ' %.*.&.~ M ~ {.#XD.'.oX}.F.D.qXqX@X#XqXoX} p L C                         ",
"                                                    W T ' =.*.=.Y I 5.{.=X'.w.A.D.D.e.F.F.D.}.{.{.4.m =.                          ",
"                                                    T I ^ +.+.o.c Y 9.Z.oX'.*.5.w.e.e.Z.e.Z.Z.|.|.9.~ _.                          ",
"                                                    T R Y ' O.^ g I o.@.V.A.5.+.9.w.e.e.e.e.e._.|.R._.                            ",
"                                                    Z M I ^ ~ P g c c Y f ^ 5.o.@.9.9.e.Z.e.A._.`.[.|.                            ",
"                                                    g.I L Y Y g t t r g w Y C.9.#.5.9.e.e.A.V.V.C.[.                              ",
"                                            r.N.H.B.N.M.y.` T t s s s f o.R.|.e.#.#.5.9.V.V.x.x.m.m.                              ",
"                                            E r.N.t.M.N.G.G.T t g f M ~ 8._.'._.5.o.*.9.x.V.x.x.m.g.                              ",
"                                            R y.y.y.J A r.E c t g s / ~ 4.9.9.e.8.o.5.7.0.V.x.c.m.X.                              ",
"                            7X7XuX          OX=XuXuXb.J R R t t s 0 6 e h / #.5.0.#.5.9.8.x.x.c.g.Q.                              ",
"                      $X8X7XdXdXdX*X    7XfXaXsX7XOX_.  C x t r 0 ; ; 6 6 e K Y @.5.7.0.8.x.x.v.i.:XyX                            ",
"                    {.0XaXsXdX5X XF.Z.=XpXaXcXaX_.`       M t r 7 0 6 e K P K / q.9.8.0.8.8.v.4.u.).yX                            ",
"                  ' V.$XuX0X@XV.^ *.}.*XdXsXpXS.P /       C c t e t e e K q.q.@.@.5.5.7.7.j.x.S  .>XyXwXI.).yXyX                  ",
"                  _ *.}.&X{.O.  Q S.}.*XuXuXV.L / _.      C x z s s e K P q.@.@.&.6.5.5.7.x.$.y z.wXyXyXb.(.yXyXjXjX              ",
"                  } h.]. X'.    [.oX$X6X7XF.R ~ V._.    J l x x g t f P / o.@.@.*.j.7.6.h.h.Z k ~.tXyXyXW.(.jXyXyXtXtXjX          ",
"                  } j.[.oX_.    OX%X7XdX%X+.|.5X.Xc.    v w l x g g g P q.o.@.@.#.7.h.h.h.} n u.:XyXtXtXb.~.yXyXwX>X3XjXkXjXlXlX  ",
"                  O.8.[.{.C.  {.%X7XaXpX|.qX5X9XuXOX  G l w 9 l z t g P / #.@.@.@.&.6.h.3.D [ U.wXfXtXtXn.:XjXyX>X/.:X,XtXrXjXbXkX",
"                  } 6._.].0.x.{.OX7XpX%XqX9XdXxXuX$XS.A l w : 7 z s t L Y q.w.@.*.*.&.&.) [ Y.>XwXtXtXwXa.wXjXjXwX/./.:XtXjXjXjXjX",
"                  } h.F.Z.V.S. X8X7X7XqX9XxXcXxX%XZ.R.D v w : : w f f f / q.@.4.*.&.$.) ;.I.:XwXwXwXwXwXu.yXkXlX,XQ.T.;X<XrXkXjXiX",
"                  &.j.Z.F.S. X%X8X9XoX%X9XxXcXdX8.| &.C j q 9 : + y f h N / q.#.O.` B [ U.+XwXrXfXwXwX:X;.yXjXyX^.l.I.>XtXrXgXtX1X",
"                  *.S.{..X XOX=X9X%XoX9X9XhXxX5XoX6X`.] V q : : $ . 8 f f / ~ / l q F n.:XwXtXrXwXwXwX!.s.jXzXyXW.a.W.>XrXhXeX4XwX",
"                $.j.].@X X$X*XuX5XqX5X9X9XxX9X#XdXxXaXb.H j : * & . . ; y i 9 ; & k s.(.,XwXyXwXwXwXyXn.I.jXjXgXb.a.Q.<XjXkXwX<X1X",
"                &.h.D.].@X*X5X0X-X-X9X9XpXdX#XpXcXvXsX+XP.u.B j 9 # . + + + + O 3 :.^.3XwXtXtXwXwXtXyXu.U.jXgXtXf.f.T.>XhXkX4X;X>X",
"                  &.F.].&X0X0X9X0X0X9XsXxX%X#XsXvXvXaXz.l.P.u.G v j q - - , ; > F (.3X4XtXtXtXwXwXyX).u.<XjXgXwX<.1.~.<X4X4X<X;X>X",
"                  O.6.].0X0X0X5X0XdXdXsXdX|.9XcXmXmX8X..;.n.P.a. .H H -.U.(.Y.I.:X:X<XtXwXwXtXtXtXwXn.H tXlXjX:X1.a.~.<XeX4XT.XX~.",
"                    &.'.5X*X5X*X9XsXsXsXdX0XsXcXvXvXR.) ] u.s.n.L.U.!.^.).).:X,X).>X,X,X).wXtXgXyXwXs.u.jXzXjX^.-.f.R.1XgXhXT.~.R.",
"                    X.F.oXoX$X$XpXsXdXdXsXsXxXcXvXsXX.B ] ] u.p.s.L.U.(.U.!./.^.^.).^.^.wXwXwXgXtX).>.Y.gXkXgX!...z.~.1XeX4XT.b.i.",
"                    } &.C.`._.].*XpX9XpXsXsXxXvXvXuX] v G ..] ;.u.p.p.s.L.L.U.n.E.E.!.>XwX:XtXgX<X<X[ ;XrXkXgXW. .z.T.:X4XeXR.f.1.",
"                      ' } &.h.j.S. X%X5XsXcXvXvXsX6X{ v v H ] ]  .;.>.u.s.n.n.I.E.!.<X3X).wXwX).3X/.:.eXlXkXjXY.,.b.P.XX,X1XT.z.i.",
"                      ` ` ` ' } &.h.C.OXpXcXxXdXuX6Xg.v v G ] ] [  ... .u.u.n.I.E.(.<X^.).wX(.).).p.P.hXlXzXyXs. .R.T.^.>X;Xb.1.i.",
"                        ( ` ( _ _ } %.S.8XpX9X7X6X7X`.V v B ] ] { [ H >.u.u.J.L.Y.(.E.Y.).E.^.gX).:.).zXbXzXtXd.i.b.W.!.:X>Xb.f.f.",
"                        ( ( ( ( Q Q ` O.c.[.%X2X=X%X`.G V j G  .-.-.<.2.u.p.L.s.Y.(.E.E.J.J.3X3X2.J.3XkXmXbXgXd.i.b.W.XX>X;XP.f.,.",
"                          T ( T Q W ! Q Q 3.`.`.XX[.XXz.B j V ] ,.1.1.7.<.z.d.l.Y.J.J.2.>.E.E.2.K.).gXkXbXlXyXb.,.b.R./.XXT.z.X.,.",
"                      ] V d T ( T U T ! W Q } v.C.`.OXR.P.B n D B B [ 1.<.:.;.;.H F S 2.J.H F p.E.4XzXkXbXmXhXz. .z.T.~.T.~.P.1.1.",
"                      l 7 7 x I T Z C C U ( ' g.m.XXOXR.b.z.n S G v q q j S F S S G :.H H J.H Y.).3XgXkXbXbXzXY.<.a.b.P.P.T.~.f.,."
};
