/* XPM */
static char *_1712233224[] = {
/* columns rows colors chars-per-pixel */
"65 65 241 2 ",
"   c #110D0C",
".  c #281915",
"X  c #2D2928",
"o  c #70601B",
"O  c #6E7126",
"+  c #535353",
"@  c #78704F",
"#  c #BE0503",
"$  c #BC0806",
"%  c #AD1707",
"&  c #B01305",
"*  c #BB1514",
"=  c #BC1B16",
"-  c #9C2A0C",
";  c #9E2F10",
":  c #963710",
">  c #A62910",
",  c #AF3430",
"<  c #C00502",
"1  c #C71E18",
"2  c #CB241B",
"3  c #E8391E",
"4  c #E93B1E",
"5  c #D83E30",
"6  c #E53624",
"7  c #EC3525",
"8  c #E53B25",
"9  c #EA3A23",
"0  c #EA362A",
"q  c #E33D2C",
"w  c #EA3929",
"e  c #F03328",
"r  c #E23F31",
"t  c #E83F30",
"y  c #894B19",
"u  c #9B4B2F",
"i  c #9F4935",
"p  c #A2452B",
"a  c #A2482F",
"s  c #B8542E",
"d  c #A24C34",
"f  c #A34C37",
"g  c #A55238",
"h  c #A4533B",
"j  c #916F31",
"k  c #E44B17",
"l  c #E9441D",
"z  c #EA4C1C",
"x  c #EB5A16",
"c  c #EB541C",
"v  c #EC5B1A",
"b  c #F05E1C",
"n  c #EE6B16",
"m  c #ED6419",
"M  c #ED6818",
"N  c #F06B18",
"B  c #EE7214",
"V  c #EF7518",
"C  c #F37A14",
"Z  c #F17319",
"A  c #F17B19",
"S  c #CB4729",
"D  c #DD452A",
"F  c #DC4939",
"G  c #E54323",
"H  c #EA4221",
"J  c #E74A22",
"K  c #E3412E",
"L  c #F24A27",
"P  c #E54637",
"I  c #F74737",
"U  c #EF6223",
"Y  c #9E4245",
"T  c #9B4B4D",
"R  c #955252",
"E  c #AC4C4C",
"W  c #A55B45",
"Q  c #A55A46",
"!  c #A95C46",
"~  c #A95E4A",
"^  c #B55856",
"/  c #947258",
"(  c #A7604C",
")  c #A9614C",
"_  c #A46557",
"`  c #AA6452",
"'  c #AC6956",
"]  c #AB6D5B",
"[  c #B16856",
"{  c #946D71",
"}  c #847A7C",
"|  c #997374",
" . c #A97567",
".. c #B1756D",
"X. c #BB7476",
"o. c #DA5247",
"O. c #DD5B4B",
"+. c #E65547",
"@. c #E75F52",
"#. c #D06156",
"$. c #DE695A",
"%. c #E56750",
"&. c #E56759",
"*. c #D46D61",
"=. c #DD6D63",
"-. c #C8756C",
";. c #D97565",
":. c #D37574",
">. c #EB7467",
",. c #348D22",
"<. c #3C9429",
"1. c #5A8B2D",
"2. c #469B2F",
"3. c #578F30",
"4. c #469C31",
"5. c #499B31",
"6. c #4E9A39",
"7. c #569433",
"8. c #6C8430",
"9. c #4F9647",
"0. c #5FA150",
"q. c #76AA72",
"w. c #F5900F",
"e. c #F38515",
"r. c #F48C14",
"t. c #F48719",
"y. c #F59413",
"u. c #F69A13",
"i. c #F89915",
"p. c #F8A80E",
"a. c #FBB907",
"s. c #F8A612",
"d. c #FAB310",
"f. c #DB9E37",
"g. c #F4C71F",
"h. c #97936F",
"j. c #AD847B",
"k. c #B58F72",
"l. c #D58B79",
"z. c #E98779",
"x. c #F08A77",
"c. c #E9987C",
"v. c #F5CA53",
"b. c #DCC466",
"n. c #7E7D83",
"m. c #817D83",
"M. c #947E80",
"N. c #BE7E83",
"B. c #7B8085",
"V. c #828185",
"C. c #858589",
"Z. c #89868A",
"A. c #8B8C8D",
"S. c #908E92",
"D. c #97989B",
"F. c #92999E",
"G. c #B18C87",
"H. c #A59A96",
"J. c #AA9B97",
"K. c #A19098",
"L. c #B49B99",
"P. c #8BB38F",
"I. c #AEA19C",
"U. c #BAA594",
"Y. c #979BA2",
"T. c #919CA8",
"R. c #BC9FA4",
"E. c #9BB2A7",
"W. c #A5A8AA",
"Q. c #BBA5AC",
"!. c #B8ABA8",
"~. c #B2B2B2",
"^. c #B8B6B9",
"/. c #D19785",
"(. c #E99A89",
"). c #EC998F",
"_. c #D2A38D",
"`. c #CDAC98",
"'. c #D6AD96",
"]. c #D2AF99",
"[. c #CDB29C",
"{. c #D1B099",
"}. c #D4B399",
"|. c #EBA489",
" X c #FAA68A",
".X c #FCA58A",
"XX c #EBAA98",
"oX c #F2AB96",
"OX c #E8B49F",
"+X c #FDB396",
"@X c #F6B49A",
"#X c #C3ADAE",
"$X c #C7B6AA",
"%X c #DBB7A8",
"&X c #C4ADB1",
"*X c #CDBBB2",
"=X c #C7BCBA",
"-X c #D3BAB3",
";X c #E9ACA1",
":X c #E7B6A6",
">X c #F2B4A8",
",X c #F1B7B0",
"<X c #B9C1BC",
"1X c #C6C2BC",
"2X c #D5C5B8",
"3X c #EAC8B7",
"4X c #F7C7BE",
"5X c #AEB9C1",
"6X c #B3BEC6",
"7X c #BBBDC3",
"8X c #B9BFC8",
"9X c #C3BDC1",
"0X c #B0C3C5",
"qX c #B5C2C5",
"wX c #B9C1C5",
"eX c #B5C2CA",
"rX c #B9C2CA",
"tX c #BCC8CE",
"yX c #C7C7C7",
"uX c #CDD0CE",
"iX c #D4D3D3",
"pX c #D8D9D9",
"aX c #E4CEC1",
"sX c #F7C6C1",
"dX c #F6CCC6",
"fX c #E1D1C1",
"gX c #EED3C2",
"hX c #EED5D0",
"jX c #F6DBD7",
"kX c #EFE1DC",
"lX c #D6DDE0",
"zX c #D7E2E6",
"xX c #D9E4E6",
"cX c #E8EAEA",
"vX c #F7EAE6",
"bX c #F8F3ED",
"nX c #EEF1F0",
"mX c #F4F6F2",
"MX c #F8F7F4",
"NX c #FAFAF6",
"BX c #FCFDFA",
/* pixels */
"q q D K q D P q r D r q q P q q K q q q q D r q q q q q 8 q q K q D G D q D D q K q D K D K q q q K r q 8 r D K q r q q q q q r K ",
"7 7 7 U Z Z r.M 9 7 7 7 7 7 7 7 7 7 7 7 7 7 7 7 7 7 7 6 e 7 7 7 J r.e.7 v Z J 0 7 7 7 v t.9 7 7 7 7 7 7 7 7 m t.7 7 7 7 7 7 7 7 7 ",
"7 7 7 w z c l e.Z 7 7 7 7 7 7 7 7 e 7 0 7 7 7 7 7 7 7 7 7 7 7 7 w N i.9 e.l 7 7 e 7 0 m i.7 7 7 7 7 0 7 7 7 n w.9 7 7 7 7 7 7 7 7 ",
"7 7 7 7 C e.7 z s.z 7 7 7 7 7 7 7 7 7 7 7 7 7 7 7 7 0 7 7 e 3 7 w B y.H r.9 7 7 7 7 7 N i.4 4 e 7 7 7 7 e 9 n y.6 9 7 7 7 0 7 7 7 ",
"7 7 7 7 C e.7 4 r.B 7 4 l 9 7 H l l 7 6 w 9 H 7 7 l 7 9 l 7 7 7 7 n y.M A 7 e 7 8 G 7 m u.l l w 7 0 l H l 7 N y.z 4 7 7 7 7 7 7 7 ",
"7 7 7 7 C e.7 7 C e.l r.C A 4 u.y.r.M 7 x r.t.m L u.m B u.9 7 7 7 n p.u.c 7 7 x t.r.x m a.e.r.c 7 M e.r.d.z N a.C r.z 7 7 7 7 7 w ",
"7 7 7 7 C e.e 7 C e.r.n 3 u.x s.N m y.4 i.v z i.l y.m e.e.7 7 3 7 n p.y.b e 9 u.z x y.n p.9 x u.l u.z z a.z N p.9 M y.6 7 7 7 7 e ",
"7 7 7 7 C e.7 4 w.B p.c 4 w.B u.b v i.l s.x m i.4 t.k u.m 9 7 7 7 B y.l y.4 J d.c N y.n u.4 l p.m s.4 l p.z n y.9 c p.9 e 7 7 7 7 ",
"7 7 7 7 C e.7 J p.k p.c 9 w.B s.v m r.l p.C m z 9 e.z s.z e 9 7 7 B y.4 t.v J d.V M l m u.9 l p.v s.9 G d.z N w.9 z s.8 w 7 7 7 7 ",
"7 7 7 7 C r.9 e.C 3 e.Z 4 u.B p.v Z e.z p.B 9 w m N G s.z b b 7 7 n y.7 v Z z p.M 6 7 n p.l v p.n p.z z a.z n s.l M s.M c 9 7 7 7 ",
"9 7 w U y.y.e.N 4 0 l t.A Z x u.c c r.A m y.Z N Z 9 9 t.C A 9 w 9 m t.7 G e.A v y.N Z Z N A t.v c n e.t.y.e.Z V A t.v c w 8 7 7 0 ",
"8 0 0 8 G k 8 w 8 0 w 8 J 8 8 G q 0 G G 0 8 G G 0 8 6 8 J 8 q w 0 8 l 0 0 G 8 8 8 J G 8 q G l 0 0 8 G G 8 l w 8 G 8 0 0 0 0 0 w 0 ",
"&X&X&X!.#X#X&X&X&X#X#X#X&X&X#X&X#X#X&X&X#X#X&X#X&X&X&X&XQ.&X&X&X#X&X#X#X#X#X#X&X&X&X&X&X&X&X&X#X&X&X&X&X#X#X&X#X&X#X#X#X#X&X#X#X&X",
"tXtXtXtXtXtXtXtXtXtXtXtXtXtXtXtXtXtXtXtXtXtXtXtXtXtXtXtXtXtXtXtXtXtXtXtXtXtXtXtXtXtXtXtXtXtXtXtXtXtXtXtXtXtXtXtXtXtXtXtXtXtXtXtXtX",
"zXzXxXxXzXzXzXzXzXzXzXzXzXzXzXzXzXzXzXzXzXzXzXzXzXzXzXzXzXzXzXzXzXzXzXzXzXzXzXzXxXzXzXzXzXzXzXzXzXzXzXzXzXzXzXzXzXzXzXzXzXzXzXzXzX",
"zXzXxXxXxXxXxXxXxXxXxXxXxXxXxXxXxXxXxXxXxXxXxXxXxXxXzXzXxXxXxXxXxXxXxXxXzXxXxXxXxXxXxXxXxXxXxXxXxXxXxXxXxXxXxXxXxXzXxXxXxXxXxXzXzX",
"xXxXxXxXxXxXxXxXzXzXxXzXzXxXxXxXxXxXxXxXxXxXxXxXzXxXxXzXxXxXxXxXxXxXxXzXxXxXxXxXxXxXxXxXxXxXxXzXxXxXxXxXzXzXzXxXxXxXzXxXxXxXxXxXzX",
"6X6X6X6X6X6X6X6X6X6X8X8X6X6X6X6X6X6X6X6X6X6X6X6X6X6X8X6X6X6X6X6X6X6X6X6X6X6X6X6X6X6X6X6X6X6X6X6X6X6X6X6X6X6X6X6X6X6X6X6X6X6X6X6X6X",
"T.T.T.T.T.T.T.T.T.T.T.T.T.T.T.T.T.T.T.T.T.T.T.T.T.T.T.T.T.T.T.T.T.T.T.T.T.T.T.T.T.T.T.T.T.T.T.T.T.T.T.T.T.T.T.T.T.T.T.T.T.T.T.T.T.",
"K.K.K.K.K.K.K.K.K.K.K.K.K.K.K.K.K.K.K.K.K.K.K.D.K.K.K.K.K.K.K.K.K.K.K.K.K.K.K.D.K.K.K.K.K.K.K.K.K.K.K.D.K.K.K.K.K.K.K.K.K.K.K.K.K.",
"r r r r r r r r r r r r r K q q r r r r r r r r q r r r r r K q r r r r 0 r r r r r r r q K r r r r q P q r q r r r r r r r r r r ",
"7 7 7 7 0 7 7 7 7 7 7 7 7 7 7 7 7 7 7 7 7 7 7 7 7 7 7 7 7 7 7 7 7 7 7 7 7 7 7 7 0 0 7 7 7 7 7 7 7 7 7 7 7 7 7 7 7 7 7 7 7 7 7 7 7 ",
"7 7 7 7 7 7 7 7 7 7 7 7 7 7 7 7 7 7 7 7 7 7 7 7 7 7 7 7 7 7 7 7 7 7 7 7 7 7 7 7 7 7 7 7 7 7 7 7 7 7 7 7 e 7 7 7 7 7 7 7 7 7 7 7 7 ",
"7 7 7 7 7 7 7 7 7 7 7 7 7 7 7 7 7 7 e 7 7 7 7 7 7 7 7 7 7 7 e 7 7 7 7 7 7 7 7 7 7 7 7 7 7 7 7 7 7 7 7 7 7 7 7 7 7 7 7 7 7 7 7 7 7 ",
"7 7 7 7 7 7 0 7 7 7 7 7 7 7 7 w 7 7 7 7 7 7 w 7 7 7 7 7 7 7 7 w 7 7 7 7 7 7 7 7 w 7 7 w 7 7 7 7 7 7 7 7 7 7 7 7 7 7 7 7 w 7 7 w 7 ",
"7 7 7 7 7 7 7 7 7 7 7 7 7 7 w e 7 7 7 7 7 w 7 7 7 7 7 7 7 7 0 7 7 7 7 7 7 w 7 w 7 w 7 7 7 7 7 7 7 7 7 w 7 w 7 w 7 7 7 7 7 7 7 7 7 ",
"w 0 0 w w w w w w 7 w w w w w 7 w w 0 0 w w w w w 7 w w w w w w 0 7 7 7 7 7 w w w w w w 7 w w w w w 7 w 7 w w w 0 7 w w w 7 7 w 7 ",
";X4XsX4X4X4X4X4XdX4X4XdX4X4XdXsX4X4X4X4X4X4XsXsXdX4X4XdX4X4X4X4XsX4XdX4XdX4X4XdX4XsXsXsXdX4X4X4XdXsXsX4X4XdX4XsXsXsXsXsXdX4XsXdXsX",
"dXBXBXBXBXBXBXBXBXBXBXBXBXBXBXBXBXBXBXBXBXBXBXBXBXBXBXBXBXBXBXBXBXBXBXBXBXBXBXBXBXBXBXBXBXBXBXBXBXBXBXBXBXBXBXBXBXBXBXBXBXBXBXBXBX",
",XBXmXNXmXmXmXmXmXmXmXMXmXmXmXmXmXMXmXMXmXmXmXmXmXmXmXmXmXMXmXmXmXmXMXMXmXmXmXMXmXmXmXmXmXmXmXmXbXbXbXmXmXmXmXmXMXmXmXNXmXmXmXNXBX",
";XBX^.m.V.V.V.V.V.V.V.V.V.V.V.m.V.V.V.Z.C.Z.C.C.Z.C.C.C.C.C.C.C.C.C.C.C.C.C.C.C.C.C.C.C.C.C.C.C.| F [ Z.C.C.C.C.C.C.C.C.C.Z.D.mXBX",
").BXcXiXiXiXiXiXiXiXiXiXiXiXiXiXiXuXA.m.n.n.n.n.n.n.n.n.n.V.n.n.B.n.n.n.n.n.n.n.n.n.n.n.n.n.n.n.| q ^ n.n.n.n.n.n.n.n.n.n.m.D.NXNX",
"x.NXpXZ.A.| Z.A.A.A.A.A.A.A.Z.{ Z.A.m.m.n.n.n.n.n.n.m.m.q.S.W.C.n.n.n.n.n.n.n.n.n.n.n.B.C.B.m.n.{ q ^ n.B.n.n.B.B.V.B.m.n.n.~.BXbX",
">.NXlX{ T , , Y Y Y Y Y Y Y Y , , R m.m.n.n.n.n.n.n.m.Y.9XnXcX<XS.n.n.n.n.n.n.n.B.B.n.@ n.n.n.n.{ q ^ n.B.B.@ C.n.n.@ n.n.n.~.BXvX",
"@.vXcXY 2 $.;.=.=.=.=.=.=.=.=.;.o.* Z.D.F.F.T.F.T.Y.iXnXMXMXnXyX~.F.F.F.F.T.F.F.F.F.F.F.T.T.T.F.G.q [ T.F.F.Y.F.T.T.T.T.F.T.uXBXhX",
"+.vXmXY $.:X4X2XfXfX3X3X,XaXfX3XXX1 Q.eXeX8XeXeX8X8XK.+ + + + X . F.0XeXeXeXeXeXeXeXeXeXtX8X6XeXQ.0 /.rXeXeXeXeXtXeX8XeX8X8XxXBXsX",
"K jXNXE =.$.(.H.H.D.L.l.l.J.H.H.XX1 Q.eXeXeXeXeX8X5XX         . X B.eXeX6XeXeXeXeXeXeXeXeX^.~.L.G.5 -.!.6X8XeXeXeXeXeXeX6X8XcXBX,X",
"w dXmX#.$.c.:X$X$X*X*XXX(.*X$X$XXX1 Q.eXeXeXeXeX8X6X+ . '.|.c.|.|.^.eXeXeXeXeXeXeXeXeX^.J._ g g h h ~ ` W _ L.wXeXeXeXeXeXtXnXBX).",
"0 ,XMX^ &.c.OX$X$X!.$XXX(.$X!.!.;X1 Q.qX8XeXeXeX6X9X(./ |.c.|.l.(.7XeXeXeXeXeXeXeXeX^.G.] [ ] ] ] ` ) g p p i j.6XeXeXeXeXtXmXBX>.",
"e ;XBX:.&.l.XX!.!.!.$X(.(.$X!.$XoX1 Q.eXeXeXeXeXrX8X-X+X+X|.c.c.XX8XeXeXeXeXeXeXeXeXI.' ' ) W h d i p d i f h f G.eXeXeXeXtXBXMX>.",
"0 ).NX:.&.(.;X$X$X*X1XXX|.*X*X*X>X1 Q.qXeXeXeXeXeXeXrX>X+X+Xc.c.XX8XeXeXeXeXeXeXeX6X .) ) ! W ! ~ ) ) ` ` ` W ( W W.eXeXeXuXmXmX@.",
"7 x.MX:.&.$.'.I.J.J.$Xz.l.I.I.I.oX1 Q.eXeXrXeXeXeX8X8X:X+X+X X X%XeXeXeXeXtXeXeXeXW.i g h W ~ ) ` ~ W W W ` ' W g j.qXqXeXlXBXvXP ",
"e >.MX:.&.OX%X*X*X2X-X%X%X*X*X2XoX1 Q.eXeXeXeXeXeXeXeX^.oX+X+X|.9XeXeXeXeXeXeXeXeX..p p p p p a d W ) ' ] ] W W ]  .8XeX6XlXBXkX8 ",
"e @.bX:.$.!.H.H.H.H.H.H.H.H.H.I.;X1 Q.qXeXeXeXeX6XeXtX/.%.c.x.l.qXeXeX6X0XeXeXeXeXj.W ! ) ` ` ] ] ] ] ] W i ~ ] ` W 7XqX8XcXBXdX7 ",
"e +.vX:.$.gXgXgXgXgXgXgXgXgXgXgX|.2 !.tXeXeXeX8X<XE.h.s s F p O @ ! h.E.tXtXeXeXeXJ.` ` ' ' ) ) W g f a f ` ] ~ d  .eXeXeXcXBX,X3 ",
"e P kX:.1 +.O.O.O.O.z.&.O.O.O.O.D = ~.0XeXeX~.P.0.6.o > 3.8.8.5.O - 5.6.q.0XeXeXeX!.i d d g g g a p f ~ ] ] W d p K.eX8XeXnXBX;X3 ",
"7 t hXkX_ T T T T Y , E X.X.X.X.X.G.0XtX0XE.0.4.2.2.1.> 1.2.5.4.1.- 3.2.<.q.0X0XeXwX .( ( g d a d W ' ] ( f p p h ~.eXeXtXnXBX(.e ",
"0 w sXBXW.n.n.n.n.n.m.F.eX6XeXtXtXtXtX0XB.4.4.4.2.2.5.: o 2.5.2.3.- 3.2.<.,.q.0XeXeXG.g p p a ! ' ' W f p p p i ..8XeX8XtXmXBX>.e ",
"e 7 >XBX~.n.n.V.n.n.n.A.6XeXeXeXeXeX0Xq.2.2.4.4.2.4.4.o y 5.5.5.7.- 3.5.<.,.,.P.eXeX!.d d ( ~ ~ g d f h h g g ) L.qXeXeXuXmXmX=.7 ",
"7 w ).BX^.n.n.n.n.n.m.Z.6XeXeXeXeX0Xq.2.4.2.4.4.4.4.5.y % : : : - % O 5.4.,.,.9.0XeXqX..] ] ] ] ] ` ! f p i (  .~.qXeXeXuXBXvX@.7 ",
"7 7 (.NXiXn.n.n.n.n.n.B.5XeXeXeX^.-.8.5.4.4.2.4.5.2.5.y # # # # # $ o 6.4.,.,.,.P.qXrXJ.g h f f a p p g ~ ' `  .8XeXqXeXpXBXvXP 7 ",
"7 7 >.NXpXm.m.n.n.m.n.m.^.eXeX6X=XP s 7.2.4.2.2.5.2.7.y # # # # # # y 4.5.,.,.,.j 7XqX~.d d p d g ! ' ` ~ g i j.rXqXeXeXlXBXjXq 7 ",
"e 7 @.MXcXm.n.n.n.C.n.n.W.eXeXeX2Xc.G j 4.4.4.4.5.5.7.; < < # # # # - 4.4.,.o - * Q.8X6X .g ! ~ ~ Q f a d f g !.eXrXqXqXcXBXsXq e ",
"7 7 +.bXnXC.m.n.n.@ { n.W.eXeXrX@X+X>.K 8.4.4.4.2.2.1.% $ < < # # # & 1.6.o % S z.^.eXeXJ.h f f g h ! ) ! g ~ ^.eXeXqXqXcXBX>X7 7 ",
"7 7 P vXMXA.m.m.M.{ { n.W.rXeX-X+X+X+X%.U 6.q.B.4.4.o < # < # # # < # o 3.> &..X.X-XqX8X^.] ~ ~ W Q f f a g G.8XeX<X<XqXnXmX).7 7 ",
"7 7 t jXNXD.n.{ ^ m.n.n.F.wX1X>X+X+X+XoX%.U.0X~.6.O % < # # < # # < < % j c..X.X.X%XeXeX0Xj.` ` W g g h ) ' L.!.rXb.'.8XNXNX).7 7 ",
"7 7 0 dXNXW.C.| | n.n.n.S.8X-X+X+X+X+X+X-XrXeXeX/ % $ < # < < $ # # # # , oX.X.X.X X9XeXeXJ.d g W W W ( ~ ~ l.*.1Xg.v.<XmXbX>.4 7 ",
"7 7 7 ,XBX~.uX-X-XiXC.m.S.6X:X+X+X+X+X>X=XeXeXeXG.$ < $ # $ < < # # # # ^ ;X.X.X.X.X;X7X6X^.Q d f g d f d [ &.P f.g.g.v.bXbX%.9 7 ",
"7 7 7 ).BXyXiXhXpXhXC.n.Z.6X9X@X+X+X+X+X:X6XrXeXR.* < $ # < $ < < # # $ X.:X.X.X.X.X X=XeXqXG.] ( ( h d a F L t b d.a.v.MXbX+.7 e ",
"7 7 7 (.BXyX2X(.>.:.m.n.C.5XrX-X+X+X+X+X+XyX8XeXR.* < # < $ < < # # # $ L.=XoX.X.X.X.X;XqXeX!.i p d i W G.*.w 3 k a.a.v.MXjXP e 3 ",
"7 7 7 >.BXpX2Xx.I o.} n.B.5X6X6X:X+X+X+X@X-XeX8XN.< < < # # # < < < < < Q.eX-X.X.X.X.XoX9XeXeXL. .[ ..L.wX/.=.+.x a.a.v.NXdXG 0 e ",
"0 7 7 &.NXpXuXc.I F V.B.V.~.eXeX1X@X+X+X+X:XeX8XE < < $ < < < $ < < < , 7XeXqX;X X X.X X-XeXrXeX#XD /.eXrX$X[.;.x a.a.v.NX4Xw 7 3 ",
"7 7 7 +.bXkXyX|.I o.C.C.V.W.rX8XqX%X@X+X@X>X9X9X, = = = = = = = = = = E ^.7X7X=XXX X X X%X7XwX7X#XF :.qXqX`._.;.k a.a.v.bXXXw 7 e ",
"7 7 7 O.%X$X3X@XI o.k.k._.`.`.$X[.{.{.}.}.'.].&X_._._._._._._._._.]._.'.$X[.[.$X{.'.].'.'.[.[.[.[._.].$X[.%.K G k a.a.f.k.l.P 7 7 ",
"7 7 0 l.}.{.}.2Xl.l.h.k.k._._.}.{.{.{.{.{.{.{.{.`.{.{.{.{.{.{.{.{.`.}.`.{.{.{.}.`.}.{.`.{.{.{.{.{.{.{.{.{.O.G 4 S f.f.h.k.k.l.4 3 "
};
