/* XPM */
static char *_1712829580[] = {
/* columns rows colors chars-per-pixel */
"65 65 242 2 ",
"   c #110D0C",
".  c #281915",
"X  c #2D2928",
"o  c #70601B",
"O  c #6E7126",
"+  c #535353",
"@  c #78704F",
"#  c #BE0503",
"$  c #BC0806",
"%  c #AD1707",
"&  c #B01305",
"*  c #BB1514",
"=  c #BC1B16",
"-  c #9C2A0C",
";  c #9E2F10",
":  c #963710",
">  c #A2240A",
",  c #A62C1F",
"<  c #A92E1F",
"1  c #A9351D",
"2  c #A72D21",
"3  c #A92D21",
"4  c #AE332D",
"5  c #C00502",
"6  c #C71E18",
"7  c #E7391E",
"8  c #E93B1E",
"9  c #D03126",
"0  c #E63624",
"q  c #EC3525",
"w  c #E53B25",
"e  c #EA3A23",
"r  c #EA362A",
"t  c #E53A2A",
"y  c #EA3929",
"u  c #F03328",
"i  c #E23F31",
"p  c #E83F30",
"a  c #894B19",
"s  c #9B4B2F",
"d  c #9F4935",
"f  c #A2452B",
"g  c #A2482F",
"h  c #B8542E",
"j  c #A24C34",
"k  c #A34C37",
"l  c #A55238",
"z  c #A4533B",
"x  c #916F31",
"c  c #E44B17",
"v  c #E9441D",
"b  c #EA4C1C",
"n  c #EB5A16",
"m  c #EB541C",
"M  c #EB5C1A",
"N  c #F05E1C",
"B  c #EB6416",
"V  c #EE6B16",
"C  c #ED6419",
"Z  c #EE6C19",
"A  c #F06B18",
"S  c #EE7214",
"D  c #EF7518",
"F  c #F37A14",
"G  c #F17419",
"H  c #F17B19",
"J  c #D24828",
"K  c #DC4A3A",
"L  c #E54323",
"P  c #E74724",
"I  c #EA4221",
"U  c #F24A27",
"Y  c #E64738",
"T  c #F74737",
"R  c #EE6123",
"E  c #9E4245",
"W  c #9B4B4D",
"Q  c #955252",
"!  c #AC4C4C",
"~  c #A55B45",
"^  c #A55A46",
"/  c #A95C46",
"(  c #A95E4A",
")  c #B55856",
"_  c #947258",
"`  c #A7604C",
"'  c #A9614C",
"]  c #A46557",
"[  c #AA6452",
"{  c #AC6956",
"}  c #AB6D5B",
"|  c #B16856",
" . c #946D71",
".. c #847A7C",
"X. c #997374",
"o. c #A97567",
"O. c #B1756D",
"+. c #BB7476",
"@. c #DA5247",
"#. c #DD5B4B",
"$. c #E65547",
"%. c #E75F52",
"&. c #D06156",
"*. c #DE695A",
"=. c #E56750",
"-. c #E56759",
";. c #D46D61",
":. c #DD6D63",
">. c #C8756C",
",. c #D97565",
"<. c #D37574",
"1. c #EB7467",
"2. c #37881E",
"3. c #348D22",
"4. c #3C9429",
"5. c #5A8B2D",
"6. c #469B2F",
"7. c #578F30",
"8. c #469C31",
"9. c #499B31",
"0. c #4E9A39",
"q. c #569433",
"w. c #6C8430",
"e. c #4F9647",
"r. c #5FA150",
"t. c #76AA72",
"y. c #F28515",
"u. c #F38F11",
"i. c #F48C14",
"p. c #F38719",
"a. c #F59413",
"s. c #F69A13",
"d. c #F89915",
"f. c #F8A80E",
"g. c #FBB907",
"h. c #F8A612",
"j. c #FAB310",
"k. c #DB9E37",
"l. c #F4C71F",
"z. c #97936F",
"x. c #AD847B",
"c. c #B58F72",
"v. c #D58B79",
"b. c #E98779",
"n. c #F08A77",
"m. c #E9987C",
"M. c #F5CA53",
"N. c #DCC466",
"B. c #7E7D83",
"V. c #817D83",
"C. c #947E80",
"Z. c #BE7E83",
"A. c #7B8085",
"S. c #828185",
"D. c #858589",
"F. c #89868A",
"G. c #8B8C8D",
"H. c #908E92",
"J. c #97989B",
"K. c #92999E",
"L. c #B18C87",
"P. c #A59A96",
"I. c #AA9B97",
"U. c #A19098",
"Y. c #B49B99",
"T. c #8BB38F",
"R. c #AEA19C",
"E. c #BAA594",
"W. c #979BA2",
"Q. c #919CA8",
"!. c #BC9FA4",
"~. c #9BB2A7",
"^. c #A5A8AA",
"/. c #B9A8AA",
"(. c #B2B2B2",
"). c #B8B6B9",
"_. c #D19785",
"`. c #E99A89",
"'. c #EC998F",
"]. c #D2A38D",
"[. c #CDAC98",
"{. c #D6AD96",
"}. c #D2AF99",
"|. c #CDB29C",
" X c #D1B099",
".X c #D4B399",
"XX c #EBA489",
"oX c #FAA68A",
"OX c #FCA58A",
"+X c #EBAA98",
"@X c #F2AB96",
"#X c #E8B49F",
"$X c #FDB396",
"%X c #F6B49A",
"&X c #C3ADAE",
"*X c #C7B6AA",
"=X c #DBB7A8",
"-X c #C4ADB1",
";X c #CDBBB2",
":X c #C7BCBA",
">X c #D3BAB3",
",X c #E7B6A6",
"<X c #EEB3AA",
"1X c #F2B4A8",
"2X c #B9C1BC",
"3X c #C6C2BC",
"4X c #D5C5B8",
"5X c #EAC8B7",
"6X c #F7C7BE",
"7X c #AEB9C1",
"8X c #B3BEC6",
"9X c #BBBDC3",
"0X c #B9BFC8",
"qX c #C3BDC1",
"wX c #B0C3C5",
"eX c #B5C2C5",
"rX c #B9C1C5",
"tX c #B5C2CA",
"yX c #B9C2CA",
"uX c #BCC8CE",
"iX c #C7C7C7",
"pX c #CDD0CE",
"aX c #D4D3D3",
"sX c #D8D9D9",
"dX c #F7C6C1",
"fX c #F6CCC6",
"gX c #E1D1C1",
"hX c #EED3C2",
"jX c #EAD2CA",
"kX c #F6DBD7",
"lX c #EFE1DC",
"zX c #D6DDE0",
"xX c #D7E2E6",
"cX c #D9E4E6",
"vX c #E8EAEA",
"bX c #F7EAE6",
"nX c #F8F3ED",
"mX c #EEF1F0",
"MX c #F4F6F2",
"NX c #F8F7F4",
"BX c #FAFAF6",
"VX c #FCFDFA",
/* pixels */
", 3 3 3 1 1 3 3 3 3 3 3 < , 3 , < 2 , , , , , , , , , , , , , , , 1 1 , , 1 2 , 2 , 2 1 1 2 3 3 3 , , 2 , < , 1 2 2 , , , , , , 3 ",
"0 0 0 R Z G p.Z e 0 q q q q q q q 0 q q q q q q q 0 0 q q q q q b y.y.0 M D P 0 q e q M p.7 q q q q q 0 q e C y.q 0 q q 0 q 0 0 0 ",
"q q q e b m v y.H q 0 q q q q q q u q q q q q q q q u q u q q q 0 S a.e y.v 0 q q u q A s.e e q q 0 q q u q S u.e q q q q q u u q ",
"q q q q F y.q b h.b u q q q q q q q q u q q q q q q q q 8 u 8 u r S a.e i.e q q u q q R a.8 q q q u q q u q A u.e q q q q q q q q ",
"q q q 8 F y.8 q i.S q 8 v e 0 I v v e 0 u v I q q 8 r e v q q q q V a.B H 8 u q I v 0 C s.v v q q r v e b q V a.b 8 q q 0 q q q q ",
"q q q q F y.q q F y.b y.F G 8 s.s.p.B q m i.p.C b s.B S s.q q 8 q V f.s.m u q M p.p.n C g.y.i.m q C y.i.j.b V g.F i.b q u q q q q ",
"u q q q F y.u u F y.i.V 8 s.n h.A B a.8 d.M P d.v a.C p.y.8 u q q S f.a.N q 8 d.b M i.V f.v N s.v s.b m g.b V f.e B i.q q q q q q ",
"q q q q F y.q e u.S h.n 8 u.S s.N M s.v h.n A d.8 y.b a.B e q q u S a.v d.I P f.b S a.V d.7 I f.n h.v e f.b Z a.8 m f.7 u q u q q ",
"q q q q F y.q b h.c f.m e u.S h.M A i.v h.F C b w y.b h.b u e q q S a.q y.M I j.D V v C s.q v f.M h.w L j.b V a.e b j.w 0 q q q q ",
"u q q 0 F i.e y.F 8 i.Z 8 s.S f.M A y.b f.S 0 e M Z I h.b C m q q V a.q M D m f.B w 0 A f.v B h.S f.b b g.b V h.v C s.C m u u q q ",
"e q e R a.a.y.A 8 q b p.H H n s.m m p.H N i.D A G e e i.H H e q e B i.q I y.p.M i.G G G Z F p.M m C y.p.a.y.G G H p.M m e 0 q q q ",
"y y t w L L t y 0 r r w L y t I w t P L t w P L t y e w P t t t r w v r t w t w w P L 0 t L L r r y L L w v e t L L i q r y y y y ",
"&X&X&X/.&X&X&X&X&X&X&X&X-X&X&X&X-X&X-X-X&X-X&X&X&X-X&X-X-X-X-X-X-X-X-X&X&X&X&X-X-X-X-X-X-X&X-X&X&X-X-X-X&X&X-X&X&X-X&X&X-X-X-X-X&X",
"uXuXuXuXuXuXuXuXuXuXuXuXuXuXuXuXuXuXuXuXuXuXuXuXuXuXuXuXuXuXuXuXuXuXuXuXuXuXuXuXuXuXuXuXuXuXuXuXuXuXuXuXuXuXuXuXuXuXuXuXuXuXuXuXuX",
"xXxXcXcXxXxXxXxXcXxXxXxXxXxXxXxXzXxXxXxXcXcXxXxXxXxXxXxXxXxXxXxXxXxXxXxXxXxXxXxXcXcXcXxXxXxXxXxXxXxXxXxXxXxXxXxXxXxXxXxXxXxXxXxXxX",
"cXcXcXcXcXcXcXcXcXcXcXcXcXcXcXcXcXcXcXcXcXcXcXcXcXcXcXcXcXcXcXcXxXcXcXcXxXcXcXcXcXcXcXcXcXcXcXcXcXcXcXcXcXcXcXcXcXcXcXcXcXcXcXcXxX",
"cXcXcXcXcXcXcXcXcXcXcXcXcXcXcXcXcXcXcXcXcXcXcXcXcXcXcXcXcXcXcXcXcXcXcXcXcXcXcXxXcXcXcXcXcXcXxXxXcXxXcXcXxXxXcXcXcXcXxXcXcXcXcXcXxX",
"8X8X8X8X8X8X8X8X8X8X8X8X8X8X8X8X8X8X8X8X8X8X8X8X8X8X8X8X8X8X8X8X8X8X8X8X8X8X8X8X8X8X8X8X8X8X8X8X8XeX8X8X8X8X8X8X8X8X8X8X8X8X8X8X8X",
"Q.Q.Q.Q.Q.Q.Q.Q.Q.Q.Q.Q.Q.Q.Q.Q.Q.Q.Q.Q.Q.Q.Q.Q.Q.Q.Q.Q.Q.Q.Q.Q.Q.Q.Q.Q.Q.Q.Q.Q.Q.Q.Q.Q.Q.Q.Q.Q.Q.Q.Q.Q.Q.Q.Q.Q.Q.Q.Q.Q.Q.Q.Q.Q.Q.",
"U.U.U.U.U.U.U.U.U.U.U.U.U.U.U.U.U.U.U.U.U.U.U.U.U.U.U.U.U.U.U.U.U.U.U.U.U.U.U.U.U.J.U.U.U.U.U.U.U.U.U.U.U.U.U.U.U.U.U.U.U.U.U.U.U.",
"i i i t Y i i i i i i i i i i L i i i t i i i i t i i i i i t Y i i i i t i i i i i i i Y t Y t Y i t i i i i i i i i i i i i i Y ",
"q q q q q q q q q q q q q q r u q q q q r r q q q q q q q q 0 q r q q q q q q q q r q u q q q q q q q q q q q q q q q q r q q q q ",
"q q q q q q q q q q q q q q q q q q u q q q q q u q q q q q q q q u q q 8 q q q q q q q q q q q q q q q q q q q q q q q q q q q q ",
"q q q q q q q q q q q q q q q q q q q q q q q q q q q q q q q q q q q q u q q q q q q q q q q q q q q q q q q q q q q q q q q q q ",
"q q q q q q q y u q q y r q q r q q q q q y q y u q q y q q r q q q r u q q q q q q r q y u q q q q q q y q y q q q q q u q q q u ",
"q q q q r q q q q q q q q q q q q r r q q q q q q q q q q q q q q q q q q q u y y e q q q q q q q y q q u q q q q q q q q q q y r ",
"y y r r y y y y y y y y y y y y y y y y y y y y y y y y y y y y r y y y y y y y y y r y y y y y y y y y y y y y r r y y y y y y r ",
"<X6XdXdX6X6X6XdX6X6X6X6X6X6X6X6X6X6X6X6X6X6X6XdX6X6X6X6X6X6X6X6X6X6X6X6X6X6X6X6X6X6XdXdX6X6X6X6XdXdXdX6X6X6X6XdX6X6X6X6X6X6XdXdXdX",
"fXBXVXVXVXVXVXVXVXVXVXVXVXVXVXVXVXVXVXVXVXVXVXVXVXVXVXVXVXVXVXVXVXVXVXVXVXVXVXVXVXVXVXVXVXVXVXVXVXVXVXVXVXVXVXVXVXVXVXVXVXVXVXVXVX",
"<XVXNXNXMXMXMXMXNXNXMXNXMXMXNXMXNXNXMXNXMXNXMXMXNXNXMXMXNXMXMXNXNXMXMXMXNXNXMXNXMXMXMXMXMXMXMXMXNXbXnXNXMXMXMXMXMXMXNXNXNXNXMXVXVX",
"<XBX).V.S.S.S.V.S.S.S.S.S.S.S.V.V.S.S.D.D.D.D.D.D.D.D.D.D.D.D.D.D.D.D.D.D.D.D.D.D.D.D.D.D.D.D.D.X.K } F.D.D.D.D.D.D.D.D.D.D.J.MXNX",
"'.BXvXaXaXaXaXaXaXaXaXaXaXaXaXaXaXpXG.V.B.B.B.B.B.B.B.B.B.A.V.B.B.B.B.B.B.B.B.B.B.B.B.B.B.B.B.A.X.t ) V.B.B.B.B.B.B.B.V.A.S.J.MXMX",
"n.VXaXD.G.X.F.G.G.G.G.G.G.G.F. .F.F.V.B.B.B.B.B.B.B.S.B.B.H.~.G.B.B.B.B.B.B.B.B.B.B.B.A.D.B.B.B. .t ) B.A.D.A.B.B.B.B.B.B.B.^.BXnX",
"1.BXsX .W 4 4 E E E E E E E E 4 E Q V.V.B.B.B.B.B.B.D.J.pXnXvX2XH.B.B.B.B.B.B.B.B.A.@ A.B.B.B.B. .t ) B.@ A.B.B.B.B.B.B.B.B.).BXbX",
"=.bXvXE 6 ;.:.:.:.:.:.:.:.:.:.,.K 6 F.J.K.K.W.W.K.W.aXmXNXNXmXuX^.H.K.K.Q.K.K.K.W.K.K.K.Q.K.K.Q.L.t O.K.W.K.K.K.Q.Q.Q.W.K.K.pXBXkX",
"Y bXmX! -.,XhX5XgX5XjX5X1XgX5XgXXX6 /.tXtXtXtXtXtXtXH.+ + + + X X K.wXtXtXtXtXtXtXtXtXtXuXuX8XtX/.Y <.tXtXtXtXtXuXtX8XtXtXuXcXBXdX",
"T kXNX! :.=.].I.U.J.R.b.v.I.P.P.+X6 /.9XtXtX8XtXtX(.X         . X A.tXtXwXtXtXtXtXtXtXtXtX).(.Y.L.J +./.).yXtXtXtXtXtXtXtXtXmXBX<X",
"L fXNX) :.b.<X*X*X:X;XXXm.4X*X*X@X6 /.0XtXtXtXtXyX9X@ . XXXXm.XXXX).tXtXtXtXtXtXtXtXtX).L.] l l k ~ ( [ ^ ] Y.rXtXtXtXtX8XuXmXVX'.",
"r <XVX&.:.m.,X*X(./.*X+XXX)././.<X6 /.0XtXtXtXtX8X9X_. .XXv.oXv.`.9XtXtXtXtXtXtXtXtXeXx.o.} } } } { ( z f f d x.8XtXtXtX8XuXMXVX1.",
"r <XNX<.*.b.{.*XE./.*XXX`.*XE.*X+X6 /.0XtXtXtXtXyX8X=X@X%XXXm.m.+XqXtXtXtXtXtXtXyXtXR.{ [ ' ~ z k j g g j k l l U.tXtXtXtXpXMXBX1.",
"r '.VX<.-.`.,X&X;X*X4X+X+X;X*X;X<X6 /.0X0XtXtXtXtXtX0X1X$X$Xm.m.+XtXtXtXtXtXtXtXtX8Xo.` ( ( ~ ( ( ' ` [ ] [ ~ ( z /.eXtXtXpXVXMX=.",
"r 1.VX;.*.:.{.Y.I.P./.b.v.R.R.R.+X6 /.0XtX0XtXtX8XuXtX=X$X$XoXoX=XtXtXtXtXuXtXtXtX^.d l l ~ ( ' [ ( / ~ ~ ( } / z x.tXtXtXaXVXbXY ",
"r 1.BX<.*.+X=X>X;X4X>X=X=X4X;X4X@X6 /.0XtXtXtXtXtX8X8X:X$X$XoXXXqXtXtXtXtXtXtXtXuXo.f f f f f g j ~ ` { } } / ^ } o.8XeX8XzXVXbXw ",
"u -.NX<.*./.P.P.I.P.P.P.P.P.P.R.@X6 !.0XtXtXtXtXtX8XtX_.=.`.n.v.eXtXtXtXwXtXtXtXtXx.~ / ' [ [ } } } } { ( d ~ } ] ~ 9XtX8XcXVXfXq ",
"u $.bX<.*.hXhXhXhXhXhXhXhXhXhXhXXX6 (.wXtXtXtXtX2X~.z.h J K f O @ ~ z.~.uXuXtXtXtXI.[ { { { ' ' ~ z j g j [ } [ k } tXtXtXvXVX<X7 ",
"u $.kXv.6 #.#.$.#.#.b.-.#.$.#.#.K 6 (.uXtX0XwXA.r.0.O > 9.O 5.9.O > 9.0.t.wXtXtXtX/.d j j j l l g f j ( } } ~ g j U.tXtXtXmXBX<Xq ",
"0 r jXlX] W W W W W 4 ! +.+.+.+.+.L.wXwXwX~.r.8.6.6.5.> 5.9.9.6.7.- 7.6.4.t.wXwXtXrXo.` ( l j f j ~ } } ( j f f ^ (.tXtXuXMXBX'.q ",
"r q dXVX^.B.B.B.B.B.V.H.tXtXtXuXyXtXwXwXT.8.8.e.6.6.q.: O 8.8.9.7.- 7.6.4.3.t.wXtXtXL.l f f j / { { / j f f f d O.8X0XtXuXMXVX1.q ",
"r q 1XVX(.B.B.B.V.B.V.G.8XtXtXtXtXtXeXt.8.8.8.8.8.8.8.o a 9.9.9.q.- 7.9.4.3.3.T.tXtX/.j j ' ' ` z j j z z k l ' Y.eXtXtXuXMXMX1.u ",
"u q '.VX).B.V.B.B.B.B.D.8XtXtXtXtX2Xt.4.6.8.8.6.8.8.9.a % : : : - % O 9.8.3.3.e.wXtXeXO.} } } } { [ / j g d ` o.(.eXeXtXaXVXbX$.q ",
"q u `.NXaXB.B.B.B.B.B.S.7XtXtXtX2X>.w.8.8.8.8.8.9.6.9.a # # # # $ $ o 0.8.3.3.3.T.tXeXI.l z j j f f j l ( { ] o.9XtXtXtXsXVXbXY q ",
"q u 1.NXsXV.V.B.V.B.B.V.(.tXtXtX:XY h q.8.8.8.8.9.6.9.: # # # # # $ a 8.8.3.2.3.a 9XeX(.l f s d z ( [ { ( l g x.yXtXtXtXcXBXkXi u ",
"q q %.NXvXV.B.B.V.V.B.B.(.tXtXtX>Xn.I x 8.8.8.8.9.9.q.; 5 5 5 # # # - 9.6.3.o : = /.8X8X} z / ` ( z j g g l z /.tXtXtXeXvXVXdXt q ",
"q q $.nXmXS.V.B.B.....B.Q.uXtXyX5X$X1.P w.8.8.e.8.8.5.% $ 5 5 # # # & 5.9.o % 9 `.:XtXtXI.z j j j ~ / ( / j ~ ).tXtXeXeXvXVX<Xr q ",
"q q Y bXNXG.V.V. .]  .V.W.yXtX=X$X$X$X=.J q.t.t.8.8.o 5 $ 5 # # # 5 # o 7.1 -.OXoX>XtXyX).} [ ( ~ z l j j l L.9XtX2X2X2XmXBX'.q u ",
"q q p kXBXJ.B. .] V.B.V.W.yX3X1X$X$X$XoX=.E.wX(.0.O % 5 5 $ 5 # # 5 5 & x m.OXOXOX=XtXtX9Xx.{ [ ~ z l ~ ( } Y.&XtXN..XuXMXVXb.q q ",
"q q r fXVXR.A.X.X.V.B.B.K.8X=X$X$X$X$X%X>X9XtXtX_ * $ 5 $ $ 5 $ # # # # 4 @XOXOXOXOX:X8X8XU.d z / / ( ( ~ ] _.;.3Xl.M.2XMXnXb.e q ",
"q q r <XVX(.pX>X>XaXD.B.G.8X,X$X$X$X$X%X:XtXtXtXL.$ $ 5 5 5 5 5 # # # $ ) <XOXOXOXOX,X9X9X).~ j d l d j f | %.Y k.l.l.M.nXnX%.7 q ",
"q q q '.VXrXaXlXsXsXF.B.F.8XrX%X$X$X$X$X<XrXtXtX!.* 5 $ 5 $ $ 5 5 # # $ +.=XOXOXOXOXOX:XtXtXL.{ [ ( z j g K U p m j.g.M.nXbXY q 8 ",
"q q q `.VXpX4X`.1.:.C.B.S.8XyX>X$X$X$X$X%XiX0XtXY.* 5 $ 5 5 5 5 # # # $ /.:XoXOXOXOXOX,XyXtX/.d d g j ~ L.;.e 8 b g.g.M.BXbXY q q ",
"r q q 1.BXsXpXn.T K ..V.B.7X8X0X1X$X$X$X1X>X8X0XZ.$ 5 5 # # # $ # 5 5 = /.9X>XOXOXOXOX@XqXtXtXY.o.{ O.Y.rX_.:.$.n g.g.M.BXfXU q u ",
"r q q -.BXsX4Xm.T @.V...S.(.tXtX3X%X$X$X$X=XtX0X! 5 5 $ 5 $ 5 5 5 $ 5 = 9X8X8X#XOXoXOXoX>XtXyXtX&XJ v.uXrX*X|.,.n g.g.M.BX5Xr q 8 ",
"q q q $.nXlX3XoXT @.F.F.S.^.0X0XrX>X$X$X$X,XqX:X4 * = = = = = = = = = ) ).9X0X:X+XoXoXoX=X9XrX9X&XK v.8XeX|.].,.c g.g.M.nX+X0 r u ",
"q e q %.=X*X5X1XT @.c.c.E.[.|.*X|.|..X.X.X{.}.-X{.].].].].].].].].].].].*X*X|.[.}..X}.{.{.|.|.[.[.].{.&X.X#.Y L c g.g.k.c.v.Y q q ",
"q q 0 v..X.X.X=X_.v.z.c.c.].]..X}..X[..X.X[.[..X[.|.[..X.X[..X[..X.X|.[..X[..X.X[.}..X.X[.}..X[..X[..X.X[.#.w 7 J k.k.z.c.c.v.8 q "
};
