/* XPM */
static char *_1712829581[] = {
/* columns rows colors chars-per-pixel */
"65 65 120 2 ",
"   c #1F0C10",
".  c #2B0C0E",
"X  c #340E0F",
"o  c #3D0F0E",
"O  c #26100E",
"+  c #2D100F",
"@  c #37110E",
"#  c #3A120F",
"$  c #320E13",
"%  c #3E0F11",
"&  c #2D1112",
"*  c #331113",
"=  c #3C1213",
"-  c #3C1218",
";  c #410F0F",
":  c #47110F",
">  c #4C110E",
",  c #410F10",
"<  c #4A0F11",
"1  c #510F19",
"2  c #441315",
"3  c #4B1315",
"4  c #4E1817",
"5  c #441418",
"6  c #4E1518",
"7  c #521516",
"8  c #5C1416",
"9  c #531917",
"0  c #5B1816",
"q  c #521519",
"w  c #5C1619",
"e  c #53181B",
"r  c #5B1819",
"t  c #631616",
"y  c #691717",
"u  c #631816",
"i  c #6A1817",
"p  c #64161A",
"a  c #6A161A",
"s  c #651A1B",
"d  c #6B1A1D",
"f  c #75171B",
"g  c #7C171A",
"h  c #75191A",
"j  c #7C1A1D",
"k  c #6B1A20",
"l  c #761C22",
"z  c #7E1C21",
"x  c #742022",
"c  c #7D2326",
"v  c #811717",
"b  c #821917",
"n  c #83171A",
"m  c #83191B",
"M  c #8C191C",
"N  c #941B1D",
"B  c #9D1D1F",
"V  c #A01D1E",
"C  c #811E21",
"Z  c #8C1B21",
"A  c #931E22",
"S  c #9C1D21",
"D  c #A31D23",
"F  c #AB1E24",
"G  c #AF1E28",
"H  c #B31E25",
"J  c #BB1F25",
"K  c #B41F28",
"L  c #BA1F29",
"P  c #8C2328",
"I  c #962125",
"U  c #9A2125",
"Y  c #982028",
"T  c #A52325",
"R  c #AD2126",
"E  c #A5242A",
"W  c #A92429",
"Q  c #AE2A2D",
"!  c #B22026",
"~  c #BA2026",
"^  c #B32229",
"/  c #BA2129",
"(  c #B22B2E",
")  c #B9292B",
"_  c #AF2C31",
"`  c #B32D31",
"'  c #C41F25",
"]  c #CA1F26",
"[  c #C51F28",
"{  c #CB1F28",
"}  c #C32026",
"|  c #C92027",
" . c #C22228",
".. c #CA2229",
"X. c #C2292D",
"o. c #CE282D",
"O. c #D22225",
"+. c #D1252D",
"@. c #D12A2F",
"#. c #C52E32",
"$. c #CD2C32",
"%. c #D42D32",
"&. c #D82F34",
"*. c #C43034",
"=. c #CE3436",
"-. c #D53135",
";. c #D93336",
":. c #D23439",
">. c #DB3539",
",. c #DD393B",
"<. c #E03639",
"1. c #E23B3D",
"2. c #E43D41",
"3. c #E93E42",
"4. c #E64143",
"5. c #EC4445",
"6. c #ED4649",
"7. c #EF4849",
"8. c #F14646",
"9. c #F0484A",
/* pixels */
"............| | ..p F | | | | ....| | ] ........| ..| ..|  ...| | 6 ~ | | ..|  .| ! r  .....| ..| ..[ ..| | ..V f | | ......| ....",
"| | ..[ .. .| | ..j M | ..| ..| | | | ....[ ..| | | ....| | | | N h | ..| | | | ..! p | ..| | ..| X.| | |  .| T s ......| | ..| ..",
"S S S S S S B A S h w T S S N U U U S S S U B S U S S I B U B A 2 Z I S B U S U S Z 6 B S U S N S I S S B S U j 7 S B S S U A S A ",
"2 3 2 3 3 3 2 5 2 5 & 2 3 2 5 = 5 2 3 5 3 3 2 3 2 3 2 2 - 2 2 3 & 5 3 2 3 3 2 3 2 2 & 5 3 5 - 5 2 6 2 3 4 5 3 5 * 2 2 2 5 - 2 3 3 ",
":.:.:.=.:.:.:.:.=.:.:.:.:.:.E s -.-.:.:.:.:.:.:.:.:.:.:.t E :.:.:.:.:.:.=.:.:.:.:.:.:.:.:.:.d W :.:.=.:.:.:.=.=.:.:.:.$.B d =.:.:.",
"7.7.5.5.5.4.4.2.,.,.;.;.-.@.T d >.<.,.,.,.,.,.,.,.1.>.,.j I ,.,.,.,.,.,.,.,.,.,.,.,.,.,.1.,.s ` 6.6.6.6.5.5.5.6.5.4.6.5./ 0 2.6.9.",
"o.o.o.o.....| | | | ..] ] | T d { ..{ ....[ | ......[ | S f { { ..| | | ..| ..| ..] ..[ { ..s R  .o...|  ...............+.7 #.&.%.",
"....| | ......| ....[ | ..| D d ..| ] | ....| | ] | ..| H w ..| | | | | | | | | | | | | ..| s R | .. .| | | | | .. .{ { { a S ] ] ",
"..| ..] | ....| | | ..] ..] D d ..| ] | ] ....] ..| ..[ [ q  ...| ..] ....| ] ..] ] | | | | p T | ..] ] ] [ ] ] ....] | | Z C ] [ ",
"B B B D B B S B S B S S V B m 7 B B V B B S B B B S B B D 2 M S B B B S S B S S B D S B B B 7 m B B S B B B B B S B B B S b 7 S B ",
"6 6 6 < 6 6 6 3 7 3 7 6 q 6 2 $ 7 6 7 6 q 6 6 6 q 6 6 7 q * = q 7 6 q 6 q 6 q 7 7 6 6 6 9 6 & 2 6 6 7 6 6 7 q 6 7 q 6 6 6 3 O q 7 ",
"Q Q Q Q Q Q Q Q W r m T E T W W W W T W W W W W T A 6 R E W W T E E W W W T W T Z 7 W ( ` ` ` ` ` ` ( ` P 0 ( ` _ Q ` _ ( _ ( Q ( ",
"@.%.@.o.+.@.+...+.7 ~ @.4.4.5.4.2.4.4.4.4.4.4.2.4.) w <.5.4.4.4.4.4.4.4.4.4.1.4.X.6 o.<.<.,.<.,.<.,.,.1.Q a ;.;.;.;.;.&.&.&.%.%.%.",
"] | ] ..| ..| ..J 7 | ] o...o...o.o.o...o...o.o...^ p +...o...o.| o...o...o.o.o.{ 3 ~ [ | | ] ] | | ] ] S a ..{ [ ] ] ..[ ] [ [ ] ",
"{ { [ ....{ ....N f ..........| | | ..| | | ....] K 0 ..] ......| | ..| | | ..| ..p F | | ..| | ..| [ | S f { { [ { ..[ ..{ { { ..",
"....{ { [ ..] | 0 G ..[ ] | ....{ { ..{ ..| { ..] K w +.] ..] ..| ..| ......{ | [ Z m ......] | ] ..[ ..D h O...{ ..{ { ..{ O.{ ..",
"! ! R ! ! R ! T 2 R ! H ! R H H H R R H ! ! ! ! R S e ~ ! ! R ! ! ! ! ! H H ^ F ^ A 0 ! R K ! ! ! ^ ! H Z p ^ H R ! ! ! ! R ! R ! ",
"y y i i i y y 8 . y y y y y y y y y y t y y y y i 0 * y i y i i y y i u p y a y y y . p y y y i y y y y 0 = d i y y y y y y y y y ",
"C P j j p 5 j C z P C m C C C C C C C P z = z C P j C z z C P j z z P j C j j = C z z z C C z C C l * C C C C j m P j c C C m c C ",
"5.5.4.+.w F <.6.7.5.5.5.8.8.5.8.5.8.6.5.$.q <.5.5.5.5.5.5.8.5.5.8.7.5.8.8.7.$.0 :.5.5.5.5.6.5.5.6.,.3 +.5.5.6.5.5.7.5.5.5.8.5.8.5.",
"..o...H 7 | o.o.o.o.o.o...o.o.o...o.o.o.~ q O.o.o.o.o.o.o.o.o.o.o.o.o...o...| e [ | ............|  .3 L o...o.o...o.o.o.o.o.o...o.",
"..| | p S [ [ ] ] ] ] ] ] ] ] | ] ] ] [ H 0 +.[ ] | ] ] ] ] ] { ] | | ] ] ..~ e ] ....| | | | | | ..p D ....] | [ ] ] | | | ..{ | ",
"| | F q { ..{ { ..{ ..| | | | ..| ....| F p { [ ..| [ ] ] ] ] ....| | | ..| | e ..| | ..| | ........Z n [ ..{ ..{ ..| | | | { ....",
"~ ~ d M ~ ~ J J ^ L ! ~ ~ ~ ~ J J ~ L J A y J J J ~ ~ J H J K J J ~ ~ ~ ! J R 6 ^ ~ ! ~ L ^ J ~ / ^ I 0 J L ~ L ~ J ~ J ~ J ~ J ~ ",
"m h @ j n n n v b n n m n b m n b b n n t < M n v n n n b n b j m n n b m n g 2 j n n b n b v b m b b * j b b n n n v b b b b m n ",
"7 q 1 7 7 q q 2 & 7 w q q q q q q q q q q 6 6 7 q 0 q q q & 3 q 7 q 7 q q q 7 6 0 7 8 * 2 6 7 7 q 7 q q 7 + 6 3 7 7 7 7 7 7 7 7 7 ",
"1.2.1.2.1.1.>.T l ;.,.2.2.2.4.2.4.4.4.4.5.5.5.4.5.4.3.4.-.7 X.4.4.2.5.4.2.4.2.2.1.4.5.c U 2.1.2.1.2.1.,.;.w X.1.1.1.1.1.1.2.1.1.1.",
"o.o.+.o.o.o.o.S a ........o.o.@.%.%.;.;.>.,.,.2.2.4.5.4.^ w %.-.;.-.-.&.%.%.%.%.%.$.@.l S +.o.+.+.$.@.+.+.w ~ +.+.o.+.o.o.o.o.o.+.",
"] ..{ ..] ] | S f ..| | ..{ { | ] ] ....[ | | ......o...Z m ..| | | | | ..[ [ ..] | ..f B | { | | | [ ..[ w J ] ] ] ] ..[ { { ....",
"| ..........| D d ....| | | ..| | | | | | | | | ......O.0 R | | | | | | | | ..[ ......g S | ..........{ | 0 J ] ........{ ..| | | ",
"H H ! H H ~ ! Z s H ! ! ! ! ^ K H H ^ K H K K ! ! ! K R 3 F ! H R ! H ! ~ ! H ~ H ! ! k Z ! ! ! ! ! ! ! ! 7 V ! ~ H H ! H H ! H ! ",
"M M M M M M M h 7 M M M M M M M M M M M M M M M M M n f 3 M M M M M M M M M M M M M M q i M M M M M M M M 2 n M M M M M M M M N n ",
"< < 3 < < 3 , 2 % < < < < 3 3 < < 3 < 3 3 ; $ 3 3 < < , % < 3 < 3 < < < 6 3 X , > 3 < % 2 < 3 < < 3 < 3 3 % , 3 < 3 3 < % = < < 3 ",
":.:.%.-.:.%.&.-.-.:.-.&.:.%.&.-.:.-.-.-.%.T w  .-.-.&.-.-.-.&.-.-.-.-.;.&.%.f A %.-.-.-.-.-.-.-.-.-.-.-.-.-.-.-.-.%.-.-.S d %.-.-.",
"%.%.%.%.%.%.%.%.%.-.&.;.&.&.%.-.&.;.;.;.-.d D &.;.;.<.;.;.,.>.>.;.>.;.;.;.;.E a &.;.>.>.;.;.;.;.;.>.;.;.;.;.;.>.>.;.>.;./ w o.+.o.",
"] [ ] { [ ] | | { | ..[ [ [ | | [ [ ] [ J 7 ..] | | { [ [ [ | | ] | ..[ ..[ J 7 [ ..| [ | | ....| ..[ ..{ [ ..| ..[ ..[ ..7  .[ ..",
"] ..{ ] | ] ] | ] ] ] ] ] ] ] [ { | | ..m m ..[ ] ] ] ] ] ] ] | | | ] ] { ....p F | ] ] ] [ ] ] | | | ] ] ] | | ] ] ] ] ..0 H [ | ",
"} /  .}  .} }  . . . .}  .[ [ } } } | ~ q R }  . . ./ }  . . .~  .}  .} |  . .m j |  . .} }  . ./ ~ }  . . .}  . . . . .| d A  .} ",
"N N N N N N N N N N N N N N N N N M N f 6 N N N N N N N N N N N N N N N N N N j 2 N N N N N N N A N N N N N N N N N N N N p p N N ",
"; ; # : , ; ; , ; ; o 2 % , , ; ; 2 = . X , ; , o % : : , % % % = ; , , , o = :   , ; ; = : , = 2 ; , , : % o , % % % ; ; X . ; , ",
"*.#.*.#.#.#.) #.#.#.#./ 3 F #.#.#.#.o.*.#.*.o.*.#.#.*.*.*.X.p T #.*.X.*.#.#.#.#.#.#.#.#.$.#.r E *.*.#.#.#.#.#.#.*.X.q ( #.#.#.#.#.",
"<.1.2.2.4.4.4.5.4.5.5.T u ;.5.4.4.4.4.4.4.1.1.1.<.1.>.>.>.&.d ! -.>.>.;.;.;.>.;.-.>.;.-.;.;.s ` <.<.<.<.<.,.,.>.,.>.w #.&.;.;.,.<.",
"....| | ........O.o.o.p D ..o.o.......| | | | | ..[ | ..{ | d F ..| | | ..| | | ..| | | [ ..s F | | { | ....| | | | r ~ ..[ { ....",
"..| | | ........{ [ D p ....[ | ....| | | | | | ] [ ..| ..| d V | | | | ] | | | | | ..| ..[ s R |  .{ { [ [ ] ] | ..0 ~ ] ..[ ..[ ",
"{ [ ..{ ......| | ..t S | [ ..[ ..{ [ ..| ......{ ..] ....| a F ..........[ ........[ { ....p F o...| | ..| | | ....w J [ ........",
"D S S S B S S S S Z 2 S B S D B S S D S Y S S S S S S B S D e C S S B B B D B B S B B S D V q b B B S S B B S S B U 5 A S S S S S ",
"w 8 0 0 w 0 0 8 8 @ 2 w t 8 0 8 8 8 8 8 8 0 0 w 8 0 8 t 0 t * 7 w 8 8 8 w 8 8 8 w 8 8 0 w w * 7 w w w w 8 8 8 8 w 8 $ 7 8 8 t w 8 ",
"I I Y A % Z A A S I A Y I A U U A Y I I I I A Z 2 A I I I A Y Y I I I I I I U I I I m 2 A I I I I I I m < I A I U A Y Y A I I I I ",
"5.5.5.1.f E 5.7.8.8.8.5.5.5.5.3.5.5.1.1.5.1.1.#.p @.;.;.;.<.;.<.<.<.1.1.1.2.1.2.5.1.A h 1.3.1.2.1.4.1.*.w <.5.8.5.3.5.5.5.5.5.5.5.",
"....o...A j -.-.%.%.@.@.@.o...+.............] H y ..] { ] ] [ { ] ] ] ] { [ | ..{ ..w F ] | | | ..| | H t ......o.+...o...........",
"[ ] ] | H w | | ..] | ............{ ..| ..| | V y { ..[ ..........] ..] { ....| | J 0 [ | | ] | | | | H 8 ] | | [ { { { ..{ ..{ ..",
"....| | ..7 ~ ..........{ { ..{ { [ ....{ | | H w ....| { { { [ [ | | ] ....| ....j M | ..| { ..| | ] H t ] ..| { ......| | ....| ",
"! ! H ^ ^ 7 S ! ! ! ! ! ! ! ! ! R ! ! R ! ! R S 7 ! R R ^ R H R ! ! R ! ! ! R ! R 3 T F ! ! ! R R R R B 7 R ! ! ! R ! ! H ! ! ! R ",
"h g f f j 2 w f g h h h g h h h h h h h h h h i # g f f h h f f g h h h h h h h p * f g h f h h h h h i o g h h f h h h h f f f g ",
"a d y a u a p a d a a p - 0 d d i d d d d d d k a i d d i d = 0 d d d d d d d d i d d d d d d d k h k d s s d d d d d d * w y a a ",
"4.1.3.2.2.1.2.1.1.,.>.>.y ^ 5.7.7.7.7.5.5.5.5.5.5.5.5.5.4.5.x ( ,.>.<.,.<.<.<.<.,.>.<.>.<.<.,.>.,.>.,.>.>.<.<.,.>.,.>.&.3 $.3.2.3.",
"+.o.| o.+.......o.| | | q ~ %.%.@.o.o.$.o...o.| ....| ..o...s F | | | | | | | | | | | | [ | | ..| | ] | | | | | ..| | H 8 @.%.@.@.",
"| | | | ....| ..| | | | 7 } | | | | | | | ..| [ ..] ..| [ ..i F | | | | | | | | | | [ | | | | | | | | | | | | | | ....j m ..] [ ..",
"| ..| | | ..| | [ | ..' 7 | | | | | | | ] { ..| ..| ..{ [ { d F | | | ....| | | ] | ....| | ] ] |  .] | | ..| | | | | 7 H | | | ..",
"~  .' J } } ~ ~ ' J } J 6 [ ~ } } } ~ } } ~ ' } } } ~ } ' [ s S ~ } } ~ ' J ' } } ' ' J } ~ } } ~  .} ' J } J } ' ~ H 3 | } ~ ' ~ ",
"M M M M M M M M M M M j = N M M M M M M M M M M M M M M Z M 6 h M M M M M M M n M M M M M M M M N M M M M M M M M M i 4 M M M M M ",
"9 q 6 9 6 6 q e 2 * 7 e 2 7 6 6 4 3 q 4 6 7 4 7 7 4 4 7 6 6 3 6 6 q = = 7 7 7 9 q 3 & e 6 4 4 4 q 6 q q 6 6 q 6 * 7 3 > 6 q q 7 q ",
",.>.,.,.,.,.,.>.R 0 $.:.;.>.>.>.>.,.>.;.;.;.>.:.,.,.,.,.,.1.,.,.,.%.w ( ,.,.,.,.,.) r -.,.,.,.,.,.,.,.,.,.,.>.( d ,.,.,.,.<.,.,.,.",
"&.&.-.-.&.%.&.&...6 o.o.o.@.@.$.%.%.-.-.-.-.-.>.-.>.>.>.,.1.,.,.>.^ w %.-.-.%.o.+.) r -.;.;.>.>.;.;.;.>.>.;.;.( s &.&.&.-.-.-.-.&.",
"| | | | | | | | | 7 ~ | | | | | | | ] | ..] ] ] [ ] | | ] ] ] [ { g Z | [ ] | | ..H w | | | | ..[ ] | [ | | [ F p | | ] | | | [ | "
};
